<mxfile host="Electron" modified="2024-01-06T12:27:52.934Z" agent="Mozilla/5.0 (Windows NT 10.0; Win64; x64) AppleWebKit/537.36 (KHTML, like Gecko) draw.io/22.1.16 Chrome/120.0.6099.109 Electron/28.1.0 Safari/537.36" etag="SWVl4zDAgmeiTgSMBgMN" version="22.1.16" type="device">
  <diagram name="Page-1" id="2YBvvXClWsGukQMizWep">
    <mxGraphModel dx="1098" dy="820" grid="1" gridSize="10" guides="1" tooltips="1" connect="1" arrows="1" fold="1" page="1" pageScale="1" pageWidth="850" pageHeight="1100" math="0" shadow="0">
      <root>
        <mxCell id="0" />
        <mxCell id="1" parent="0" />
        <mxCell id="aM9ryv3xv72pqoxQDRHE-1" value="USER" style="shape=umlLifeline;perimeter=lifelinePerimeter;whiteSpace=wrap;html=1;container=0;dropTarget=0;collapsible=0;recursiveResize=0;outlineConnect=0;portConstraint=eastwest;newEdgeStyle={&quot;edgeStyle&quot;:&quot;elbowEdgeStyle&quot;,&quot;elbow&quot;:&quot;vertical&quot;,&quot;curved&quot;:0,&quot;rounded&quot;:0};" parent="1" vertex="1">
          <mxGeometry x="40" y="40" width="100" height="580" as="geometry" />
        </mxCell>
        <mxCell id="aM9ryv3xv72pqoxQDRHE-5" value="&amp;nbsp;Mobile App" style="shape=umlLifeline;perimeter=lifelinePerimeter;whiteSpace=wrap;html=1;container=0;dropTarget=0;collapsible=0;recursiveResize=0;outlineConnect=0;portConstraint=eastwest;newEdgeStyle={&quot;edgeStyle&quot;:&quot;elbowEdgeStyle&quot;,&quot;elbow&quot;:&quot;vertical&quot;,&quot;curved&quot;:0,&quot;rounded&quot;:0};" parent="1" vertex="1">
          <mxGeometry x="220" y="40" width="100" height="580" as="geometry" />
        </mxCell>
        <mxCell id="Qs5NNN89bRjwcq2clkfe-1" value="JAVA DB" style="shape=umlLifeline;perimeter=lifelinePerimeter;whiteSpace=wrap;html=1;container=0;dropTarget=0;collapsible=0;recursiveResize=0;outlineConnect=0;portConstraint=eastwest;newEdgeStyle={&quot;edgeStyle&quot;:&quot;elbowEdgeStyle&quot;,&quot;elbow&quot;:&quot;vertical&quot;,&quot;curved&quot;:0,&quot;rounded&quot;:0};" vertex="1" parent="1">
          <mxGeometry x="375" y="40" width="100" height="580" as="geometry" />
        </mxCell>
        <mxCell id="Qs5NNN89bRjwcq2clkfe-3" value="Cloud" style="shape=umlLifeline;perimeter=lifelinePerimeter;whiteSpace=wrap;html=1;container=0;dropTarget=0;collapsible=0;recursiveResize=0;outlineConnect=0;portConstraint=eastwest;newEdgeStyle={&quot;edgeStyle&quot;:&quot;elbowEdgeStyle&quot;,&quot;elbow&quot;:&quot;vertical&quot;,&quot;curved&quot;:0,&quot;rounded&quot;:0};" vertex="1" parent="1">
          <mxGeometry x="540" y="40" width="100" height="580" as="geometry" />
        </mxCell>
        <mxCell id="Qs5NNN89bRjwcq2clkfe-5" value="" style="endArrow=classic;html=1;rounded=0;" edge="1" parent="1">
          <mxGeometry width="50" height="50" relative="1" as="geometry">
            <mxPoint x="280" y="140" as="sourcePoint" />
            <mxPoint x="420" y="140" as="targetPoint" />
          </mxGeometry>
        </mxCell>
        <mxCell id="Qs5NNN89bRjwcq2clkfe-6" value="PTV API" style="shape=umlLifeline;perimeter=lifelinePerimeter;whiteSpace=wrap;html=1;container=0;dropTarget=0;collapsible=0;recursiveResize=0;outlineConnect=0;portConstraint=eastwest;newEdgeStyle={&quot;edgeStyle&quot;:&quot;elbowEdgeStyle&quot;,&quot;elbow&quot;:&quot;vertical&quot;,&quot;curved&quot;:0,&quot;rounded&quot;:0};" vertex="1" parent="1">
          <mxGeometry x="690" y="40" width="100" height="580" as="geometry" />
        </mxCell>
        <mxCell id="Qs5NNN89bRjwcq2clkfe-8" value="Start transaction&amp;nbsp;" style="text;html=1;strokeColor=none;fillColor=none;align=center;verticalAlign=middle;whiteSpace=wrap;rounded=0;" vertex="1" parent="1">
          <mxGeometry x="290" y="120" width="110" height="30" as="geometry" />
        </mxCell>
        <mxCell id="Qs5NNN89bRjwcq2clkfe-9" value="" style="endArrow=classic;html=1;rounded=0;" edge="1" parent="1">
          <mxGeometry width="50" height="50" relative="1" as="geometry">
            <mxPoint x="273" y="185" as="sourcePoint" />
            <mxPoint x="578" y="184.5" as="targetPoint" />
            <Array as="points">
              <mxPoint x="478.5" y="184.5" />
            </Array>
          </mxGeometry>
        </mxCell>
        <mxCell id="Qs5NNN89bRjwcq2clkfe-11" value="" style="endArrow=classic;html=1;rounded=0;" edge="1" parent="1" source="Qs5NNN89bRjwcq2clkfe-3">
          <mxGeometry width="50" height="50" relative="1" as="geometry">
            <mxPoint x="600" y="200" as="sourcePoint" />
            <mxPoint x="739.5" y="200" as="targetPoint" />
          </mxGeometry>
        </mxCell>
        <mxCell id="Qs5NNN89bRjwcq2clkfe-12" value="" style="endArrow=classic;html=1;rounded=0;" edge="1" parent="1" source="Qs5NNN89bRjwcq2clkfe-6">
          <mxGeometry width="50" height="50" relative="1" as="geometry">
            <mxPoint x="730.5" y="240" as="sourcePoint" />
            <mxPoint x="600" y="240" as="targetPoint" />
          </mxGeometry>
        </mxCell>
        <mxCell id="Qs5NNN89bRjwcq2clkfe-13" value="Create Session" style="text;html=1;strokeColor=none;fillColor=none;align=center;verticalAlign=middle;whiteSpace=wrap;rounded=0;" vertex="1" parent="1">
          <mxGeometry x="590" y="170" width="140" height="30" as="geometry" />
        </mxCell>
        <mxCell id="Qs5NNN89bRjwcq2clkfe-14" value="Session info" style="text;html=1;strokeColor=none;fillColor=none;align=center;verticalAlign=middle;whiteSpace=wrap;rounded=0;" vertex="1" parent="1">
          <mxGeometry x="605" y="210" width="110" height="30" as="geometry" />
        </mxCell>
        <mxCell id="Qs5NNN89bRjwcq2clkfe-15" value="" style="endArrow=classic;html=1;rounded=0;" edge="1" parent="1" source="Qs5NNN89bRjwcq2clkfe-3">
          <mxGeometry width="50" height="50" relative="1" as="geometry">
            <mxPoint x="570.5" y="270" as="sourcePoint" />
            <mxPoint x="440" y="270" as="targetPoint" />
          </mxGeometry>
        </mxCell>
        <mxCell id="Qs5NNN89bRjwcq2clkfe-16" value="Create tx record" style="text;html=1;strokeColor=none;fillColor=none;align=center;verticalAlign=middle;whiteSpace=wrap;rounded=0;" vertex="1" parent="1">
          <mxGeometry x="450" y="240" width="110" height="30" as="geometry" />
        </mxCell>
        <mxCell id="Qs5NNN89bRjwcq2clkfe-17" value="" style="shape=image;imageAspect=0;aspect=fixed;verticalLabelPosition=bottom;verticalAlign=top;image=data:image/png,iVBORw0KGgoAAAANSUhEUgAAAhsAAAEuCAYAAAAneNA+AAAAAXNSR0IArs4c6QAAAARnQU1BAACxjwv8YQUAAAAJcEhZcwAADsMAAA7DAcdvqGQAAABhaVRYdFNuaXBNZXRhZGF0YQAAAAAAeyJjbGlwUG9pbnRzIjpbeyJ4IjowLCJ5IjowfSx7IngiOjUzOSwieSI6MH0seyJ4Ijo1MzksInkiOjMwMn0seyJ4IjowLCJ5IjozMDJ9XX2MTKlgAAD/OElEQVR4XuydBYBd13H+Z5mZWSutmBktS7IsmR0zxU7iMDVJA23/Sds0bZImbZO0YXY4DthxzEwyS7KYWVrQMvOu/vOb9+7qabXwVtLKkPM5L9p377v3nntovjMzZyYkIyv7hDg4ODg4ODg4jBJC/f86ODg4ODg4OIwKHNlwcHBwcHBwGFU4suHg4ODg4OAwqnBkw8HBwcHBwWFU4ciGg4ODg4ODw6jCkQ0HBwcHBweHUYUjGw4ODg4ODg6jijMiGxEhIRIfFiaxoaESqn+fKbg0OkIkPjpEovTfs7iV7030PhKjnzDfIQcHBwcHB4c3HiMK6pUQFiofy8mS6zJTJToqUnp7e2V/U4v8tKJKnqhvlPbe4G6lt5GphWHywbWRsnhShEREhEpnV6+s294lP3ikU/aU9UhPr//HwyEyRMIWREn4pbESlhUtIaEh0tPRKd1Pt0r3/a0ibS5mmYODg4ODwxuJoMgGCoeZcbHyw8ljpTg91XcwAM0dHfL7w2XynWMVUt7ZJUPdMDYqRK5eGCFfuDlOMpIj/EdP4nhtl/zLr5vloQ1d0tHlPzgIQjJCJeL6RIlZkSphMaffq21/vbR/u0ZOHOyWIQvl4ODg4ODgMGoIi4uP/6L/70FRFBUpP5s2XsYNQDRAZHi4TIqPk47uHtna3CodJwaW7OFhIssmh8t/3RkvaUmnkwMQHxMmS/U3r+3ultLa3kE5Qki8Eo2rlGisHZhogPCUKAkZFybdr7eJtDq24eDg4ODg8EZgWJ8NtBrvyk6XguRE34FBEKuEZG1mqsyIj/EfOR0JMSHyntXRkpI4MDnwkKrnP3BJlPlxDIaQCRESOTdewnD6GAQhISESma+/WRXrexEHBwcHBweH845hyUZ8WKgsTUuRyNDhfUlL4uNkXGysOZD2B0cyEkNl0cRI34FhsHRKpKTGD/LMcJGw/EgJyxn+XiHRIRIxRclGlGMbDg4ODg4ObwSGZRAZ4eESFR4WlGIgNDRE0iLCJWYAYgL/yEkJldCw4IR+qJKcvLRBiqcEIjRBy6TPGx7622j9bdLwZMnBwcHBwcHh3GNYCdx54oT0DuKD0R/8zH4/gKcFRzq6TwTtp8m92rsG+XWvng92t4riRK8+tyfYJzs4ODg4ODicSwxLNmq6u6W8rV16giAcTV1dUt7RMeAWWC4vq+2V6oYe/5GhUVXfbb8fEB1KaKq7pLc1iHspyeit6RRpdGTDwcHBwcHhjcCwZKNNicOjVXVS36ECewh09fTI6/VNsrulTboHISa1TSfk8deVjHQOrZZo7+iVh9d3SuNgO0iUY/Qe6pTu/W1yonuIe+nl3XX6uw2tqFz8Bx0cHBwcHBzOJ4La+npMiUZGaIhMToyT8LDTw3P29PbK7oYmuetoubzW1DIo2YAXVNafkOLMUCnICDcfj/7o6j4hz2xpl+893C5VQ2gjTrSckBP63NC8CAlNjLCdJ/3R09ol7c/USvcTbY5sODg4ODg4vEEIimy0qVDf1dIqTZ1dUhQRJnEREebxiS9HS2envFRZKz84Ui7P1DdKi/52MMBB6pQk7K/okbCQXslJIUx5qPlxcFl1Q7fc80Kb/FCJxu7SXr2/77oBgXajult6a7rkRNwJCU0KP+kw2nNCOstbpOOvddL1WIucqB9ak+Lg4ODg4OAwehhRuPKksDDJiYqUophomRgTJS09vbKjtU2OtXdIVVe3tA9BNAJBcK/U+BDbbTI+N0yykkOkrFZJSHmPBfLC3DKScOUh7HLJiJDQonCRKCUhR3rkxHElITX6rwvm5eDg4ODg8IZiRGTDQzjBsvTDhR1KMM5Ub4DlI5KYGaEh0t1zQrp6fNqPMwLeJxF6Q5Qb7GIJzg/VwcHBwcHBYZRxRmTDwcHBwcHBwSFYuEhXDg4ODg4ODqMKRzYcHBwcHBwcRhWObDg4ODg4ODiMKhzZcHBwcHBwcBhVOLLh4ODg4ODgMKpwZMPBwcHBwcFhVOHIhoODg4ODg8OowpENBwcHBwcHh1GFIxsODg4ODg4OowpHNhwcHBwcHBxGFY5sODg4ODg4OIwqHNlwcHBwcHBwGFU4suHg4ODg4OAwqnBkw8HBwcHBwWFU4ciGg4ODg4ODw6jCkQ0HBwcHBweHUYUjGw4ODg4ODg6jCkc2HBwcHBwcHEYVjmw4ODg4ODg4jCoc2XBwcHBwcHAYVTiy4eDg4ODg4DCqcGTDwcHBwcHBYVThyMYIEBoaKuHh4fYJCQnxH3V4oxHYLm830M+8d+M9Hd4eCAl17erwt4WwuPj4L/r/HhQhOhhCwnQi7+31H/EQYsdN8J444T82MCLikyQuZ4x0NtT4j5wZQsLCtDxh+tfQzzvXiIyMlJWrVsott9wiU6dMkfLyCmlsbPSf9SEsOkbiC0qkq7F22Pp4syAyKkyyx8RJWm6MxMRHSHdnr3R39W/nNwkG4Xdr1q6Ra6+9VlatWiXbtm6TtrY2/5nRBX0/NFz7YsjA/ZFxE6rCxNdnQ/1dYmT9YurUqXL9DdfLxatXS0dnp1RWVkpPT4//LM8Ik+j0HAmPiZXuthb/0bce4hIjJCUzWjo7eqS3ZwR1dAacPzo2TFKzYuw5b1RfnzBhgrznPe/WOWWV9osTcvjwYf+Zc4PQsBCJ0LEdFu7rdwNNR6O6YNJbn9Xt7eJRLN8biSHejXkiKiXD5GV3W7P/6NsDQZGNlMlzpfgd75Xq19ed0msjk1Il98KrJDanUJoP7/EfHRjJE2ZK0RW3y/GXH/cfGTl4XsHamyVrwUXSUVt11sRlJIiIiJDly5dLVFSkPPXU01JaWipdXV3+sz4kjpksxdd9QGq3vCQ9ne3+o29uxOokP21xukyckyIF4xOk7ni7NNZ2+s++ORAdGy4XXJ0nHW090lx/ap2DttY26erskovXrJantW2ampr8Z0YX9Oeiy2+X7KWXStbii23ybik7pGOkV0lGhKTPWibjb/uUZC1ao+fXStqMhdLVVC8d9dX2m2AwecpkmTZtqry2fr1s37ZNWlpaTDh5CI+OlfyLb5CYzHxp2LfVf/SthzGTk2T2hZlSebRN2pq7/UeHRm5xvEyen2a/b2sJ7hqQVRgn8y/OlibtSw01Hf6j5xfMHceVOC5ffoE0a3/dsuXctB1ybMykRLn41iJZeGmuzF6eKbNXZMrxo62+saNdh9/kFMfJ0ivzZN/mev+V5w6hoSGy6sZC6WjX8Vo38rkkTPv0hHf+vTTsel16u08f729lhEXFSPE175O240cHJBPhMXGStXC1JI6dKk2HdsuJt9H7B6W/O9HbIylT5kmoCtxAhEXHSVxesVZgrP/I4AjTlVdMZp7/25khIiFF0mYulYTiifZ5I1BVWSV79+61Sb8/mo/tl72//qZ0tb51GGlrY5dseOq47NlYJ5HRYfp586l0I7RM05akS4ySjoFQVlYm+/btk46O80uSINlMGAf+9AM5/uKjUnDJrTL+1k8Y6WBGj0pON1Jx9JHfyb7ff1vaqytsouG6kaC1tdXer6qqWnr7aRd7Otqk9Km/SMVLj/qPvDWBtiEpPVrCIwZe8Q2ErKJYI8j025EgIjJMktOj3tC+jlZ0+7bt0tx8bueKzIJYJRk5Riwevuug/PXH+2Xz81U+kuH/DSacnDFxSvAS/UfOLcIiQmXKwjSJT4r0MZsRgkVl+tzlphF8uwGNRdqMRUaoTrbISfS0t0nlq09K+XP3S+9bZMEaLILSbKDNQINR9dozJkjD4+JNwRGVnCrJk+YoA9slLaUHJSwyWpInzpbsJWuVGCRJZ51Ojn5mFpc3RgnLfKnd/KJkL7tUYjJypaO2Unq7ghMQqKyTSqZJ4rip0nhgh94/WeqV+UKEQkLDtRyz5ERPt6RMniOZi9fYCrKrqc6uDYuKlrj8cRKRmCJJ46ZIqjZ2T0e7dDc32LsFA2yrM2bOsFXlNp0k+ms1IGNxBSUSHhsnHdXlWpaTqm6Aujtey5C97DJJm+5b4XYFPD8iLlFXwBdL+uxl0qvvYVobzulgTSiebIw4Jj1Hci680laz9oyA1TECLj4+XmLj9FxH8Ks1HtGpK5DE1EibgEr3N0td5cnruW9aTrTMX50t81Zn6e+ipKZM666rV8IjQyVbJ/wEvbap7mR9ZOTFSGZ+rLQ0dZmqOiIqVGZdkCGzdOUKWE1SdOYhJsfEtEhpb+lRQXrChECOrliZLPk+fVm65I+Nl4lzU231mpASITFx4dKsJClQ3Z6cnCwrVq6Qp556KijNBnbysWPH2r/t7Wc2qDPmXmiTw/EXHpYWJZqtOgYKLrtVmo/slY66Kkkommgq0eOvPC6tZYeku6VR0rR9W0sPSVtVmVb+8NqNojFFkp+fL7t27ZLamlr/UR/C4xIkbdYyHYdpOkv5+0w/QNAz5iyXnOVXSLj2obaAvsmYShgzUbKXXqYEqEA6G2v1fVrtHBN+XP5YLWKv9cnMeSulrbJUevqZajAvJiT4hFZ3d/DaBdo+LTva+kSm9peY+HBJz4mR/VvqpaWhSwlBqIyfmSILL8mR8bOTpaO1V5rqO62/0leLpybJhFnJkqH9jIPJGZESqjdtbeq239BHpi9Nt36bp/2H/tTW7Hvv5IxoKdLVf01FuxRNTJSx05KkobrDNGeAsiVnRsucFT6tQFJGlGn7GCceIDgzlmXIYhXsBSUJNmbaA7QrnC/W+/J+8cmR+vxO6eo8vb0vWn2Rksiq0zQbjLvExESJioqyuSZQmzUUCickSK6+79YXa+TQzgZ77+NHWk3DYONL333SnBQrW3ZhnLQ0dtp45aVbdEyhlcjIizUt0+yVWnYlDPX6bp65ifOp2m7Uuw4dmbsqS8ZNT9Kxrv2vtVuKlMCgpZqyIM3qKy4h3OaCqrI2a5ehwKo+WefR5PHTJXXaQiXnZRKTVSBRSWnSznhRME/G5RaZ5jBR5/LsCy73zYc63pj/w2PjJXPBKsm54Art2xPsuKdBQNDH5hSZPEieMEvSdVx06ZhkXHqF477ItLyLrtVyzDCB39ngM4szXuILxknWkkskS58RGhEl7bXH7bkeIEhxuWMkR+f5lKnzbTHQ1Vhnz0zS+yVPnCmpUxboc+slKi1TYnUB3lpxxK6l7Cn67JjsQn1cj13H+OuDthHn8la8w2RhZ32tdLf65rowrTtkbHhMvMQXTpAMHa8nerv1HvVBzTPnA0GRjW6dgKj8hj2b7WXmfuGHWv4efdlqa5i6Ha9ZRZTc/HHJXHSRCtIGm5zQQtRue0UbrMM0IDRSytR59j193oVW+Y37t/VNcEMhQhuCCqRjNOzZIokqgCE4XkNOuO2TUnjpbdqhkiVUG7zklo9bR2s5ut9WmGOuercUrr1ZolKzbXLmfTjvNfRwGI5sZCgTT5k4x0hZ5StPnPJOoRE6OV59p4y59n3Sq50vRDtp7qprpHrjc0Z6IE7zvvQLidbO19vVLgVrblQhlSn1OzfYu1D2fD3G5E/9F1xys036kDwPeXl58unPfNrUsgcPHpLa2lMF03BI04ketXR/ssHEfsc/TbHJs/Joq5lcll2VJzterZH21h6ZMDtFFlycY9ehzmaSvPJ940x4HN3bLGFhIfK5H82XTJ3YIBmYQwomJMqOV2rstwiToklJ+tsm6eroNVLBb3a+WmvfF67JscktuyjOJuuYuAjteyek8liryteTs9dIyQbPvv2O2+XvPvFxmTptqhzSOuO6YCd1ANlAcNdu1T6upLm7pUn7/GL7u3H/diMbkOra7a9KT2uLfU+dNl+qNjwr7TUV/rsMjaHIBuQ5Z+mlRgaYSGu3veo/40PazCUy6d3/KLE6CXXUHJeM+avMJky/CY2MkoKLb5BxN31U+2CrmQAzF6y2crUrIUnUyazoijskd8XVtv5icuZ76VN/7ptcqUP8ZL7y1f+w8bBjxw47HgzGzUiWaz863shrem6MTNd+hX/B9perjWwsuTxXVl5fKLXH241ErLqhUBJTImWfkhF8O0pmJiuJSDCiC+ISI6WluUtqlUAwt179gXEyaV6aXt+mfTvWTAYIv/KDLSZw6WdzVJh2ax+CLFx82xjZ+kK1EdrYhAi58RMTjAxBMiA905dm2L3rqzpMC/POz01WwerrtylZUXZ+83NVVpZkJSdXvn+cEZV2HROs8ounJEnF4RYjQ4EYjGwUFhbIBz/0QVm7do35c1RXB2cyZhyPn5Vi9Xb8cKvJUEiG1605T3kgFElK7DvbeiVByRDlgnxBVFbfUmh1XF/dKTOXZ8iSK3Jl/ZPHbbyFR4TK9CXpsubWIsnTeivUsUz7QUIw1Yydlmz1mTvWN16jY8J1MREl+zfXWzmGQrgSibSZi2xhGK9zHQuySJ2rEerICYBApU9iukydtsDkQpIK8MZ9W+33E+/8JxPYLeWHzLRYeNltNi5ZDMQXjJeCtTdJ7sp3SKSOHYg28zVmb0gHGHvDR6Tg0pul6eBO0z4kj59pCwUWhsmTZuv93mnP7NSFbJ6WAyJ/XOd7fTlbbOfr3Dz+tk+Y+SMkTImLlg2ygj9Vqi6E48dMMlnIIiVSF+TIq/qdG+3ZjOH0ORdIpo7TqFSd/3dvPmUxnqPEapK+H2VFhhVf+37pqFcZp3KQeQYXg9xV71BCUiCx2fmSu/xKaT661zSqbwYEp9lQYH9ur63USsiQOGWHrNSbj+4zslG1/hlJ1dV6TEae7L/7u1Lx4iMqcJ9UgX69Mb+2iqPG9ugcu376ZSl7+i9GApImoo3osfsMh8ikFGOxddtfM8Ybrx2lq7lRO8JBY6NZi9foffbI3t98S6pee0obu9sIRdnT95kmhhUgK7OdP/p3U1PRmHG5xWb66L9aGwjDkY3GfduktfywrRLLn3/glHuiNmNFe/j+X8jRh38rNZtfkPJn7zfWCyATdODXv/oRPfeSdGidpasga6ssk866Sq37pdZZD/zh+1Lx/IPK5ONsgFUG+L9QvuzsLOns7JIXXnhhRNoNMBjZYLX3yqMVsu2lGjmyu9GEAZMZDmiHdzXqajlM8kt08OlEXqGTW75ONLOWZ8qrek1NeZssv6ZAcsbEyzc+tkH2vF4nh3Y0KDnJtpVkTXm7jNPJCSJzYHuDkQu0K6zOtujEz3fMO8d0QofkPP6bw/LyI+VSeqD5FKIBRko2aMdXXn5FHnjgASkoKJQ773yP3HjjDSbQa2pqtB6H17gFkg0EcEh4mAl4ZvY6JRiQi7zV19vkWHTlHdoHl8qxx+72/T5IW+xQZIM+1rBnk0Rn5Gh7hNt9PTBx4VPSeHCH7P/9t6Vm0wtSse5BswN758fd+BE58sCv5NB9P5OGvVt0RTTOiG/jvu0Sk55tkx4motIn77E+XXj5bTrG9ut4PknQk5OTJDUtVbZs3SqHDh3yHx0asUpEZ6kQow3v+e5eM+Mh+FLSo43EQjaO7G6Slx8uMyF1YFu9Cvo2maXCe7f2oRpdJR/Y1mB9EMLz7L3H7B7Vpbp69i/idr5WK+v1GL87qJ/omDDr37u0PyUpwZk8P1X7UoU8/Yej8toTFUYo0lUA796gJFeF5OvPVsqW56vt2cf2NJmPgz7KykUfn6wr9/t+uE/HRbWWubaPaISFh8jEOalGwn//37tko97n0I5GIzetSjwqj5y6sBqMbEAOCrTdW1pbZePG14M2t6BdQfhffHORLLo0x/ydTGujCwPu2VTXKXs21VndQSh+/bUdslfrGKIBOM/Y2/ZitRzUsbrx6Uq54Kp8G8sQfBYPBRMTjTw986ej8vAvDxkRObSz0cbrsX3Nsl/re+YFGfL0n4/KCw+Wye6NtcMSDcB8yIK2teyw5Cy7XLb+7z/YgswjGiAqOUMyF15kMmX3L/7L5tGKdQ8b0QDVSuSPq/xhQdqwe6MSgCgjDFXrn9bFXJbJsapXn5KDf/6h/TZz3gppqyo3Hwo6z7ibPmJz9LEn/ix1ulCufv15nwZaAQmvfO1JqXl9ndTruGNMFSoBr1eZhFYxRsfhuBs/qjLof+XIg7/SufxFfcZzNp+jIWk8sFNJzwFdHCyX/b/9llS88KgtKD2wQG08sF0XlLFGhljEe2QDwjX+nZ+S8ucelEN/+YktWDgG6UImGFHRd2s6vEf2aL1Ub3xeEsdN0+u7TOMaqH15oxC00ZLGiNLGSiiaIOUvPCLRmblKANLtJXq7lO2n55hTJGwQBgm7woxBA9goVdiKTysc0Dm69YOaeTiEhIQqOcjSCTBXy3FMupUVMnJQp6Ha8tB4YJeVBWBiiUxO10ZLtu+o0tBi9HZr4+m13AcmiuputBGpxAYm3K5k5yRODj6YfP3uTf5vYkwYjU1USrr/iCiROSLdfl+QDiUgkSoUAlFXVyc//cnP5Fvf/JY0NPgGx7kAkxKT19KrcuXaj4yX6/TDyi06zlfvTPxoLPLGxRtpGDcjySYlM5XoK2brJM3k5gFzSbWSDLQVbwa0NLfIT378E3n3u94j3/ifb8j7P/A++fFPfmQC/kyBTdwDQnzHD74oW7/1D0aCs5ZeoiubsfzI/4vRgREQHYtoWCDlJ0G/C9FxkSqhUTG6gvNpx1ghtVYcM5V1RLzPLNLVXC/tNcdNi4k6F6fsqIQUO+cBQfjPX/gXefaZZ/1HhkeU9h3U86y+PWdQVP2o8T1ASEqUAKy9vViu+/gEFZy5JuiitI8Fg6TUSJmxNF0uf89YufqDJTJpfpqER+p7R/nqvb21W6q177L7BSBYMQkCVumZSjwWrMk2Dckld4wx/wbMgaChplOFd7dcdFOhaWjQEqDtALa7S+/T2tQlkX6CgxM2QDPDDpFggE/Hz372c/nOt78jFRXBr0ypwwd+ekC+97lNsuOVWiPpH/+f2Up2fAuE4YDmIqsgVhZflivXfHi83KB1H6XvgTkkEGh80DK9EUBz3nRkbx/BCARa7IwFq0xjN+H2z5h2PSz2pE8h2ngzuWh/Zj5FlkTEJRhpBS1H9kn+qutUcC8x3yrItye/kBfxhePNIXvCHZ+Vsdd/2Ew4aGTQGMbpOUhFPZr+c4zotGxbZDbu3WzjkWFcv/t1IxnIOQApghBxHuLCYgTi8mbxfQl6xmMi4oWp0AZ9YVQzSRNm2AvCnmiIpJLptpoqvua9tnsFIuJjhSdsijN25bcX09isLkPCT3U6HQghERHmE8HW0qwla01jgbMp9rdoXYF5MKKBhLO/260DMaH6DvSc4tl8oqdLnx1uGppzB332AOM5TBloyIkQff7A7JIO0aPl9WCdSe8V6JDrI0mBtrfTH4R2AxvvuQQk4l2fnyLp2TGy6flKeenhcqnXlRKqbcDkxsoPdTh2dFZ9aEfM812BcOjyT+iA5jE/jsiAetdbeW9jgvr0VxsV4K+BRmTsuLGycOFCufrqq6WmulZeWPeiaTdGCnyHUIsilD306ITWUnpAVynrZfevviEdNT5NFW0+mmBFh2q3v++QQevXHNS0P/V2+8i5jUdvTPjHpK2qAvscjedvdw/UIX4bYSOY0BDmCL6e7pP37unSOSJg9XvJ7WPkyveNNULw8kPlpkGg3Fw7HLj3LZ+dbDtODuuKG80cGrUQ/vOXv//z2PKNyh+kZEbJbf8wWQp1BW8aEl25Y0LkWi6vq2yXe3+wz7QAa24dI+//9+lymZIanssHEyJmhLXvLJK1txXJRTcUGFHi9yMBO+D4eGUeCcoOtsi9398r3/rERnsHfCsgQsMB8nTV+0skIz9Gtr9cIy8+WCatzdovAuqdeRtNJpqMNwIsagcyvWNOn/qxL0v24rXSoIs3NOjIKjqOV4e9Oh5OHRP06ZNicPcvvi41W140Z+9pH/2yEpa/71sQp825QEpu/jsjIFWvPillz95nZfFkSERMvM3xg83zp2KINrVueep53g1C09OJjOPICXNHYCEeFu1buNmioL8Gw957iGedRwRNNtoqj5qtCUdFzAVtVaWSOHZynwMO/2Kb3n3X1039xWfbt/+fHH/xMZvIeN1QJSRoRwC7U7Abs4IfDqiLkpXYNB7cKe363PbKY6aOwlkI040H7FahYb6JEiKC6cFiXihCI/TZumpjIqXRWNkZ+/ObMs4Fevyqd9huIDoaauy5ON35Gl//MY2M72/U0rFZBVYuzofHJkhoeGRQdeMhJiZG5syZI4sWL5K4uJFra3r8zpasbAKBbRw790O/OCh7X683rQWTaeDCvPxwq64Qe2Xh2hwb1JANb8VYXdpqDmImJPR/rJJi4yOk0ZxET0i3Chx2IODBTtWg4sZ23x8QFH5zrkA5x08YLzfffJN8+EMfkrWXrJEnnnhSPv7xj8v//d//2Q6QoEATaruxekgonqSrjFRpPOTT3hl4bV6MSUH7O45fxN6wlz0HYOKH7IfqZBR4z466GptUMRcyfgx63vodwqIeh7oeifaPH5zTGBNoQXoG2JI3EHgvfIUuumiVFBcX+94zCCCo0Gig3cDJmMtwEkYzBvg+eWGaPHTXQXn1sXI5tq9JerXM3D/wET09Oq9ol+i/Yo9PirBdKn9RQrB5XZUcP9Kiv9Pf6G+966NidbWuv8PswTHMiJXaV/kb/yD+RVgjqDErhvp/x//xL8e4//f+YZM88LP9Rmyi45RYK2mpPNYmR/c0y+//Z7f8/N+32+eXX9mhZam2dw8GsboanztvrpLgBeb4HSyoT+rRygp0WNdVIRD1gHdMAdmi3iBBgcCMWaX18Ny9x/Tda6RWiRUkpX8dDwVMJnwoy5kA0kvBkRcjgc9XoVC2f+9fzMyAeZ551CojcMIaAsiqg3/5qbz+nx+V3b/8L5UxSZI0frqdw8G/Scf2scf+YP5RPW2+OSIkjFgmJ6RF53H88yiDB+Z0CIEHHxlgIaljcqAq1eezKGaO4F4e0Mggr3Dk9uSEybj2Fp8D61sAQfcGzA447WA/w97cVnbYVFaQDM8hzvYIL71E0mYs9nmwL7jIxwq1YhBlTMjZnJ+5RM9foAM9SpoO+2zIQ4F7RKVly7HH/yhHHv6dfY498SdTg9HB8NkAOJziG4FtnF0f2K1wwAQ0XnzReMmcv9L8IRLHTjHTxEgE+nBArddRUyGZC1ebow+ey4AYJKjXcCJlVUv9ZMy7UAeTrzNVaTmx7+PAx3n8XyBBLaXB2cBBUlKSBbdavfoiSU8/aX4JFnirMxFOmJNqXvyZBbE2EWHvjU+JlElzUy0Wx5yVWaatiA1Qq2JPrylvlbFTE6W+ut1Wfh6wwTN542g2aV6qTF2khE8HGY51Oj6VdHSatz7Hpy5KtxVhuE7sgcC2X1fVYapg1MIFExJOI0UjBYJryuQpOrZ75bvf/a588V//zfw9mDRGgujUbPNqp68TcwMbbd2Ok3bYyOQMbc9F1u/w3WDyajy4y1Yl5wKMxdaKwzbB4WOBDxUrr/aacnOaS5ky11Z6qVMXmI8JDnagq6VJGvZtsxgg2HqzFl4s0Zl5Nh45Fwyow3El4+SWW2+R6dOn2fdggDNi2YFmM6Wx44N2xwcAAgBoApwxS3SVPX52ikzVNscPAk0IPggeMGdgFqFfTlucZup/SC0Cv1H7M34Z+E7Qt3JViNKfMW0Y9Bm+c+nm3Mkuiq0vVtspdlHxLjyXfk+/TcmINiHOLhm0eJO0L3KcT2p2jGlgupVwo8VDmwI5wWeCMuCQOeOCDL1H8FrHpOQkc/Zee8klkpnp28UVDNg5NvOCdNspw7vNWJZuflH4W/X4d5RA8o1ERIfabhnewXakKNidQoA1FhmUfclluVafHAsWaIlqdE4Yr+03XduFnSkjISvsoECuELuGeTR54iz/maHR3dJszpOMNTYicC1O9fgzBWsuZ4xwHZp0ZERnc70Kep+WE7MiPiOcY57GTxDyEBGfYp22VRfAaDExsyD/2PXIb22R6QdkHjN42uyl5lzKXB8IiAbO3ISVYDwjK7meBSsm2cz5F5mMM/mq5+uU9Hjm9Tc7gnYQZXLEllu94XlpPX7Upz7S/+p2bjDWZdvudOJOKCyxKJrYtvAkxiENU0qYEoITuhKBteKww1admi0vSf2ujcYmB0eIOfbQqEzkZk5QoP6FMbJ9FXtzxrwVNsFi6okvmqDlqVNycrc1BKs2vOu5V2R8sjmGtlUeM6chC7AUBPocRPVvvO4HdCDUDtfV0mDvj72POsML2rZXtTZJTFa+eUDbrhItU6N2HjoXdjYGAztsYKsndKWKfZ8tlJSZHSg4i/JBVQbjh7zQ+Tyw7bCxsUGOHS01Z8LAKJPBAEdQtAdZSgzYEtfa0GUTEt73SWlRplLGgS5MWTyrRZzdSvf5OjmadggJ2+FQvWJW8WQ214foRMP1BFOCJGx5ocqc5gCqWOzzucVxtt3w8O4mc1Y7sksnR78TKPfnd0yIGbls0xML/uRtx0MwYA5ZuWJkDqLU04YNG6W+vsG+jxQRsYlm4qN/QrzZ5XHkwV/7Vi9aJsxn4Tpm2DXii/IZZ05fOI4NpAYeCD4H0QLZs3vPgDuMGDvm36PPj9exh/2YbYIca68+bvZo+lys9jm0Z60VR80EShlxXGO1xliNSEw1clK75WUrGytC6qTpsPYlfKQUkQkp0qjvyGQIOM84wKdgx46d5jcUDBB2ODJCFPLHJ9iuD/w3Sg+0yFHtO17wNhyPIar4X6AtKz/UKlVl/uBUCt89wkxzRgRctCU4Mna295rAw9GYc5jscGDkGZhD6DcIUMQf26yJ13FkV5O89niFjQHuExUT7u/zMVaew3oeAgSpQHOCwyfbZ/HJYJstpho0gL5y+TQ3BRMT7DzjKSE5wvxSPFMKfRYT1KqLVg3oINrZ0Snt7R1y4MAB2b9P55B+DumDIS4hwsrFrhBMmqlZ0bbt9JVHy/v8YwBlhLhlFsaaD1Zrc4/VHTvMuEfeOOouzt597+Y6aart1PpvoVtbfeJwekTbajCwzRgSxqKFMuzdNPxuFA/MiSwSmSdjMgvM5OfNdRAHQD9G7gTCE7qY95lH0RDXbn3ZVv5oOTzzNL57njYAmcYcjW8SkxYOl8zDyIiopHTzi/A5gPv8INBcJuh4YQsq83azyjc2HiBPkG38bWNKZQCbIhhHrXrOttcqGHfIBcYiZeQZtpszACw0eU/GJfIMzXcn41nHNfMIoRCIxs3OsdKn7rH3RmPJYr79eKkdB7w/11Amm5PeYIRkZGWPfJYdAlQSDivEgICA9LcZUymeCcPb/3y2oDNO/7v/tEAokB/UT0y0dCyAXwfb9lrKDltMBAQETkYjaYDo6Gi57bbbZOKkCfLSSy/LuufX2SQxECBBmIjo3IFblzgeoSyVOoLknPJ8hFN0jAqwBD1Hvb0xnYOVIWYNJga2BVKFTDBMSMhjyMMpYPJRAoEaGY3Dc3851jfpBgLBggYDx9H+O0kgIJhmcNob0g6sz/Js9jZx+W8zZ+4cmTNntqxZs0Y+9clPSWmpb0/+2wEX6Or2sssuUxJ5VJ588ikL7jVgPAuEFxNOaJhN1r6J1QfGR2RSmnTpeGQbeyAYjziZoSHxtv+dL6Bdpt0pamCMCg8QiaT0SHNGROgNCu0SYdov6J+BAg0SG6OCE+3cYGHJMd90dynBaCKWhf+ggn7mmVl4fmBMF8B5dtBwnvtDXvqDfh2vJIP7QpACfVTy8vNk8eLFcsklay3q7W9+81v/mbMH9YomAhLU0uiLrhronxIIxjZaBwi9V3d8Z8s745SdQcGShIGAOwPzXuC7jwQ+c7NPSAcLCAR9ml0mI55HtULYCcJi0Las9tMaoEVnLLHY7m5uNDnXH5g5eD6mEmLXBMqAQBhB0PofzMeDZ/Ebrg8czywsfPL1rWE+8RC0ZiNYUAmQCNv6GTh6Pej5nvYWreCBG+BMgIkENTbbfjBZnOp9D8OLNxMLu2PYpWIrtQE6yXDoVEba3tZu9vyyslL9dzB/jxPWyQM7iA8nTpKsAZ7PhG/5Lc6gbOcKNBn+G/2VTayEWPX0B6pr9uGzmkJbsX9r/WlkAnBP36TnPxAAJjNMOP0n9IFA+fp3q6ysTHNSROO0ffsgWqe3KHq6e7Sftdg7HT9+3LQH/aOIevA5eerE1a+CrF8pkYCEnAbGo66kvF1c5xVaTMjlYESAPoPJZaD+1B8D9QsIAKv5oYQlJGYggsu96JP0+f73BRyDIFG+wfotz+V623barwwJ8QmSk5Mt+/bvl61btkh1dXAa1qBgZe+1shkJGrh4fWBMBr6jvZuWmfcf6N1HAq4fjOgEBSvcwP1jMKA5MBkwwus8MB58Gx9On0cYY8zfaJb1m+9gf+hLW9BI/d3pMiAAWr6htPqDjWdkyLn0NTxfOOeajTcCsD9s0+y9NhVxv07mJUiz4C7krnA4ZyDi55gpSaa2xg8DzYWDg4ODg0Mg3hZkw8HBwcHBweHNi7Nz6XdwcHBwcHBwGAaObDi84cAzn90+BDAaSXAohzc3aFcvMJVrVweHv20E5SCKdy2e7qc7s4T4PGrZITCMJxEBtRKLp9h2oTOH/3lMXGfrufQGwOoxItIX0AX465NtTGTxIyqqBfPyZ6sdLSQUTjBv6WCfQyRTr969jxBYZgjnppGAgFAf//jH5M733ilZmZmyZ8/eU3K7sMOC4G3EWzmXcVHOF/A4Jy4J0VjZSkkoa3ZAnC8g9AcDQdYyC+K0jkU6h9rxcQagXf/za1+VG268UdLSU2XD+pPxR84V2DlBCHB2fuCIGMy0wNZVttySsychJcp2XHhB7QCxNIivQRhydnXgZBqMk2p/2O6z+ETfVkntvzj2nU9HXF+7D9z2zDNsicaB8a3obOjw1kNQZIOUvVM++EUpe/av5kHrgWigxde8XzvtJNuPPBRSpy+wJDelT93rPzJy8Lzx7/y0ZUVtC9hP/FYA6YQnvvtzMvGOz1rmwcLL77C948Q6IJtgxvwVlhSIyal/9s5zjbHXfdDyygTzHCKfzv+3n8u46z9sGQ/5FFx2m6RomSteeNj/q7NDRkaGzJo1S379m9/I/X+9X9raTp38iFpbeMmt1odInvRWA1kyr//4BAvulJIeZcm8AmMejCYmz0uVeauzLb7EQNtHiUOx9vYxckJPEWjrXIIcPQ899LAlFIuMirQt4+cKyFGCdd36mUlyyR3FcuG1+TJlUbpsI4HfANtQA0H8h8kLUi1hIMGr9m6qs51SHshzcsHV+ZY6nXgaJAlsDcjbEizIADz5g/8qqTOW2LhuKT983shy0oSZkr38cnveQDlE2N45+b2ft11KwSTCdHA4WwRlRiGID1HMwvrCp/rYMkGL2OkR2JlZhfr2B/dTm+rsYDHk+Tfcr50YhHUPBgJyEcWUVTYBjALRd2/v+SzVAuCFjeW8Pb/f+aFA8J2hVofDAZI09roP2X7q9V+8U57/yCWy9f/+wVY6oOq1p2XPL/5b6nZvsnIOCKs3fS/98Hcg7L0C38fqof/7++uFd/F/ggFPor73/u5b8twHV9nn+Q9eJJu+/nf+H5x+L7v/COoXsG4kENlAwchYDe7/0/dk10/+w3/kdNj7af+krAPWj/XJfue8erJ/ffWjf/hPnoozaX8uIQ4DganYFvzTf90qv/vGbqk57ouwynkvbogH++4/hMbQPv77DBaFkeOs7L3Q28DurccJWsXqnL/5eOcBf5MWnFDa658cmLh79+bfQNj9/WXjXOCzPRD0i5ggg23VNeg1Z1K3k+enycobCi0Q15duf0n++aYXZf3jx32xYYC/XL56oT/6DgNSvT9GBuGHy3ykr9/j2TJ697d2yzN/PjpYdxga+jBim0Doibi86Wsflz2//G+LLuk7PdCYCZgv9Xpfv6TfenPl6fD1We3z+pu+F7RrwyyibHRKpl1rn8AX0b9JDLnxqx+Wipce9R88Fd54GOjZVlaew30Dn+3gMASC0myw15e8/9Wvr1MB2WLRMdFXoopPmTTH0uISzpzOTShukqUR+YyAKD2tBHg6YWGSU6cttPwmOUsvs62okBSLLx+E7pOOnzxplkVlI1YGWWDJlEoMAUw8hAInP4SFZ156qakHCXpC2YncSFQ5zBQw/ozZF9iAYcBx/VAgz0hJSYkkJibY9x6935CT5wCgTpLGTbXEQESZBO1V5Rb0zIPv/WZruUJPSRUOIHREtcu54HJJmTzHzFnUHe+GACV2PxliO2or7fdxBeMsjw1BZ4itAFEkDG+mtgttwb1QnfZ/zkCgnvJWXWvRJb305B6M9Cn5I2Ir24rZ305kWELwYiqyJHxB7HVPS0uz6Kx79uyRsrJTA3JBIHKWXaZlniQRCSnaz476z/hAGXypo5dKjvZRwr4TMp6IrXrW2j55wiy7B21gMSe0X1J3RMRMmb7A3pGwwnkrrjZiYxEyA/okfaCgoMB8D4LNmYIgJnoi4dXH6eoZ1T2Cj7DXBIli9U3+DkwrVaU+TQ6kgDDYLQ3ER+ixCJZoHpLSo2XBmhzJ0r/ZWuzl12COJ3Im4aDnX5xlxIIIlQhLorlOmJUiJbOSLUw2ZCCrIM7MAQSYsvLpb6YtSjcyhBmhueHkWODeRI4l3PR8fTb3wPzjaWQSkn0h7COiw2TqwjSZPC/N4lWQmK9/XItFi7Q/aL/ur9mAZBCKOysry8xmwUbJxPRDYrGu9l6L3GnZYvWR5FDxzB0pWdEyd0WWaXWKJiWY2apdy95HRhS8d/aYONm9sW5ATRORL0lMRgr5YDUb9CXmx0wdb0kTZ/vyMWldR6VmmBaBcZdUMtVy0th41X5GHKDMeatMU8vYJrO2RXXV+ZV+G69jubO+9mRANq038kClz7lQ5+UrbS4lBDZjkHk3ddoC7c9zdL7Lt3klVuc9rjGtij6PyJzps5eaeYdYEqcsFpWIYK5Mn3uBzuOX+ufxpr7gVpQ1a9HFNr+ScoJxR8yJTu5xjsyqDm9PBMXbLZKakozo9CxJHDNZZv3jdyTvoutMEPBBaCLcMJNkLrrIOjWCc+J7/tESQfkQYmGbi99xp/b3Xpvcx974EQvhHQwQYphrIDaNB3dYGGbCvYIQLUPuymtkyvv/xYQNkRAnvOtzkrvqHXY+XH+be+HVUnLrJ0zQkkFv7A0fshDntpodAjguTp06VT7195+Sj3zkw7JkyRIZUzzGkiMxgQ4LHbyWfl/rD5PJSMHkla3kjJTJRCVlJTPpzn+y3C+A+s+Yu8Lyc3hAuJLzgtDVrLBKbvmEETDC++aueIe1zUhB1Ffqm4mUNqNOLeCMTjBMrFmL1/omRyVEPJsJyM6fJWzyS86wVNHZSy7xHz0Jkp9hnsqYv9LC+qKuzl5+pZ2jbrK1PCW3fcJWYPS/cTd/zNqdeo3USbVgzc1aPx83Iqqs1SLRMhkHYsaMGfLv//Elufzyyy14WLAgrHNcYqRFT8UPIDZBJ/6EcB5jICcFqbw9EJFy+TX5kpwZZQJqwpwUuer942TuykztayLz12bL0ivz+tKUp2XHyHv/dZoJe0JxExIbckMOEO95ROGE5BCCmoiYfdl2lUxwHwjH3IuypHCSL628B6K9Xv93483UQBhrcpR8+GuzJCHFN16IKHvpu4pl1Q2FJpQR2hfdXGgCPFgQlfeqq66SL33p32T6dF+yq2AACeKZmIaI3jkQ5us7EdHWC7F9+XuK7T35e1Sh90cDHJGQZPMM+Y/4m9DRpllTpJGLRudJ0wooGFtjrrnTctrgH5Uyea72yb/T/r7WsmlnL7tccpZfYdGFAWNw9j99T++zRFrKDhoBYHwD5jPmxrCoWL1XlP6daPcNiyTMv+/lKVd0eq7l6iH0dSAw95boGGEME3GWhcO0j33F7gEiE5P1/MdlzJXv1jGTa3MC0ZkhLg4OQyEosgHwkSAZWkLxRMvZQZIxS3urA4YVLOSB9L0H/vQjy4q35xf/ZZN90vhpOnGGmqayt6NdDvzx+3L4r3fJoXt/iprAInsGAwZUXN5YJRs7VWhX6bO6JM5PNjzUbntFDt77Ezn0l5/JkQd+qYLvyr4BzkBr2LNF9v7mW7Lv7u9KzaYXdKU7zUKrDwXszn/84x/l85//gmzeskVWrlop73vve1XwXGZCaLiU7mE62VgK+c7OASPSDQcGOYmIqtY/I4fu+7mW/Tty7Mk/G9mzmW0YJI6boquTTNn/x+/J0Ud+J9u/+wVd3aM6Htmsm7FgtZG1kls/KeNu+LARGtB8bL+VjQzAhZfdZsfLn3/Q4vGfCxAW+MhDvzFtVn/QtiQjaqsulz2//B85+ujdsvfX35SDf/6RnSf1MkSs9Ml7ZL+2Ocfr9D6J46Yq8fBNnmRiLX/uATny4K9k913/aXb1/mSsvLxcnnryaculEui4OhRY3bPSRhV/aGeT5fx4/r5jQspuL7dHMEDrQQh4y4D6aLk/v4yv7ZZelWdJ7375le3y7D3H5C8/3C9P/+moaSnwv3jhgVI5sLVe/26RdfeXylN/OCJH9vii6xL1kvK99HCZEZX+ILkZJOW+H+23DKC//PJ208bMvvBkUrD2tm7Zsq5KHvjZAXtPIoEmpARPxtrb22XXzp3y9NPPWH6VYEECMTKKkll4sOigj//usNz3w32yZ2OtL1/PvmbLFcI7jSZIz0Ak46OP/F7q92yW5kN7tP/+1vqYp3kMBiSJJPHk/j98z3yjmHvDdA4ERZfdrnPwHtn27X+y3+z7/bd13tP5VEHeqtKn/yK1m1+SlqP7pOzZ++XwA78ynzqP/JM0kzl6oLxQyRNn27g6eM+P5bCOiV0//pLN8SQE84D5t/LVJ3VM+eYUtB4sqBwchsIIyMZRU1fHF02UyleelHBdxcKOe1WIkmMfDQap1VF3s3JkJYpwJeulJ9j43nzsoP2N9qGrtclU/MPBVJNZBfZ8tCKsFGDtsbljlPD4shWC5mMH+gR644EdEqmCmg9ggLRVl/kG3IkTprJEU8DKPxg01DfIgw88KN/65v/K1q1b5cqrrpT33PluSUw6dUXYH9itUY3ajp0zWFaZr0x0jCX68Xw8SP5DXSAoh0O0tgtJfLoxZ1lZdDL0m3JGgoY9m6T8mfukXCey8ucf6rM/A8xZJEbC1NZ8dK9pn4YM03uOAAElTwCJlEjIdxI+AYQWiPrzykooeEwkmFZY8QH6EyZAL5Q3GR69FaSHQ4cOyU9+8hN56aWX/EfOHxprO8wsAshGiqD1fBwwwezbXE+znnOgZalTEuKZbHgGhAlNiAdCWpO+HBCSG3hEKBgwNtate0F++pOfyuHDh/1Hhwfaeq61MTUISES2YG2OmVtmXpBh5Q5TonGmac/PN9gp5mUbRZhbynG/Six+zESp3vyi/X0S56YTMF5sbtYP6G5rtbEdm3tyYdejcyxjxv7WBSRzKnOpg8NQCHrkkbkO9oqKGacn7OKWb6S53mz1TICQAFO1Kwmgc7LbAkHATMVQYILoj2Ccw0y1OGWe/hFqfh/4H0TpoDACEsioA+/v/d1n6tDv/Z+vzw7m+XjSk0qbFO5XX32V5OfnyyuvvCL33/+ANDcN7cHvi9PfoIRBV6T9hNhpsPKdWh4rX79i+wiMHvQ7byEw9U3sb3snJqW+9+Z6bnDyJr7WGBlYSVVteFaqNj4nNZtfOEVzgYkLZzE0DJg9cBw+HzCnN6sf3uj0d/I5xZ1efwZ/u7MSPW1Ldz8hRoyIhIQEiYmJ9h85N+jVcgd2P5qsv8Mo/rJ9q3f9J/As5hJr2iEw7Hn/v6c+Vb/7yxF4uU/Ae/1Kv2u5es9gS2ggYmJirG5HEoeDnCSQG/xgSPveH5itrnjfWEsmtuf1Otn4dKWUHmi2dwwc78OV3Ku7/nVz1jA/ppN3NafvfmBMnyTsFER/77/ESMdZ+0foPfV/p72bVz+BlaMVEWpjyQ/KNoyvm4NDfwT0oKGBZgPHJToZWgHMKuzT7qirMn8OjrWUHpLyZ+83FZyp4f56l6mtbWWv92Aljm8HYGWJJoTrhwNaDFTftcrm67a/Zls2a/QTGhVldkMPmHYw3YCEsZOlo6Gmz/kJDQjExEw/YeG2Q4RkcZb4bAjExsbKwgULlGRcLZMnTzI1+sMPPyI//MGP5InHnzhtm+ZAaC07bKpIdtB4MTZ8WpWTWhkGNCYDfCECJ3T8YdBosE/ftDA6GeC7wgrdl+yu13edEj3ORbDaT8nwEQ6Fpa9XkmMaHj1PPZAC+VyBMqXPusCeWfb0fRKdmWeOY2gPzhWYeKkDnuXVH8BxjdTQpIP2NFhMn94qi3rBT8V8MPTdTROSmiVdulIk62+wKCoqkptvuVnmzZtvTqLnCjgsJqRFaltpPYaHmLNnqP4bLA7vapDiKYl9PhwQFXZeBEoQctZEqPANDRt4qGNOISNndBw7FvwHFbUVbSqsdXzF+cyQPIN06RWHz932WPxfFiyYLzfdfKMUFhb6jw4PHFkrDrdaEkA+lJsP/jD8G61lzsyLlZceKpcD2xrs9wlKTKjngKFlcUUiY3w+LQOBuuFD3ZxLoC3A2dk3RkPMwXMkaNi3TVKmL+zz+YBUe/OeBxJdch6NyECAOLIQQkNtleZHp87H4THxtnAE/IszavNRXTQ6OJwFRpD19YQUXfEuW9nWbnnFnJDS51xgvg9NB3cZCcFZj90gEAoci9iF0VFdYSt7NB2YVsJV2CWMmaznFpqAPf7yE75dC4NBB0JC0XjJWrxGDiiBqd+5QYX3IVMx2u4CJTKtpQclY95KE3gxGTmSzI6T+auk8qXHpGHPZhMyqVPm23YwBg67WggwVrd9vZlbhnJkxEE0MTFJ6uvq5OmnnpFXX33VUssPtEVzMCAUcdZM4blaZnww0mYsMt8TUhD7oKsHFaRkr6WcaIggSqSbZ8CnTJ1vQjNl4myt92VmA246uNOuZHLAmQyPdxx4IV0QEcwbkBL8KXguQjl99jLb0dNacURqtw4f94AJcdDdKHrOdvfMu1D7xMtSqW1Jm6bPXW5OxRAByNBwGGo3ig+6otbVH57v+O2wAwaSCBHr7e6wHVGJJdPsvVKnLzIP+ubDWlZdnUHoiBMTq6TU6tDii7xidUesAWzRNZtfsnsBPO07G2u0n2207wCycfHFq6VW+8DuXbt1URn8qpLtl2OnJxsROLij4ZQYEAgyMubiRErW3JwxcRIbHyG7N9TZrpKx05LMofPgdr2uo9ecL/E72LKu2r4jRKcvyZAsPc7OFmJGkNIcx0ltBgO7Rdjhwk6VMZMTbbdGfdVJvxOah2R6Uxf6dqWgLWio7bTnc788fR7HcTxNy4qWx393xHZu4KSJ0+i+TfXSUNOp10Xazo2KQy32/EAMthsFbcb8+fMtxsrOnTstq20w4B3amruU/MTZMynjhNmpVofEMGHnCTt00nKizXwyQcuZlhNjGqKD2xv7zFIQMeJoENyLuqZZA/1XMLnkj0uQsVOTrX5pL3xkggHCnzHHfFe7/VWt55PzBQQga+HF1k8TS6bbnMV4P/7io7ZbBSd2i7ez9RWbm1iksLMEvwuymdJXs5dcKrFZ+bbgS9Y5F7MqvnQemEvwv2DRlTh2io7V0FPGI/wCk0n63Atttwtp01kwdrU02W4Zggwy32TMudDG0LFH79Yx12zlwnm08hXfvI1zK/Mw9w58voNDfwRNNnDubK8qk5otTMy1to2rtfywsuytZlOk46GlYOsg2gOYc3tlqTSXHtBVaZtdj0kF3wNW321V5baVtuXYAR0AgTq704FQg1Dg2ITaG8DKcbhC48KWLxwFG/dtMeHNVli0H6j92RUB2WDw4BBl6n+dVSAtdTs2GBEYCsQJwHkNu31Ly9BakMFAWdEwsEuHsqHhaa8sM0cy004ArQPOU7eUuaulwbbHMsCpVyYYPNu5F2UnuJVFI9TJg+t69HdWT9om9Xu3SsP+bfZMhDLmDXxZMEdRXzh0UpfBaJUQ2GyrQzj3T91vKmkmMe0XkLqejlbbcUN5mLjYejtc2wKPbOzbt8+cMek7p0C/d7c2WnubWUr7W3t1mbV7l9YXqzHqIjw6zsqAj4aX/Zff9ejvKSd1xARuZW1XgYyWTstO37K6VFD2piO7rR080O779x+QPbv3mMPwSMCbtDV1WTyLhupOE3ge2LLJMbQHNeXtcnhXoxxSYoGw7urokbaWHjl+REmjkgOuI2145bFWcxrlO2SjpqJdhWCvRCmp6GjX3x/2/d4DWzbZaksZIAn8PtBBFa0G5xHAnUpg+LtOr+c3CFacPqNiwqVe/3792SpzKvVdd0Jq9V7Hj1DWXh+Jqe6w8rZruQH9A5IB2cAs059sQNjr6utk185d5rNBGv1gwXvVVuoc0Nqt7x5uRICdJ1Z3SiKqtY5QHOCnUXm0TXZtqDWfE94fkgHwOaHM1BvHqsvb7P098F61+t4EQ8N3hV05kLBgQB9mjmwpP+RzDA3o0ywiGM8sQNqrSpVEbLbxSHCt3q4u69doQ9trK+w6CAjjlrkL3yLmMeaGEz1dttBgpxv+arZl2w/6OgsVxmB3C+PFv9XeXw7ID+Vi/uP+nLM5qknHLuNM5wvMoW06PqpefcocwUGvkh+ezXd+g7M58wPl5X0dHAbDOc/6CoNmAGBDR5D2t4dzHv8FOqo3wZ8tUK+zZbH8ufuVDL1sk5zn4ASi07Ntexbp5cuf/asJZQbYabb68wDfdrhoE4AM3IFggXRCQn0al4BJCtOEmRSUuAUeB5iG2Cbne6/TtS68M/UEeel/7RsN4pi89713SnRMtDkMPvrIo9LcPLC6nv7Du5ivhX+VBjiGCYp+5TnSejA1s9a7vrgR3zcT4Gsx8eHmgxAYMnskQHsSExuu1yu58jtqDgS0KwjBgZrfeKPeByC4vd/YvZUM4Scx0vLl5ubKu959h0ycOFE2bdpkztXnGpQbswmsrl1Jgfky+WFbjpWEQbJ4p8HAPTA/QeAG+h1ECf8YzgWSxbOCPhRTMsL+TOchm2v1HgP1+UDwOyPwgzQ8Ywf4FnK+3zCfYObuVvJuu9ccHM4Sb4sU86j5pn38q2ZasBV/P+clIxuX325kg61iDm8uEG8hKztL4mLjTHOAOh2NksNbGzh/YoJCu1FfXz+IiczBweFvAW8LsgE7Z4sn6nVj+P0YPCydgFM4TaGidHBwcHBwcDh/eHuQDQcHBwcHB4c3LQbe8+Xg4ODg4ODgcI7gyIaDg4ODg4PDqOLMzCi4b3vw+0ewgyI0jBTdPq9m22kxkPfzOYKlNw4JHeFzAsrdhzebFYkyDlQmr+yDlbf/uwX/XuzeIbNpcnKysB0RZ77TgpXpb9gKR6Cstwt8QbB8UWTZPcVWx9GEt6uB7aajODSCBo6bhNvHMZdtpzjnjmT7abDwpgt75TfBe79dQNI12100yK42B4c3E0YQ1MsHIjASPIkgMqRPBjhlxmUXScrUeRYQhoAyXY2+9O6jBQvuVFDiS6M+zBZatnaRQyM+T8udmtH3IUCNbRV9EwxWtqfFpOfYx7ct2DfpE8yKFNEE8CFoF4HLArewetfF5RSe8m44xfJuwUg1IjmuvWStfOazn5Zx48ZKVWXlaYmxSAhHOuumw3sH3Fr7VgRJw0pmJMuYKYkW9Io4DQG7ac85LBDWrBRpaezuyznyRgKCednll8mdd75H5s2fJ4cPH7GAdecKkLmswlhJz4mx1PoE/oLQEbvjfIDMt2SHJV7J25HkkD02QomixfFwcHiTY0RkA5Ix9roPWhRKotIRuZGAWeRAIbNorApzUp2zP5tkXybsRglEkyQKJzk7hoxAqiA+Re7Kq2XczR+36JNJE2ZZZk9SpRONdLjrzwco4/jbPil5F11rAaUsp4wCQkfK5xwV9EQLJDdM5vyVFrCnreKorW6IkEkW2JzlV0rWotUWwRVCQKCdYHIYEMlx/ITx0t7eIf/3v/83YFIsohxShwTFGs12PZ8gBXt2UawUTU6Smcsy5LXHKyw41Wghb2y8XHBVngWXCjY41GgCLca2bdvk2NFjMmbMGNmxY8c5IxtoM8bNTJZ3fLBE8scnKKFLsmifrU1dUnVs9PsPz4dAXvWBcbLtpRrpOU8E53wiZ9llpuElOKCDw5sdQZMNhNqkOz9vYXh3/OBfLaZF3c4NusImamSlRaAjCh5J2Fge8nd/ocTAIERvdIYvn0mgSh7SQpbOE70+swjPIZx0X7AanT0QyBAEglfFZhdYplmIznBkwUIHKzkiOM3OH33Jyn78pcekZvOLdm24rg7IH3KyPCGWXMyn+RjabIAKPiUlxSbu0yJfjgBRKemSv+YmixSI5qJu22tWD7wzpKp64/OWbrpq/dMSnzdOf3ujlD//gEVmJbpnDSHkE5Isoub27/+LHQs2WZJHNojkuWH9htPSqKPVYGVYs+VFX3j1095T60vLjAYmOjXLNEWeZgZg7oKsWB4bvTSw3cNiYvvy1ZD/hbawftMv0BEqf/KSjCRMvAdMJWgV0nNjfanJ2wn+5EvoVbq/2f4unpokrz1xOtlgdc6KnNDXkVFhFp3SC+wUERVq+Tg88wsCjnDhVI8XHIrfsLqG2BAKnJDaezfXB002CKqFBiYjL1aiYsIsimhgYCkSkaXnxkiCPheNAaG6+6DlidNnErKb9wDcIzBkOsjJybHAWwORDfp3VFSUPvPUa4YD9XXrZybL9per5U/f3iubnquUQzsarX55d8pDMK5wbRvewd4v7tT34zcpWndp2dFWn50B5Sa7bGJatF4XI3GJEX1RTH3nQiU5I8pCu0+enyZ7Ntb58sPou/S9u1YHwdQytO74t7Pt1HodDmgUybUUm1No445IvV50Y4A2lfmLPo+mt6dL+3xAHdLfuZZ5jP5PfqnA8+QwitHxxIf5q1fHpKdR5DtaTsZ405G9p4w1g74nW/1JVMn4IiJxoDYS7ShlpdzRjEl9LpF5HRxGE0GTjdjcYhl3/Qdl10+/bAIRIBT6q/DIP8G01p9sQDSyl1xiGglW6AmFE2xQEN6a2TlNj8ek51qoXIQkuVTyVl1jYcf5XVRKpuSuuFKSJ82xQRRfNF6fE6JkY3PQZIP4/zWb1p02OInvj1aAGBwIUwZ/7oVXW1jxVlIpD0EiyMB4443XS3HxGIuAWVtbO2KBiDAmvwHp+SvWPWS5XRp2b7IJzCMb1DO5SXzJ45q1Lq6SqlefPCXRXNKEGUbECAM/VJn7YziykTptviRPniMZ81ZIw54tNnl5oOzkYiGnCDlfyOsQk5WnfeSYtT/tnnPBFdbu8YXjtd0mWG4IL2tsil6TOmOxTbrk1UmePE8nQl+yP2/yxcyzcOECmTp1qtTV1Ulr6+DREvsDQTJnRZblwCicmGDJxDpUoDVUn3xHBB3mlP5kAzX8mMlJMuvCDBkzKUlyx8ZLrN6vqb7ThBv3mrE0XY7tIxrsCRNoiy/LNYHZWNNpJGHqojSZvCBNcoriJLMg1oTjztdqgyIbEJSJc1L0HulKUhIkb1yCNSthxCFICNSFl+RY2SkbidwIrU0Yc4BGYc6KTCNSmflxluMkQ4nHsb2nxpoZimwUFxfLipUr7O+RaD3mr842knPv9/edDA+u5M57b4gG70YZea+pi9OtfarL2iwUOVFLF6zNlgmzUuzdyBvDPEDae8jjWH2nWcszpXBCgt4jUZ8VI/XVnRa+HFLHOVLwcx11AtGkZbleb6PtmSgzltGuiZI/Qa/XPlBxpEVJwfDjBqJAfiJyAmHKTSiaaIuVlqP77DzEmyzVaHkTiqdYAkvGpaUi0LmHMc1cmDZjiZCviHFhofOry+16TL6MtdSpCyTO7j/ewujbWNcOANEg91OqjpdQvS/h+fug45FEjVmLL7as3Ak6HlncMWd7817xNe9VMpJsKRzQlDJeO+uqh03d4OBwNgh6N4plfO3VyaJfMq5gkVA0SQqveJcJkbod6y3qZ+6Kqy3pGIAMkMgNAQ/QWmQuvNj+Rqtig08HBonTOhqqlXxkGYkYCfBtyF56qRKJq+xDoiRWHUwC/Ft4xR2mYbGBPG2B5QAIXG0MBEJmNzY1SUZmplxxxRVyyy03y+WXXyaZ+p3VeFDQ35EojmyO5DggAmq8ErJToDOkOcVqXSSOm6K/6bakSecDHToRdTXUWd2dkqlWwcSXvexS6x+NutIi6ZTle9FJDySVzJAx73ivkTZMMKGh4VKw9mbzQQFowshrE5mcZtdDRCB+kCcPaDQWLFggl1y61tKRBwuE0uR5qTL/4mwT0LvW11puEYSN7/+GRmJalCy6NMc0G2QPbVdBNndVliXlwtkTjcWUhWkW6hqEhYVaArBUXYmjkUCLgdCD2OAPkpgWaeQnGFC8cTOS7HmE4KbspEn3nfOVfeGaHJmk70fyMXKWIHjn6O/RXrDaX7Am28q4f2uDNNR0yHz9PnFuil0bLPLz8+T666+TcWPH+o8Eh2wV8uQpGUx4o82ABGG+orwHtX6PH9bfG9kLkdlKkuauzJKq0lbZvVEXABGhsuTyXCNY9v76qT3eJjuUuJGobsKcVCN1/A7tBfljeGe0PdVl7fbdywmTlh1jJC0p1deuZfubjTRO1bYMBmhn81Zdp8K52fIM1QUk7UPjQQKzvJXX2NzRsPt1Gw/Zi9cYKQeM7Vw9jwn4+CuPSzNzasBcAfnImL9C2mrKpXrjc9KCOTRAMwHZx4Qal19iC5RAoCHFvBKj5J1EjBCRnAsuV/Kji0AlSSBzwWol+AttYdVydL+NUfztHBxGE0GTDTMpYCo4Q2fKVFudV0jpk3+2lXfFS4/q0RO20h0OEIEUXVmTBI7MiMdfelwH+HrfjDwCkE4ZgpE0frp9CGMeEh5mwv3YE3+ySWzcDR8xrcbRR3/fl3xoKGA6ufeee+UXd/1CnnrqKWlS4oH9+4533WHkIz4+3v/LwYEmhfIwOZDThURLCO/A90uftcz8Zcbd+BHLukg9BiYLG02grq3d8eqA2pKYrAJbOWGWqnz5cTP3lD51r6V2B2QGxv+E8tJ+mH6YhFnxeUBrw3VVrz1tkzfOx7azyQ80LY888qj84e4/nOa4OhQweyCMD6gwevGhMtMo4JeBcArMoTEQqPqk9EjLiIrGY8sLVfLKoxXmc4CGgLwbQ4HEaPyOxF6vPlZhZoSdr9b2ZRwF8cmRRlwKlCR4H1KmQ5KiYsONrJCF9IX7S63sG548bqTDc7CcsTxDNut9Nz59XDY/XyU79RwrfExGmDGSlNxse6latr5YrWUvN+E/AoWXYceOnfLzn/1c1q/f4D8SHNBMdHb06Agf/IEQMpK+vfbEcavjdfqeaDaYFxYpGeCdXn+myjK1btX6x3SCpoL337+l3jLOciw8MsS0JwUl8WaWIRfKjldr5MiuJtNqkIRt52s1liQOUM/0jc3rqmSv3oP62bOpzohPMGC8stDpaW+3xIc1m1/QeekRO8dcReZlFiHkaiKzNJmtMVuwsGLhRO4o0r93NTVY8rXK157S371m14MQvTf3QWNrhOTFh+13HuHobKzXOfT507TKABKP2bN6/bM2lsrJDq1kJmXSbCuzgQXSvq1S8cIjRmbaKo6YScjBYTQRNNnobm0Rso7C3M8E2OzbKsu0n/smyp42XcW0t5ltcTjwTEwdpKsHlhW1se50W+UwQLVf+sSf5egjv7dP/a5NZgsFCMcynRyydRXQUV9p2peRAIH4ysuvyMaNGyU1NVUWL14kEydOCEq7Qbr7SNLjK/lBdRqpkwUrfm+3D2ivPW6TRtOBHXL4/l/KscfuHlD4n2+gCcKUgvlrINDu5KTxwM6hzqZ6S2/tgQy3nm8Ophd8d8wW5wd5UkhB/vzz607fkjsEEGZJShbITDqEzBsQXBufGKG86IStkAFZWltVkOGXEaHCaihgUolLDDdygvkAQDzIMOohX4XjiusKZGXAhxU9q37MNWgnyErK7pX+wC8hUVfmrNgBGgFW7vg58FxMMCROQ/B6xKq2Qn87wnqoqamRRx99zLLxjgQIecxQQy0HKBcap/4mpZj4CNMCjZ2WLFe8b6xc8d6xcsHV+Vov4RKtJAxNyJyVWbLqpkJzuiUJHWYs/HGCWYAkaL2l5Uabycu7f+HEJKuzYEAm1PLnHzSz3/jbPiWT3vt5yZiz3M6RWdnna5EvRVe+S8bd/DH993aJxvcC3yQlG5iYyaSKM/jEd/+DTHjXZ8386KHp4C7TlmQtWqvnPiclt3zCdt8F825hJMHUObbPtKxzBOYZ5k9v7ua8pZtX9CqBYbFlY87BYRQRNHNoVfbLajMu36cKHBQYk22KOXVgmBDxm0gADlQIKc+J0UgIg8l/WXiAGp0Bg5CC8XtAJeipBYMFvg4tZQdNY8EHp1ZvtRASGi7ZOrhJ5MZqHVtnsCCR2BVXXiH/9qUvynvf9145cvSIfPUrX5U//OGPQaWlx/6Lvwjq16Tx02zCMMKRV+z/hUjz4T1S+eqTukp63JxE+6d7H3X4BRZ+MoHA6ZZVHJPsQMDB1pdx1Q9tc9Lsn0IU9d59zrX276n9B41TbGys5OXl2d/BglvhWxEZPXQ373tkAOjGqOMxlyDYATEy+LCy9jKAct4DRWPFDDiPs6YvjocdslV4IPcsP9giLzxQapoL77P1hWrz+SAWBwSCZ4fqPfrDu38g6aFsvAfHKSMOkTzfAySm/3sOB8jymOIxEq4r8ZGgRokN/iGQtsFAvfOO/bVMaEQgSod2NMiWdVX2QfPx6K8Pyf5tDeYQy3blikMtsuHpSnn9uSqpU1LmdSEPg2lV0IKQhn/P63V993/mz0fkgZ8F+D4MAYhx5atPyOG/3mU+VqRlL77uA+aLwTzWrecxF5umTj+VrzwpB/74fdPeGdnWeQdN3+EHfmUaQa4ruOxW/90xW1ZK2dP3ypGHfm1jHs0hZpWIuFNNiL4xc2r9+jTP2i8D5kbTwhAeIKCCTvT4Fn0+DFxPDg7nEkGTDYRd08EdUnjpbeY7AHB6ikg81QaMHZNU36gaA9G4b7skjpnk02ToJIhtEXVfG34Rip72FvOO5p4IlMSS6X3PIXBXS/khM4FAULDvsw3XO3/W0OcVrLnB/A9sx4cOcEwWwWhdcK78wj9/QZZfsEwefugR+cVdv5S/3HufqZ3ZQjqcsyjvmjpjiZQ9e59pLExr8ejdpiqNyxuG2PlBnbBqMUGsH6sXPXYu0dnUYO3Aik1v7juo6KivsomLlZmXqpq29/5mFZeK0zBEUcuGtiYqLVtay4/Y+WAA0SAF/Yc+/CGZMHF4s5sHBG7pgSaZODvVVsMA4YsAp6o8tDR0msMi2gQPEIlGXXGzZRJHQ4DDI5qSmrI2c0REa4H2AZMBIKYEuz9AW0u3mQQww6TlxNjz2IqJ/4cHNCb4DCBAvQ9+GRANtBRVZa16TZyZRgDti3mGe1G+0r1NMmF2sh2nDPyWVPW1le22vZT3zxubYNoAfEXwkQgkR8Fg+fLl8ulP/72R6ZEAAR6XEG5OmN4z0XQkJA+/goYMHNzaYGQFf5N9m+vNbFK6r0natM6jYsPsXjXlbfbh9pifYuK1bvz3QLCi1YGAoekJxPGjPr+dZm1f7/60A8eDAYK8t6tLGg/slNptr+gC5TnTZsAkIddNh/A9itAxU2c79tBSNB7YbtpTzCmcY+FTv/t182PCfBqd7tuhBxjPLCYa9myWmk0vSFvFYZ/pJcC0CNDumik4YKx31tdofWt7Zykx1/IwFlk4Ye6xAIgODm8Qgt6NAmOu00FRsOZGyVt1rWRfcJnkLL/CokoyKDywYsVLO//iGyV31TVSt+M1GziYAdKmL5L81ddL5vyL9DcrVRBhN3zY7g37ztRj2UsvkZwVV9tKPzarUI4+8ltlIj36vdEcC3FSTJ+7QuLzxppZZiRbXwfbjZI2Y7EUXHKL7P3NNy3uBoIwecIM86Oo3fKS/1cDg9UFKv4XXnhR9u7dJzU11aft5hgKSeOmS97Kd8i+3/+fmXl4byYiduPgu4Amhl0e3m6U/j4zoUrOiq54p5Tc+gm91zQlYUXm6c5qCe/4/un2B8Jwu1EMutQPj0uUosvfae2O/ZmJkvIyeebqO+Qsu1SfvVaytI2YXJkM0YhlLlwt+RddJxlzL7RdKw37tpotGa0SBDIyIcXaEW94Jk+89LGBe7uZWF3n5edJVlaWPP3UM0HvRmH1j+liyqI0WXZVvsy8IF0WXZJrAugYW179CzrMFMWTE2X5tQWy5IpcIyOHdzWa0ItVMrHyep95Y/aFmab23/RslTQpGYAQ4Fi4+NJcvXeG+QJ0tffKUSUBaC0gBMVTks2xkd0ZWUVxJiTRXgy3G4Wytej98dtYcW2+OS8u1bIlpkaZQygagdrKDll9c5HMWekrGyv+DU8dl2N7mn3mGr3H3IuyZPk1eXo+S1fz7dp/TpgvRCCG2o0SFR0ly5Ytk2eefmZEKeLbmrqNTK25bYyZK+atzNKyZEu9lhknXQgQ5AdzCz40/VG6v8XKvVTrDifcFdo2JTOTpUzrFYdb6hrn3RlLMmT+2hxrZ3xgNj1X1bcVGe0UPjtL9Pnz9dkQTtqVuof0LLsqz5xQcZxd/o580xLhqDoc0D5OuOPT5sicvewyyVp2ifkjYRqhT2Miph+Pueo92vcvsmB4eTqnsSMEE0zmojUy8T3/IBlzLpC81ddJyuS5UrHuQZ0PtxlBwM9pyoe+KBnzV5oje8LYyTZemo/s9b2UHx0NtTr277D7Q+ghFK06X7DlljmascbcgtP1kQd/bRoVULDmJiuvbbOPitF5QxdxujiwnX8ODqOEEYYr11VhbLxpLnBgbNeBgzAJjEXhY9Mx9jv+basqtVUAQABiq0ctaMG0dLXsxVxgNY5dMTanyIQuBAInKoSZndf7RqhQYpcKPhvskEDwopb0/EAGhS5jIBwMKBNgAepEgLBEaCPkvXO2G0Kv64vzMUpglUQQNDRCmCN8B/3l1RULxAjzk70rxKFf2fktO3j4fSC4roe98/1/PwDYWkokyQkTJsiPfvgjC1s9UMwQymHarIRk6dV69Pw0qD+Ls5FVYH0DHw3IkWeiYlUWkZhsbYuGjDb12t1rF/b58/70A+qebb+BZY+M1GdoXbW3q8AM4p08sIJFyMT7Y1UgaHAU9ASSB37j87OIlJYGJRINSgb02gglHmxhTc6MklYlJThsYl7xVP/RusoumJBoWpCGKkjaCenqOmEaEfwnMOGg2eDXCFquQ8BCRIYDZUcAoi0h+FhLQ7cJarQqVAH3j0kItx0nlB2zAvf27ejwaXG4HvMNTXHxLYW2W+Oe76rQ8gOtyJw5c+TyKy6XP/3xT0Y4AgHRi4mJsXof6ZZuTCjRWq/JGdFKtGLl0E4V9EoK0LiwGI+IDLO27N8WBn13fDHQyLA9Fi1Emb6fL0bKCTMJoflAs8SOFdoMDYpXN3YLf9uzWwgCybVonAD+HZi80Ebhg1O6r9m2DAcT2dXGrM2BE62vNh3ebRGT++ZBfTAOnpEJSUrKi+wQRIDdH+YfoX0egm27ytCQHNxpY6K320dAOR+lC424nDE217VwrRKL/gsNnhOhCwB2iDGGcCxnHOF/ER6faAsCczjXsdgTML/4Ygq1mQnUK6tWVd+YdHAYDbgU8w5GNi697FL50Ic+KNXV1fLjH/1Ynnvuef9Zh7cqICAIXogPJOMT35wjT//pqO1eAUlJSfLu97xb1q5dI7t27ZIf//gnsnPHTjvn4ODgcC7hyIaDw9sUmBmWXZnni2qqi1q2z/75u3v6NB8ODg4O5wuObDg4ODg4ODiMKs7tlgUHBwcHBwcHh35wZMPBwcHBwcFhVHFmZAM3bz6nwH9swHN+BJ4f6nejCX0mO1uEjx/semFbLMne+Iw28DYnPomVIygMUG98ziN4HLsfLGbC+X20PZtdBcHmFTnXYLcNHvz8e6ZgBwO7eOhngQGXHBwcHP4WMGKfDbatEpeipXS/hfv2wDawxPHTVTD4BCjbqIj3b9k7T5yw5EVkQTQgrPSpBLmp37ulL4/GqEIlFpFBLUeAP5Jpy7EDltiN7WvsbWdrbXRKhuz+xdft/GiBSKFpM5dK2VP3+LZ4DgNCFbNNLiwq1n/Eh5qtL1lCptEGOT7GTkvqi0bZ3tojO16psfDd5wNsW5w8P9UCb5Hb5HyDLbvJE2daYLpg8uX0B4HQkrXfkc2zu6NNKl9+zLYyOjg4OPytYMSaDQLRjLnq3Ra0S5e5/qNigadyL7jCIumxBz1zwSr7XZQKb8A+8PDYOEsNX3jZbUJK8VAV8oHR70YTxIAovPQWSZ4818gFkSzJrkg8EPa3d5Ar4ESvBayySJyjiOjUTMmYvayP9AyHxJKp/gy5BRIeE9v3Iez3aCMtO1pW3VBgCbCIbUAwptyx8RYZ83yCEN5kXX0jQHyD7rZW6e05M3JFDo20WUstxkJnXZX++8a8h4ODg8MbhaAjiHoovvYDpg2I09UeycqI7AmIXkkOjKOP/k6qNzxjiX7y19zoC/xVdtCCyxAlkiBZyeNnyMF7fyK1W1+2MOXDITYu1lKLE1joTEAwsawll0hC4QR97o8tX0Hjvm1WRspPCmgCiaGBIT0zOQ/6g2BTsUqkEkummaAnMZ0XZAfyYgF0mursO8mW0JBgqvGilZI1l0h9BPpBnZ5UMt3yHnhRModCwpiJRtqOPvI7veYpC29sGWKb6rVcERa6/YQSJi9aKATKSF5vb98xEBsbY8GkRhIUa9ridBk7PVke/NkB2f5KjUV7JHgUoaA7/cGYMK+kZEbLmMmJZupobzkZWApwvkjPkViLAFktTSq8u04GcsJEQmAsIkrGJUSYxsS7nsBQaFaIiEn0Tp7bH9wTzQsEiBDi5AYBPJeAUmQCJbpk4aQEOzbQPQYCZq6opFRtryTprK+yUNCB0WcxrRB2n0BKREIlhbgvJLXeXwkr7RyXVyzpM5for09I7ZYXLSkW/YSw1YB8Q4njp1kbc59gNF0ODg4ObzWMiGwQPnvMle+Wg/f8SOJ0YkVQWghdBWSD6J7E++9srJMOXcHlLL3UotoRnhpBjsYgOiNHUqctsKREwaqSc3Nz5cMf+ZBMmzZNOjs7LaTySAQm5SKEN5H+IBrAVqtE1QtYZfJ+A5ENomNmEjp45TsshwFaHIRIa8VhJUttJmTG3vgROW5p8/V5iamSc+FV+tcJaass1fMlkn/xDRYynUR2kC2yvBKqPViyAZmp37XxtDojAVrG3OUWrrhh71ZL1sS7xmTmSsvRA6a1AYSkvvO975Hi4rGyZcsWOxYMxs9MNmG//onjfZEeMaN4RAPTBqG6F6zNMcEOYUALYpEu23rMx+PqD4yTkpkpRhxyi+Mt4iVhowF/E866ZEayRMeEW4It+kpNRbsRI8J7E+57/KwUScuOsRwZgSAc9QVX5Ul6ToySiUSZtihdSvc3G6FAE7P0qnx7h+IpSRaJcpw+h0iRJOIaDvjWYB4k3Hqi9m/r1/5smYBjuSuukpRJcy08dQZh9AtLpJ6MwdrXMX/RNrQfZNOiSmrfwPRFu3PMMn5CQhPTJH32MiWu0ZZO3MHBweHthBHZMCAJHQ1V0lJ6QFqO7ZfkCTP9Z/zA+hASalqA1OkLbeVHuHKEx9kAcvHgAw9JxfHjcuONN8g//8sX5Op3XC3Jyb4kVMOBUOSsMjtqMZWMvCzY7FN1ddp87IBla6za8IwSjtmWGt5CF+t7JpVM8//aJ6TQ/CBY+Dt12nwL0175yhOW4wC7PWalkQBNRdFl75Txt/29fcbd8GE7TtbcpoM7JVYFG3lJkifNMe1La5kSoY6Toda7urpk6tSpkp5+Mm19MNizqd4SX932D5Plpk9NNA0C2gEPucVxMmVBmhzZ3SgvP1wmrz1WIfklCablwNciPSda5q3OkpceKpNXHi2Xlx8pk72v+zRAIFuJSUZujOzdVCevPFIuLz5QJsf2NQtZP0F39wnLJdLa2CUZeQGZgBWkCofotDR1yauPV8i6v5Ya+Vms5ARAbiA+hAsnO+j6J49bf4EQBWZDHQzULf28cf8OCwsNOQgEifpSpy1ScrDHiOaxx/+g/X6R+eQQQp/cE2iivHw7ZBQmsRY5YAA5ZOKVfB57/I9S9sxfrB2NKGYV2HkHBweHtwtGRDbS51yoq7YNZr9mAo7NKbQMnh6Sx8+UKR/8F5n9/74nJTd/TIXys1K/c6NNvGcDEm+99tpr8tCDD8mPf/xjefjhR2Tc2LHyH1/+d7lo9UXDpr9GHc5Ogv4J2IIFgh5TCQ6vrDprNr1oeQ7i8sZYXpKhgECKySpUgnZQ6nZtlKZDu7ROXjeNyEhx4kQPEtA+Xt4R6rb5yD45/sLDlqgub9U7tJzrTZsUWO91dXXypX/7d/nNb37rPxIcyCPym6/tlJ2v1kjhxAS57qMT5F2fn+ozTyiZyCqMs7wfezbWmzaCrKWNtR2Snhtr58kjQuKzkulJ0t7SrfdrlfJDJ00F5LkguRj3a2/rsQRp5B/xco+QTI0ykPisPzDdYLYhY+exvU1ydE+T7FxfIxNmn8xEjLmm/FCzkSESmJGxNT4pwpdufRhQf2gz2pUwW56ZAUDuiprNL1k+GF8yuWaJTs/Ri09YAsJWbffOpnrL9QMBJJeQ1w/RRpE1FJMezsqYJXlrkvA5ODg4vJ0QNNmIiE+WpPEzJCIpTQouuVVSpsyTsOg4Xd1P8v9CLCvp/ru/Jzt/8G+y5X8+LYfu+5lN1ucCmE0gHVVV1ZKRni6zZs8yzUZPN0mthiYzmExQW0MYRgqIConSEB7eihQ/CBInhSuRsHTuQ4BnhkZGml+IZ7LpahogqdIwwHxS9sx9cvC+n9vnyMMnSQPlgcyw8wfnw/o9m04jViTROnTo0GlZPYcDwr7icIu8/Ei5/Pift8qvv6YkU4U1obDJvUEobLQdt352knzoKzPlA/8xw3wzokn3rb2rsaZTfvrF7TJpfpp8/H9my8f/e7YsXKvC2I99W+rl5UfLZcKcFPnI12fKp78710wqgdqTwUBadcJwY67xFFaN1Z2nOK9iivF8NHgXNCbcOzQIjVgwoF29RIMUgrYIdmsr26zxG/IAoSHBXaSONQcHB4e3E4ImG5gCAGro+Pxic4zT2dXs1h7Y7tpRV2lplPmwyuuTAmcBMk8WFRXJv33pi/Lzu34ui5cslv/5n2/IB97/QXn++eeHJRtkY8ShE3OIz9YzCPxZEbG3e2B125ehNNJPVvR8WEycj0CoEIc4BJpF+DssxvdbroVkYK/37gtJCz7Ghg9oMtAoQXLsQ936AaFJm7nEthf3drZJ9uI1pwk82q2kpETi4uL8R0YG/DXwc6gqa5ODW+vN9IHWAvMGfhS/+uoO+dEXttjnW5/YKI//5rBpMhD2+/X3P/inzfK9f9gsm56rtLTn+Gp4992yrkru+tI2+fbfvy6HdzRa6m9MNx7oQeajE9AuoFNJBtVOVlMPaDqa6k8lWmfbBX3Xn9Cec3rfOeErne/LCIGDL5ovDxBX+ollH3ZwcHB4GyFoiYcwI67Djh98UXb88N9k54//w/wPMCUQoGp46FStAjAkBCFCcChWvvp3PwHSHwjJSZMmyje/9Q2pqDgu737Xu+Xz/+8LsnnTZtN0dAexjRAn1epNz5tmJnnybNiLTeyRKWnmkOeBVSZpmOPyS/TBWjX+srELQVRoJhSOt2tJrx+TkWPmC8hEZ32tkQfs77xjVHq2Epsxfde2Vh7TexbbtmDeOXnyHAmLjbfzZw0tI06JORdcIXt+9Q059sQ9+n2CbT0OrNspU6bIl7/yH/KVr37ZfyQ4FIxPkLjEcPN/4HaRkewcSZCaijbpVrJReazNNBw5xewY6ZaOtm7p6SaFuO/Z+EbAq0jdzS6TsoMt+v1kuTCx8LWzo8fSg1ccbbGdKAFFV8Ii0lzfJYkpkabN8M5VK/Hp7jxhPiKQDMrI7pmD2xp8PzhHQCumpfQF5OJlAgt3Fqjf9bq200V+khGp/atE+0XcGcXycHBwcHgzI6jdKGzlHHPVu+T4uof7POXNDIDgnDRb2soP23bLSF2lNezZYvbp/sBxcc7nv2/e+WHRMZKlq28CJbUeP2rbBYcCppO77/6D+W3g6DhiYHuvqzJtRMkNH5GCi2+QgjU3mfBoPry7b7sh23JxJB13/Qcl/+LrbdVZv3ODdDc3mhAouuIOyVt1jWQtutiCkeHwiYahq6VBEoonS9FV79Zza81ZtGHfNmlTkoGDIf4ZqVPmm08F8UnwH8H58PhLj5vNfziwtTU6NUvqd2/u217rITw+UUpu/rhUb3hOKl99wpxg2YKcMnmetFeWmm8JaGxslMlTJsuzzzwre/cGv9th4txUueGTE2XNrUWy8NIcWX5NvvlW/PWH+21HSlNdl2kh1r6z2HakXHB1vlx4Xb7UlLfbp2hSonzk67NkwcXZZj6ZviRdNj1fJTteVQKnmLEsQ275zCRZuIZ7F8i46cnyzJ+PmunGUzThv8F22ikLUvU5Y2SqEorm+k7zD8E0wr2XXJEnK68rsG20f/jfPWZawWcEk05DdYf5dEBG8sbF27+HdjSYZiYYsD2aflF05R1SePk7zVmUdsXpNz5vnFStf8ZnPlHCAClvOrjDHEIB5DJR+wYktnH/9lPMW/jv4BA65qo7feNBSWj5s/dL7dZX/L9wcHBweHvgby7rqy8mRoHZxzH1IPRPg65eI1Wg9HR1nOLISbyOKBX6qL99viinVh07ULoxJQXY4fsQEmrbUTG94DB41rr98wi0FHlj4yQ2IUIFfIu0NJzuaItgZ7dImP5b5d/26gFNBs6lKIvK9XrISiCilaxkFcSiPDIHUrQgAyJEbCtsRGSY/caL1cH9swpjpa21W4lFp5GT0QAaCKK4YtLCNNfHhs4S7FqKSs9S4rt3xL48Dg4ODm8FuBTzDg4ODg4ODqOKoH02HBwcHBwcHBzOBI5sODg4ODg4OIwqHNlwcHBwcHBwGFU4suHg4ODg4OAwqnBkw8HBwcHBwWFUcUa7UQi0RWAji+ro38JJHIKo5HQ9HipdzfUWXns0t/ERA4OAXGxBDSrniZZ3oFBMI8keO1qw+vRjwPIElN3OjlKZfc2q7ap/j9b2UYc3DmQs7u3q0LHpi3Hi4ODgcL4wMrKhgij3wislY95KE4qWhOr1dVK+7iFJmjBT0mctlZicQmncs0XKn39wwOBe5wrpc5Zb5MyKdQ9Le3W5/+jAILZG+pwLJHvppf4jPrRXlcvRR39vybHeSEx81+cs9T4kgmin1GfD7k12jsBReauulcRxU3xMQ9ug+eh+OXzfz6S7/WRW17MBUT5JXrbo0lwJi/ARm83PVcmWF6qlvXX04z7EJ0fK9CVpcnB7owXzOteIzSqQ1BmLLAjbucrV81bEuJs+Km2VpVL29F/8RxwcHBzOD0ZkRim85BYp0M+xx/4gB/70A6lQQuElIiOyaOlT91h4brQc3vHRAum+yQUSGhHhPzI4KIsJ85BQOXz/L2T/H79vn6OP3S3ttZX+X71xSCiepISpQg799S7p0PKUqFDIXXGVnSNXRnxBiQV8OvSXn2n575KEMRNk/O2ftvNnC6Jpjp+VIitvKFRh3yAP33VQXnywzAJvBeYcGU2kZkVZ2ve4xOHbcqQI0TYnYFbq9EW+/DR/w4hJz5Go5DT/NwcHB4fzh6DClYPwmHiZ8uF/kyMP/05XiE9aiPG2qnJLm425hEichO5Gw4GIIjQzOSUCQf6H1OkLJWPuhRaFsQN1rt8kEJOVLxFxCb7IjL29ZiZJGDPpZDROXdFHp2dbLglysUT6zTak9R5Og8JzE8dOsZDq5c/+1TQhqJK5jrLz7NisPN+ql/L4nxWXV+xTOQ9htiBJ3PjxJVJXV2/anjNBjhKL5sN7pOLFRyzVuNXTtIXSRERJrac0FZTNR/ZK7daXLeopAjRv9fVy9JHfnVK2CCVeUVFRQeWL8ZCUFiWLL8+VptpOefIPRyzZmi/UeJt0tPeaNiUtJ1oSUyMte+qiS3JlwuxkaajplLYW33MgLDlj4mTm8kxJSImU5jrtC/7onlqVkpodLQvXZMuUBT5BV1fpS9ceHRtu15E1tnBionR19Fjo89j4CGlp6OoL0BkRFSaT5qXK1EXp+m4npFHvHwzCYmIlZcpcSSyeou0/Vdu3RiLN1EcI8iZr9xglrCQ+I6EeIH9NfH6JZdANBvQRIsue6OqU/ItvkqRx03wp6enHCkLTE8o+Y/4qCY+O0zL0Ny+GSGzuGMm54HJJHDfV+mZg1NrIhBTJmHehJE2cZWXuIUmbv83J05Ks440w+2j5spdfIWHadyyTLJWn58kHlDFnuY3NlKnzLdw9OVkcHBwczieCJhtkfc1ecqns/NGXzO5r0Amtv18GE9pAZINV5Zwv/MByhEBM8tfcaOrt+l0bbaJHaxJfMM5MBJhnmEQnvecf5djjf/RPqjNkxqf+20gIEyv5SdBKYG4IlmyQC6Vm07rTfDwQ6FM//CUrF8nVyDfCs1rLDtn3oYDg//p/fU3e/Z53S1p6mmzdslVI5z4S5K64WtqOH5P6nRvt3UPDI01IIPDwfYFstCvJaD6yx0c+ZiyxfCnHHrvbfwe9R26ufPazn5EVK1dYKvm6uuDMBalZMTL7wkzZ9nK1lO7zZRtFlpFzxIvGvmBNjuUjWXl9gRRMTJBEJSgkaNv2UrXEJUXIRTcWyuqbiuy6yUoopi5KkyO7m6S1qVsKJyXKB/59unQp+SCXChldyVey45UaiU2MkIlzUmXcjGRJV0IDqUhJ599QKTvgS8gGefnk/86VvLHxWq++61MyomTf5npf4YYAYcBzV71D66rYEueR4wcygdCmvukXE+74tLZ7t5nSwmMTZN6X7vKRuoqj/rsMjaIr3qVkZqKMv+3vLX8NBAaNW93215Sw5sjY6z8oeSuvsbGSufAibdfplhPFy8cz9WNfljFXvttHftJyLHcQfRoCkapjacIdnzHTJPcmN09XS6P1S7IRU376aWRymhRd+S7LTRSXN1Y6a6vMHDfuxg9LwaW36m+7dbzdpHWQZ6SVMefg4OBwPhE02UiZtkAnyply6K8/8x8ZGIORjRxddaVMXSDr//XdUrXhWZ0wD0r6rGXSrUShVSd2bOqs8poO7LDrYrILdOJdYT4VJG4bo5N6s676yTqLUIZ0hMcmWqK0YMkGBCV99gValisl98KrJCwyWlqPH5EeXfW1lh+SiUpuql97WgXHJ1UYlcqRB37pv8PgQJtx331/lUcffUwuu/wy+ejHPipLli5RgX/YBP5w6e9BH9nwCwGEB2Srvfa4kQzIBpqMwstukzFXvVtiVfhs+9Y/2CrZA1qN4rHFEqrk57nnnpf29uETvIGUrChLhrbj1VrTZgwEkqMtvjRXfvtfu+TRXx2SDU8eN6IBMMGgsXj4Fwfl+fuOma/H9KXp0t11QiqPtkrd8XZ59t5j+vsa2bepXg5sb5AZSzMsOVrp/mYlJY32d3JGtLzw11JZd3+pHN6lK3glGuDaj443rctP/3Wr7NQycs+Js1OkpbFbavXeQ4E8NLWbX9TVfIPWWZHs/dU35PiLj/p8dLTdEOg4M4+5+j1Sp31q8ns/bySh9Ik/+e8wPNJnL5Mc7Uv062OP/0Eq1j1k94Agp89cakn59v7mG1L2zH1Su+Vl8xuiTdFQZcxfaW36yudulMpXn7SEbviVoNkIi47Tfnq5dLc2yb7ff0fKn7tfQrRKshevtfHT29khoWERUqgEBG3Hxi9/yJ7NfSCpJEjMmKfE896fmgaseuNzkqf9DHMnY8bBwcHhfCJonw0mtrPZXYLfQeO+rX1ahc6GOjOjRKVm2vehEBoabqvEpoM77TvmDgjKSMvTUVct1a8/r5P60/ZpObZPTvizyJKt9sjDv5UFX/2dqcb3/eabdjxYQCz+8R/+SW684SZ54vEn5D++/O/ypX//N8nIyPD/YgTw1OSWjt8HBODmb3xadv30K5aFtvja9wnp7D3U1tbKd779Xfnyl78StFYDkGQNcjjc7pOKIy1yWIlBICKjwiQtO8bMH61NXUoYoiQ2MVya6jslMS3SkrPhfJqWFS0XXpsv131svKy9rcgys0bFnCz7UMCX45ASlOT0KLs/9+ts75X45HPj31GjBADhPef/fd/MbPt+93/+M8GjZusrpkkIBFoSCA5J+zBhWD9XIohGAxMd5hW0VzWblAy1nFqv2hoSmZhsmjiyx3pZkRsObJfIlHQlySd9TyDmlRue8X87ieiUDOnWcdLld4jFl8ojWQ4ODg7nG0GTDWzJ4XHxZgcPDoiwk2AiD9w9gTmAia/Paa/fHIh5og8hIbajhNWchxM9XfYZCZhsMcsceeg39mE129OX4j3El25eV5KQopDw4IQhYLtoSkqKjBkzRubPny8XXHCBlJWVy47tO6Spqcn/q+CBxiVECRap6z2wGm7av12Ov/SYbP7mZyR58lzTfgQiLCzMNBwjQVdHrzmDYg4ZCo21ShL7tRGCn4ytY6YkyfUfnyC3fW6yfTLzY+2+yDVMKh/579kSpyRkyzp2uNTYDpfA5h0M+HvEa7mWXJknt/2D794X31IkMfHhZpIJHkMIWC0IGrPOpjrz/wkNEOTBorPhVKIB6D/mMzJ1vkz54Bdl6of/TT9flMiEJCUIvn6M2YP+NhAgI7YNOaCP93KdVmpYTJz/iKK3V7oaTjcphUZG6k+1DXpPEnKfptGRDQcHh/OPoMlGy7H9ZlfOmL3cf0ShE3Xg6hrg94BtHDVyIDAToJ3wfh8WHWtEw9KtK3p1UmVnibeLJdpWgj7Cgn26o66qTwvCRIwZ5UwEw2CIycqTcTd+VA7d93OJKygxh73+7zYQEAjTpk2V977vTvn0Zz4tF1+8Wv74xz/Jxz/2cfn1r38TtDnDA/USVzBOXzLEVO2nwlcfIX7PSQich6joKJk6darMmTtHYmODJYRKYlTwN9Z0SO7YeNNUGPQxEAnebSh0dvRIfXWH7N9cL7/++k757mc3+T6f2yTP3nPM7j1jSYZseLJCHvz5QdmzqV5qK9pMqxF4797eE9bU/QkIZKXsQLO8/HD5yXvr5xdf3i47Xw0uVgRmLvoPGGiHVFzeGMm/+AYpf+5BSZk8TzIXrtYfDv3ewQBTCI6atVtekS1KDjd++cO+z1c+IuXrHlTB324kB98byGUfrCJCTBsCObB+HhFpp6LTs4xwYxY6CcjD6QSis7HefH9IiQ8YK2hK9Ob23cHBweF8ImifDVS92JGzFq02O3d0Rp7E5Y+ViNhE6aj17xhRRKVmSOKYSSaoo1IybDdHrxKQE909kr3sEvPRYPtdyuQ5tjOg6rWnzPcgVoU9u0+QMFEp6boinGdq6KMP/9bui1qZnSzdWo6EMRMldcZi6e3qkvrdr5+1gyi7WnCmwxn08AO/st0EBWtuspgEaBSGArtR7rjjdmlpbpFvf/s78tBDD8uxY8f8Z4ND3op3mIzBUTZ54ixJn7nEbOw1m14wQoHPBn4rCMuYzHzJXLBKwuMSbQsyQglkpGfI7be/0wjHrl27pL5+eAdK0N3Zq88OkZKZyWbeQJOQlR8rsQkR0trSJT1dJ8yUwa4V/DECYRsewkIkvyReUjKjzWySnhsr2UVx5nPR0dpjDqXpebHS2tgtWQWx5kCamhUt5Ydb+hxSITY8H7IDEUFz0ezfjYKZZ/byDPPRwK8jqyBOEtOVpLb36ic4R9wIrSscnO1vFd7UdZcSZ8gr/hoth/dK6ZN/Ms3X2Os+IE2HdtsW5GCQpm0Fare8ZP96gHSHansllky3fh4eFS0x2YVmTkSbAdmAvOcsu9zGB2WMzsg1R1D6MztkGD+J46YZuaaPZi1aY2Ws2fqy//7hkrfqGqnZ/OJp/RTNIX4bmHO4PnniHEmbscjvs+EcRB0cHM4vgiYboGHfVpsQEdw4vuHdDlFoKT3g/4VO4rrqikxKMeIQXzBe6vduNkc9VM22y0Kviy8cb6u56k3P923DYyXIpMy9ozNzpXHfdunS1Rk7A5g40WzE5oyRhLGTjTRgi27cv01ajh30q4eHgC6ZeR6TPDsBvG2OHmJVCCB4MK2wG4Rn4Q/Cczw/kcHAyvnFF1+U9evXj1iL4QGhgpYHx0+EYe22V6TihUdQ92jRw0zbgbCBaPAbVqllT/75lLL1aHlbW1ulrLxctm/fHvT2V3adYCJBiwCpYAtqVmGsCfvq0jbbwsoWVba5Ht1zusqfHSeYTAonJEreuAQpGB8vGUo4qo612n3ZIstOEnavpOfFSEdbj+zZWKfHO6S6zNdu7XpviEp2Ubxk6rMjIsKkbH+LvtMJOX6kVZLTo6VocqKSmgTJU2ITruQEZ1aeHQzoP/S9+PxxRmC93ShsOY2IifcFoGuq9+1QUfJIG9BPggG/7airlJaj+/1HTsK2Vvd2a5+fLglFE4wk04bNSmY4Rx9mKyrmsITiibaThKi4TYd3S6+RkUYjC4na5xkzPZ0dFpCrU/snDQZJjEhKlUa2f/s1hB64lj4cr89kHBIcjvECkWotP+z/lYODg8P5wRmFK0fYsb2PCW4wrQKTO2aRbmIG+NX+gBU6sQNw1uztPlXDwDUQlcFCkLOyD49LsK2K3ore4dyBLaeJKZHmD+HTLATfNcLCQiwWB5oOSEZXZ0Cb67HUnBgjFU11p7drILgeRT9EIxCRWrakjGglK3oPPzkaMVQ4Q9642HyGzhPQLODYyXNx1ESTcQq0XIwntDht1RXmh3ESIabVwyzZqUR+pE7RjFW0Joyps3HwdnBwcDgbnBHZcHBwcHBwcHAIFkE7iDo4ODg4ODg4nAkc2XBwcHBwcHAYVTiy4eDg4ODg4DCqcGTDwcHBwcHBYVThyIaDg4ODg4PDqOIMd6MQ5dD/p38PYlRKpmW8ZGshQb4Ib37aFr9ziKjkDAt4ZSm5+0KODwOiOQXijPZPjjIoY/9yBZZ7sDKP5rv1tbX/X4e/eRAPhDg7bH3vnxfGwcHBoT9GRDaICjr2xg9bxEuEGcG0yp75qxy898eSOm2BZC5eI4nFk6R266ty5KFfW3r00QJZZElkxXNIVjUUICV5q6+TMVfdeUqsAYKR7fnl/wQdwGk0ER4TJ+Nu+qgkT5oj++7+jtS8vs6OE/CLLLRpM5f6YkMoqSCHy7bvfN7ql5wxxde+3zLH+sJxk0+jW0qfukcO3/9LC2R2NiBx2tKr8izoFmSjtaVbfvXVHXJkV+ObkqudBiVK+ePiZeHaHHnqj0ekrvJkfp2/dRC7gyijmQsukn2/+/bwwfECQHC04mveZ9FLK1542H/UwcHBYWAEH0FUhdykOz5r4ZnX/+t75MCffiDVG54Tcni0lh2y0N6E2I5KzbKgRP1TzPsQYpEyQ3VVxGLZy1kBEJSWfM0vwfg7NDz81N8QTdOSlIVa2OfotCxLnjVYYDEPXrhyAoFt+s+PKTn6iRx+4JdS/uz9llHTnk0elH7PIhx04PMHQ7iWM5hU8kMhPD5Jxlxxu0VSJfkWSeLsuJIQwkyTPnzH9/9Vyp6+V9LnrpT8i6+Xsqf+YoHRiDhapu9CTpp2bYeN//FBO9Y/MFpgPpJgUTIjmQvl23//ujz2u8OSmByhBKRYju1rVsF9UqNEyHHCjYdqfxgoGFhEZKjWU6jlQSFwl97UjvN7gll5oIhh+jsis/ZBj3E9HxAQI87A/SKjwyTCn9uFZwDuRZlyiuNl6sI02bW+ti+BW7BEib5GllXLX2Lvdno722+0T4dFROt9fQkGA2H9Vs8TtM4K3+88/ZPzoP/9+57PeX2h055PdNzoGPsNCDZYmd03OlaSx8+UxHFTLDR+X7kCykdAMgit79kn7x2RkGwpB9qOH7UQ6PoDG0Pc9/TrYzl9yvX8jnqx9tayMwaDGWsODg5vTQRNNlhhT7rzH2XXz77apwlg1QzRCARZLnX+OJ1s6KxC6vaMucslffYFFtWwR6/3MsEmjZtq4crJwUI4cYhE2qyl/olMC6oTavKEWbYKI0U3ERfDY+JHRDYGy40Sk5knyTpxEhGVMNFMmskTZ0q0Hu8gomM/4RCIUJ0wly1bpgJPhale19YW/OqwD1o3icVTjMhVrHvA8mHUbnnZyumRDXJ1EGqaUNvkwSAnRtX6Z/reHYGQNGGGCcVqtCL9yhwVFSVjx46VyMhIaW4OPvoqZCMpPcoytnZ3npAju5tl9opMSyl/aGejCfrEtCgZp7+bsSzDQpKTT4Xw5l6CtezCOJm1PFPyJyTYPTPzYi13ConayKOSod/b9H7deiwxNUomzkmRuooOiyLK/XPG+MjClAXpEh0XLq3N3dLZ5hNcsfHhUjw1WWavzJJJ81PtO2HQuTY2IVymLUmXAn0uiebIp5KarUJb66a5fngTH4ISUpu16GLttxdqP8mV3s5Oy1vihbyPTEy1MORZi9Zqv15G6FMjsKZBUyKAUKZdshautnw/XEcUUQQvApdQ+WitMuev1N/6ssCShh7QpvGFEyRz4UX2fBIZ0g+8cUV0UIhCzvIrtY8sloj4ZL13lZ4f3qxICvo0LW/i2KlahgLp6WzTf/MtOq+FPteGY5wxBklOR86WHh2rXn87hWwc26/jMVPH8DQjvIxrtGAkN6TvZi1ea/mQIPv0X5sLcsdIYsk0iYhNkAx994SiidLd3Gi/GWq8OTg4vDURtIMoJgumgLrtr/oOjBBkcZ328a/ofWbahJOz/HIpvv6DlrMBpOtkCgkJj/alz47NGyNjr/+Q/Y3wJznZ+Hd+SklKgsTlj5OMBauMRIwETGwIj/iiCfaBQLGiInQ6wqDg4htNwCA8xt7wESNNw68UT8iKFRfKJz/xCcv8Onv2bBk/vkRiYnQ1GCQQOgiixoM7pGHfdhNSlGEwUGdoD0YSfjonJ0e++G//Kh/56If9R84AWiEkUWPxCtkAJGBbfVORLL4010gGeVCufP84ySmO09cIkZSsGPnAV6ZbQraY2HC5+gMlcum7ivV3vnYeN1OJwooMiU30pbjPULKy+uYiiYr1aSkKlSjc/k9TLCdKa3OXLLg4Wy7W85AKMG91tlx0c6F0dfRI+cEWmTw/TRJSff0CDUmyEqU4vTdmoISUSPtOrhdjQcMAgYogjFRB26pClWzAJTd/zAQ0leGZsMbRV5RstlWVSoYSA/IHgcjEFCm49BYZ8447rZ+RsZV+HqmCF5ALZean/8eIbntNhRKKFVJyyycsnD8gKV/xte+zfkq+FMg6fR+NACDnytQPf8n6QdORvRKjpCGheLKdGxL67iFKVMi3Q/h/tI38jR8U2g4AiZpwx2eN3JP7JXnKXJn5uf+13wXCCFNWgRRccou+x1wlJC3mq0VZpnzwX43QYK4ko+7k9/+zXY+GjXwvJTd+THIuvMryy6TPWW7Zd6kzBweHtx+C1mykTJlnkxvmh6EwmGaDSYUkYlu++VnL1Er6dCYgVkEtZYfM54MVjXcdzqaQj6OP/l4JSKwUXnab1O/dKvv/8F37DRMUwqB+54agNRus/lhJpkycrc+eqwK728w/rNhYneWvvckmSia9qteeluMvP+6/w+BA3f/ss8/KunXrpKioUBYsXChTp02VxMREM680NDToYndowoIameyjVRuelbayw0qExhvpIfGdp9nA7wSzTmxWoZWvteKwJeXyVoHDaTY6OjokMyNDXt+0SfbvOz1p2GBAs5EzJs58NTJzY2XhJTlSU9Eurz5abgnYJsxOkaLJCfLYrw/L5ucrZc/rdTJhTorWrUjF4RZZfFmOJCRFyk/+Zasc3NFgppdJ89Jk3+Z6qSptk8JJiZZp9tCORtOGQGYmzUuVDU8dt6yu1350vBzd3ST3fn+vHN7ZKHXHO6R4SqK0KNmpKW+XWcszpL2lx8qzd1O9bF5XJW3NPhLG9Qf1vuRp4R0e+eVB2fFqrc9vI4jFM/2CRIFNh3baap8MxonjplqivhbtL2ig8i+6Tnb+5MtS+fJj0rhvm1RvfF77oy8pGtoxSPLRh39nbVW/a6Nlh/X8aEpu+TtzcN7543+XxgM7zBcneZL2S+2DCGjIBmZJfCJqNr2o7fq89tdjWnafuSFjnhKXxDQ5+Kcf2piq2/6aaRqCAVoEnhmm/SxKySs+G5SPdwMZ81YYId/32/81E0v1+qcld9U7zGzHezL2UhnrSnySWYhomUuf+JORJlB05bvkRFeX7P7Zf+pztkvdttdsjEO60NDFFyohV1KGzxUmwhN6X8Zoo/b5/knlHBwc3voIWrNhq2iWtEGsCAdCXE6RNB/d37caZ7Lr0g+mjeHABMVuF89kg6qVHS9McCMBE3vFi49I+fP326dx/w5bbQLuzWQ58V2fs+eVPn2vHQ8WmCbu+vkv5Dvf/rZUV1XLu979LrnuumslNta3UhwKECBU2Se6OnVVnKNkLcTS90MwPOCQB5EjzX6zrmL3/uZbKnOCt3Fj3iEF/qOPPOo/Ejxi4sJlwqwUIxHxyZGy87Vay+YaERUqyRk+zUHRpASZe1G2zLow0zQHCSkR5seBmeSwkgVAhtn6qg5paQyy3bSr5Y9PsPtw73n6GTcjyVLhkwIf7N/WYMnjFl2Sq0Qo20w5aDTOBTDTYRrJueBKE74If0gu/hP0ETQNmDXQaJwCJXqs+CMSU428khb+dIRIwpgJNh6yl16in0vNnAIxjkjyre5bjh2wnVaYIXJXXi3ZS9ZKpAp5qxiFEXMlRIVX3G4O02aePEeagai0LOlQ4uAtGCDVjQd2aj8tsu+A+sH0hxauWckRZMwHTKZjbb7ABMS7YYqBmKCl8dDpJ3CAMU2delobBweHtxeCnpXRALBqxpdiSNiKmsmwHynBCbDfahvotOz/Q88FEBlzpguEnQpiOToE2KKH93zVhufsw+qxb3uuPhs1MoIcAYBPSLAgLfmsWbPkpptvkmuvu07i4+PlL/feJ08++VRQ/hEICZ7JThTU1lHpWTYpY9f2gKZl76+/Kbvv+poSjW9Ke1W5/0zwSE5OMm3LSFFzvF3u++E++dO398jGp4/LxbcWSWaBj0Th04tzZnJGtGklMKscUXLBh/T01qT92z3wq/e3v+khFoFdBwdSNB92b0w4YaFyQAlG5VGfr8+Ol2tk3V9Lzf8jMz9WLr2jWMZMTrRzZwUteGxukeStvt40YDVbXjKNESYFzvGf/+X8n37gN5wf4FQf9Hx4QpLEpOfqJ8e0WPggsfIHaB6OPXq3kRV8JjBVYGohmzJo2LtVDt37UxPaCWMmSf7q60yTci4Q0AR9COFl7J19OHGi17Q+aBxTp803E6UH3j08PsH8THg3fDYa9m+zMvdBybLn+2LVFHBvBweHtxeCJhvNR/YZ4cAZzQMrEfNUDwArMXabsJMkEGg1WAl6XvesEMPj4s2hDXBdeHRM30TKb1kdAgQxZpe43GL7zoof9TLOaOcK6bqqTJ+7XA78+Qe2pbTw0lv7yjoUIBq3vfM202IkKMmorqqSe+65V+666y4zrXR1Db+KxwkPQYZAs8+mF6S3q8O3OjxHyMrKkltvu1Wuuupk+50Jtr5YbSnkF67JNvNEnRIRHDJff7ZSHvvNId/nt4ds5wdmluNHWk07AXD2xNkUx00P3XoP/CnYNQLSc2P6dp0ggcz0UtVx8t76ee6+UvPPAGw82bOpTh7/3WF5+BcHzZcE00wflOh4pMfbrRIM2A3l+U4cf+lR0yLgvxOmhMBW33rD5iN7TDMXF7Da1xM6LsJNiEJuQ3QcoJXywJixwujLcU80fAf/8tO+z5GHf2NmCg+Q36MP/9Z2fzXo7xOKJ5mJzQN+PofYXfXXu6T1+DFzKA0WaCt6ujqtvDibBgIyG5Wa2efDwViLL5po2hYPmIPqdmyQ0if/bJqJzEUXm0aEd2vSuumqr5UjD/6q790wwdZuf813sYODw98UgvbZQJ3Kqi5vlQrVovHmw8EqitWYt2ME4H+AbZb9+6nTFkrz4T19XuyZC1aZyjWxZLqpp7ubm2wi72lrsYk9ZeoCO5+iqyQmcUwLTLTeNsicCy43EoKtGP+EzsY6adizKWifjcF2ozCJjrnmvVL+zF+leuM6aas4ag6oqImxNw+HtPQ02bN7jzz22OOydetWqaur858ZHgiiwstvl32//7ZO3OultfywqebRaqAS9znXze3bjeKZoTzwbtRr3kXXSlLJNDPD4EQIUWqvLuv7fVxcnJGi1pZWefXV4Cf8U3ajdJ2wHSY4Y+KYiQ9FbUW7ZBTEyoyl6eYcir/FjKUZ0trYLU11nfbBeRQSUTgh0c6FK5lAO4HPRkx8hO1kKVKCMG56smkw0nJi5NVHK8znogliszZH8sbFy5gpSTJtsT6nOF7v22XajLmrsvR8thROTLBzmG3W3V9m5hoP0TFhMn52imk8xk5LNllPufsrXPoDUpuKn4/2OeoWJ2l2pGCOoy06aqvM7wATC7tCzC9o1hIT1PRJTHRoAtlJwqrf129nml8FfZ7xlKvknZ0YXJ8x50J9xnS7FsKL2axgzY3mKwUhTRw33baXQ3IgPpgmaHecQtNmLjZyEKgZGRZaAThk+3alTDEzUa+SY94PIkF52RqbUDRBshZeZPdn2zjEInA3Cv4i3a0tkjZ9kY1/+jD3wLmWOmNMswuN+3FtZ12Vz2cjM19qt71q80NMVoEk6nvUK3lhXDs4OLy9EHycDQXOadinWY3hwY6mo/HgTukKmBw6m+psayaTJZMGjnSs0nt0kmktP2STEpNcA850OLz57d1cZyrqE70qYA9anAiErzm86TEmqPaa43YvtBxsDeV8e3XFsL4b+DZQHogP9+B+p0ClD8+p3fqKCefulkbz4WALo+cwNxQOHjwoR44cCUqLcRr02U0Hd9lq1iMGkCHeizJgN28tJ5bBXulqUlI1iISkrs1J0OpM20kJE+/svWt7e7scPHRINm58XZqagg/01VTfJUf3NEnt8Q57NJ/Gmg6pPNZqAhstR215m/0O3TuEpOJQi1QcbpW2lh5paeiS45g89D07Wnv0ujYztXBPyEZbU7cSg3bbCovDJw6mezfVSeXRNiM2+IZwHKfPiIhQaWrolNJ9zVJb2W6kB+UXppYwPUdZtrxQJQeVyHixNgBbXjG71B5vl7rqDqkpa5NmLddwYAtqe2WZ1SHxTxr2bpbazS9Zn6duIROtZQeNdCD8ceBt0j5GP+ccBJ2x0K5EEXCs+dgBM4vQZ/FXYJcLDpGQQ3Zp0RcYZ1xrZpgQ4s1EWFlqt2qf13HhbRdH84cpA/NmV2OtacXoA56fRTCA9Bg50H7WUVNpcVogOzyvreKYlQ2TZkvpfl0YPNa3sMD8SD9jrLIVuEvHr/U7vZ6+yLvxnbkB7WevlgmfjzZ9FuVnocHcYONX6w7CAbHmmj7TpoODw9sGZxSuHFUwGo0enTw9B8v+QNXMZNiLAA0QkKhsmVgteJVOMoHgGjvXoavOfueABfrSlTwTbH/thMMbC7a5RkWHmoDsaO8xZ9BA4NcBMSCOxhXvGyuvPFwu21/xOQdybWRUqJk7IB0DISxM7x8brud7pcMfY8MDZhfuj1mnUwmIzwFgACC7EeDaHwfhbKfB+lxUlP2LEB/MKReBSt9EI3B64C3fNtmT9+jf70NNi8ZxIxKB40WJRrheawJ5gOfb+ehYE9BGMoJ9sf7QMlI3pkUMfD5jMibWyIDnXzEi6D3Zrk65LX7ImZbPwcHhLY0zzI3i4HBmwImzP9lwcHBwcHh7w5ENh/MKnERj4sKko11Xup0DawkcHBwcHN5eCHo3ioPDuQDmlZbGbkc0HBwcHP6G4MiGg4ODg4ODw6jCkQ0QEmIe/zj48Rl1hIT6Y4SE+L47vDXh7zf86+Dg4OAwOEbss8EulKi0bOluaRASmHmISEixKIEe8J5nmyle7IDgQMQkCASBvNheGkyWynMBCwZG8jV/SGQyzLKF0VJtT5xpXv3sGigl58gogoBkRHys3fbyoLt5AhERn2iJsdjJEwi2KxK34HwgJj5cUjKibespsS/eTqBfsH20g9DZI9gtwXUEg6ve/MJ5awcHBweHtyJGFGcDEE6bTJNkb6ze9IL/qEjuiqssKyuBgVKmzLV8CCzcW8sOC8mb4vNLpOSmj1ogIsIuJ5VMNcFP1MPzkXiJiKW5F14lhZe/U1ImzbYgSQT5IiZCaFiYBSEjm2fR5bfL4fvv8l81OkgeP13GXHGHBWgKJiZC1qI1UnLzxy1IWspkgqUtsA91R/Ck8wECa9362ckW/XPnq7X+o28PZC1eY0Hm6ndvMpIcLKLTc2XSe/+fteNwgeUcHBwc/pYxYrJBNkeCXhGpsnrDs7oy92klksZNM3Xy/ru/I6WP/8mCFvFbghwRuAsNxvFXHpf2ymMWrXDXXV+zbI/BEI2IyAiJJIZB96nRM4MFAcgy56+wRFaH7/u5hU6uITtnU50FHepsrPVlm1SBkbPsMgv9fBqIFxCfaHkeUJ1bnA9/wCxMIpFKZjwNjS9uQpxd48UmIBw0+VZYQROJMXnCTKl89cmgyAYRGNFs7P/Ddyyi6vEXH7UPmg2eRVpuhKQnKDEFhcfq83WVHig8w5RUedFYRwKsBGvfOcYCbZHyff2Tx0+Lh0FSttTMaIs2SmAvYmYEgjgaabkxlv6dIFuB1xNnIz4pUlIyfSGzuT4wVgY7WIhASjAwcqdwfeBrkJgtPSfGksKRer8zSOdTNFrEgMhadLH+HWdB34iASUyIvkittHtcohKLbKvXwHYniiZ9iii4Rjb0t+HaR/p+B6zfJFmOEDRqvut9hef53vNiMvOsz1gsCgcHB4e3GUZENsJ10h173Qd05f8LSSgcLx31NRZ9EEA2EKKk5CZ6INEByVYJMWncv80maIQWJIVVOavBk1kih0Z2VpZceumlkpGRKV06WTc2Bh8BE6BBybngCitr2VO+tOxEIiU6aKAZg9DSA5ENhEdi8RTJXLBaScIsidd3JwgTBArhEZuZL3kXXWcpvgHCieRqBHHiGdRLhn4nxT3h1glRTih2C9UeJNkgM2zdzo2n1RlEKn3WEgv3jBaJoGiEkucZRITkPUFSUpKsWLlC0tPS5dixY3YsWEAgVt9cJH/6zh6ZvSJTju5ttpwogDbNKoiVmRdkWGjzoklJFnK8pqLNSAEgzPj0ZRkWjrxAyQpZYgknTu4UNCUlM1Nk6sI0y2lCyHOCfzVUd5hMh6TMX51tYdBz9RwJ4IgcSmRRQNwOMr0S8pyQ5vyGCKbcezjQjilT5viyuSpxCAkLtXojMBcktK/dF15kv4krLDGCwDnqtT/ZIDR3+qylQkZi+r2Z55RUps9ZbmHIGTOhSjZpQ8h46tR5vvtqnyAkPeG8e7s7LOqog4ODw9sJI3IQZWJkkiSBVLOSCSbSwUA+CVbztuI7g9V0ILq6ui1V+6xZM+XGG2+UG264XubMnSPR0cMnSgNh0TF+k8kRLUpwq95AQJByll9ueTEIVU1UVHJSIKxYrUImcle+w/9rn18LeSIQXPhZYP4gWyfEg+RcJFgLjTo1gd1wgOhh+sE85aXsBhZevb3VTAFJE2daoi4vnXd3AJGx3Ci33SoXrV7lPxI8JsxOkXoV/uUHmy2b66S5qf4zvoig8y/OlrHTkiws+cHtPk1VmApukJgaKZe/p9g0D8f2Nun5BiUoIaahgKiQq2TeRVn295FdKqDDQ2Xl9YV2HchR8rDyhkIpVwKxc32tkZy+RG2K6UvTjWiUHWiR3XqefCpoQoIB/kSdSpiJZotWCh8kI6B+DRWmQnIBRWfmSeOhXdaPMcVRx1rB9hsPqVMXSOGlt1h7dBASX1+I/kG/gJg2HdhpWq68Vddovyi08/jtFKy92bRWjCdYVv7FN0p4rC9xnYODg8PbBSMiGyRTqt+z2QgEORziCkpsdeeB5GEFa2+ScTd+RMZe/0HLEGl28LMkG1VVVfLzn98ld999t+zatVtilHgsX36BvPd9d8qMmTN0jh76NfpCpPtNPiNFTEaeRKhAKF/3sK1ijz32BxNUCBNWv0MBJ0KSTpFTouy5+6X82fstB4sn0IIFGXGTxk01ocYHHxOAcCPzZt32V6Xoijske9nl0qakyvK8BOSYqK6ult/8+jfy4AMP+Y8Ej4lzUuTA1nrjjPs21xux8LK0ZuTFmHlkw1OV8trjFbLpuSp57i/HpKHGp1EpnpokyelR8sivDsnGZypl8/NV8sqj5ZbHJDo2XIomJxqBeOH+Mtn6Qo08e89RiUsM1/vGGgEhvTy+P2SW3bep3kw4+7ee9I/AcZVyVR5tkb1atqf/dNSSvwUDcs9Ub3zeSGj78VKpWv+spfIn9w4Ph0SS7p82w2xV+uQ9pvWwRHdKpD2gxSq+7gNSs+VlKX3qHgsdznnIBP5Kxx67W+/7lBx74o9GdiGhXuZWzFxkesWkVvHCQ2ZygeQ4ODg4vJ0QNNnApo2ql4nUnCtTM5RoJFlGSA/dukJsqyo3c0Xlq0/Job/+3JJKmTQ4S/ToqrC0tEyeeOIJ2b9vv4wfP15WrFghubm5KheGXsliE2fS9yb4EUHvDWHgHTwThqnZm+olMindv4V1cHCtmVwaa/t25uDUOdJkUzyPRFhHH/u9fcqevtd/xrdCr1XCgUkFU1DN5hd9GqUAdHZ2ysMPPyKbNm3yHwkOmFByiuNNWzB9SboShDDfsbFxdh5hTyK0usoA8hTQ3NlFsZZIrbn+dAKACSUpNdLMLJfcPkau+UiJXHJHsWWCTUxTEqd1jzZk6wtVcvGtRXLDJybI2ncWSc4Y37MB2Wg7Wrtl9S16/uMT9Poxp2g+zhRohiDS9B3MIsB8fLReI5NSjbx6SJ97od9vBl8Pn48MJpRoJSo4Ro+5+j0y/vZPKwH/kO3I4reWal5hici4RvuX5/PTP927g4ODw1sdQc/K7B5BvcvKC899Vm2hOiHj7OmBSZmVYvm6h8z5s/nI3r7J92wAmUhLS5M77rhdvvCFz8uFK5bLk088KV/7z6/L+tfWS69O8kMBvwyyzbJ7YEj0kaJTyYv3DoFbT/n7RI8SBswy5o8SUJWhoSowfBoPrmU1a9tt/aTId5+hCVJ/kPSuRVfipA/n03zkZFp/tCukMOeZZNfFx+OU8viRlZUpEREjI1ykZQ+PCJWUjCiZuihN8kvizfkT/wxARFCcMjGLDAT8NiKiB+5mPXotzqDHj7TIjldrZMcrvs8939sr+7c02H3xzXj2nmPy7J+PWVr6rII4mXVhppUJ4D/y9B+PyssPl5tmA/8NynnW0L4AQaUe+9pd29CcPLu7jVh4KH3yz7L/D98zkwip6IERXCV4EEt2bdX4P/vv/q7UvP6Cz1GU3/UfH+eAmDs4ODi82RA02UibuUQa9m+Tg/f+RA4/+Gs58uCvpFpX0JhSbOXfB50sz/GEWVRUJJ//wv+T7JxseeCBB+X3v7tbHnnkUVm/fr2ZB4Yz06BVaNi9SRLHTTEVuAfKHajt6GzybelEdd4HvTcrWv7FqROwcwAVOxociExnU4OtVNEqQChYEWPnB1zbUVtp17AiBgnFk82P5JxAnxeTmW8OsKj7Kzc8Yw6iyZN9ZhYPxcXF8vd///fysY991H8kOOAPcXhXozxx9xET6pgptr1UbaYUNBqNdZ3W3HnjEjwuZX4X3t+YXXDiLBh/0g+B3SeQk+b6Lqkub7Prjx9plV3ra+1DmnkcRO23eh9MLrs21Mq2F6ul9ECzJKVF2T0MejHp7rlu8/OV0qTkhF0rI0FPe4uEx2n5vEIrMG901tfavxA5EEu7p2RIe1XpKbtGMClWv/681G57RcZc+z7btUTcDcw0mLnYNUT6dz612181M825IOEODg4ObxUEtRsFQUqch8pXntTV2TpT6Xc11JqvRNrMpeaPwCRsu1F2v27n+yOpZLpM/+TXJWPOCttGyI6UxLGTzfMeMjAU2tvbZdu2bfLyS6/IgQMHpLa2Vrq6gjdDMOF36TOwlRddeYdtdcy58GpTabeUHugTHDgKohXIX3OjZC9aY06ZbInFTIFWJH/NTZIx90LJWXqJmVSOv/iIlr1eelqbJH3OMvOXQOuDQyiOh5CRpoO7TYfBLoVsvQ5SAGnB5FGx7sER7Uap38VulFPrCsJUcvPHpO34UTn2+B8t9gZbbCEcPN8zp6D9ufyKy2Tf3n2yefNmOzYc4pIi5MJ35Mv2l2tkz8ZaaVJy0NzYrSv7E7Yr5dCORiMJEdFhsuSyXJm1PFNmXZApC9Zkm8ahuaFLWhq7LP37mluLzAwzbVG6TF+cZg6f+Fa06nm0JMv1OZPnp8qSK3LlgqvyZbc+r625W+auypKbPjlRz6XJ3IuyJGdMvGlBjuzGmTRE1tw2Ri59V7HtVuG6tOxoefCug9LaFPw26V4lFDiC5iy7VLKXXKJ1Vi+tFUfM5wWCWHDpLdbuOOHS74+/8oS1/8ndKNoP9HhL2UFr57jcYiMWEA6cgQsvv93GSc6FV0qB9iE0fp111eZwHZWSKcdffszKgRMzpL5268u208nBwcHh7YLgIojqio+JEKHcGyAc0Qog7DiOqpnv/I1w7w9U/RHxJ51JAX4LPW3NI/ZfOCOEhJqTZWRyupEONBKQJIhRYCwKz8eC1Snn2msr7f2JLBqtZIp4CZCj9qpyfdfmPnW6+a+Mmazv0yJtlaV2T7ZHYoenbojngODhGi/yKlqPQHX8YODZ2PERXqfVrRI+TFu8j+cTgtYEMkNZvLrFFJWQkGC+G5C3YIDmIi4pXNpbe07ZSoqQj02MkDYV6JhUwiNDJS4hQjLzY8zfouJwi2199WJp4EwamxguWYVxEh0XZpqSxppOM8GgocAPJCElUnKK46RDn1V5tNV2v3CeGBrJGdFmvulo6zHNRrOSlC5/LA18Rth6SxwOTC44iqIJQVsSLCDT1CH9N0TrDWJqEUFp98hoJW/a7mk50tXSoKTumK+Pa7tZuyrhsHZEU6G/R0MSov8RnRYQlRbCEqsERC+y7cloOmgXdi2FhEUYuQHcj+vxCTpxhjFlHBwcHN6M+NtMMa9CwTASieSBawe7zs7xxxmef4tjuGo9m/Nne++zBg84m5uPegEdHBwc3rwI2mfjbQUm/DOd9Ie6zs6dxfm3OIar1rM5fzbXnhOc7c1HvYAODg4Ob178bZINBwcHBwcHh/MGRzYcHBwcHBwcRhWObDg4ODg4ODiMKhzZcHBwcHBwcBhVnDOywfbMqOQMixvA9lFSn48mCBdt2wz9YZ//ZhHiC6duKe0dTgEbQNhWS1j0twPo82zRZRu3QxCwsZFg25ffCLBdnedb9OAzBNuxCW9Pu5/NfRwc3miMeOtr8uQ5kjh2ql4pcqKrU5oO7ZL63Zst8FTypDlKONIsnDb5ObxgWaMBUr3HZOVb8KT+adf7gxgflC+pX5Za4miQPOuNDKCUPucCOdHTq/X1gv+ID9EZuRa5suXYPmmrHDzlOO+WMW+FxW0gidiZwpf6f6GF16Y9e88wad25BCnpSTs/EAhxvn9LvcXeGAyENJ80P9VigJD87a0OsizHF02U8ufuDyoYHCCpW1z+WMvUPJrj8Y0AMU6IXUPwuoHmAPLT5FxwuZ4/YtFdzzcIZEhah6oNz1g24ZGCVBAE5+M9eMfqTeuku6XJf9bB4a2FES2RyG5JUikyWkI0CH4VX+hLxEYQIwZEVFqOJOiEONrJpGKy85U8zNCVw/AregQyRChzwWpd7IRawCTv80ZvR0zRcjEh9ke8TqKZCy8yTdFQIBBU4ripNqmdKdBCQSDHXPUui65K8LI3A3p7T0hPV6+1ETlaFlycJeRL4RhRTIcDyeMIBkZo9bcDINcpU+edEmJ/OECyMxdcZCvstxvIMp25YJVEpWb4j5wKAq916EKCIGlvBCyAX0P1gEEOhwOaShL88Y4EkmuvOe4CvTm8pRFUuHIQGhktkz/wz6a1OHz/XZY6vvnIHmPssG0iLhIym8kN4cBKqv/qC5MHadkTx03TiaDnFJZumTSjY3wJqvR62HyMrrZPZi8NMVVi0nglGDoQo1OzLDx6w94tAb8ZGJAN8qKE6b+H7v2phVRvPLBdmo/ut6ibREfl+UTcNPIR4nsWuU66mKiGICRE5szOzpbm5mb/kZGBvCbJk+dK+TP3+Y/4AHmIzSmU2q2vWoRKyFtC8SQjcqxQvXT5CB5WP0SnJGcHqyGiWTLRBYuIuERJm7FI3znZ2rFT25QJDljk1PRs03RA2GgTQm17kU/DtC2s7Ux7NMn+pl0HmmAjSRQ3gpwg5Ec5sqdJyg40W4RRPvf9aL8c2tkoNeVtlsQNEEV07NQkS3Xf2uiLagrI0UKK+5i4cMvnAuISIyQpNUq6lax4EU5JY18yM8Wy2ZIan9x6gOyxHCMcV4beO7c43hLLdbYH/w7UB2HJyYcjSpQsMqn/AZwjsmyv1hWkMzIlw+o2sL+hQk/UFXK4tgN1H5NdINUbn7PotEMB0xrRbiEnsXnFlo+FtkQV3xdpNirafkNY9vjCEus7jD8ro/98YslUKxvjoaOmwo4Di6xqpPSExOn9icprEWsDy6VjgwVB6tT59h4d9TUn+4WeY/ymTJptz+7tIpqwf/wFwPcOC2wsdtRXWd9mnojR40lar/FFEyyHDYSZsWBzjt6D9ycfUbfODVw3kCYIkpI8Ues9IdmXMsHfpyHwsUrsaBf+5Rm9He1Ba5MoR5TOT5SzQ0kCZQjMhROZnGZtAVKnL5CoxFQlE5X2nWdHpaTbWE+dvtCiEdftWK/lq/O1izfu9HrGPQSU+c9L7Ofg8GZF0GQDYV14yS2y8yf/YXk/gE1M/dR6KTqxMDn3JxsMovHv/JTlDolS4Z4+b4VOYIkWMpwBxOqeCYvcHkxYkJbiaz8glS8/bhNTXH6xlNz6SUkoKJG4gnE6gS2wwdewZ3NwZEMn0kgd1CTMIrS3b1LzTWxMquNu+LB06yTcroMbojP+1k/YpNxSetB+MxjClEB95rOfkRUrLpT4+ATL3TJcFtpAoB3KWX65lD7xZ1ul5a64WjqqjxvRoLyYV8iLUnT57aaWZfIlfwd5XMjfwcSWNn2RETjU5Uz86XOWW5bYtoqj/qcMDXLEpOnERkIxL1tt8+E9Rigw5aDNyph9gQrDNJ0AF5uAaNi31eoxUQlG0RW3S4pOmjw7dcp8idXVWGv5ISujh4svXi0333KTNDc1S3n5CEwa2kRoKAomJFpI8o1PHbcw5h7QWlx0Q6FkF8dJQUmCZYQluRvh0PuTjfzxCbLsylwLdV55rE3f74TlXrnw2nwjMmMmJ8mclZlGZgjRnpoVLav03jyD+5TMSJHccfFGdILJvULdFV52m2n/ECBe3287fsTqLmvRaslcuFpXsMuNdGbOX2Xko3H/NrseYl14+TslQQl60vhpRjpo76pXnzpVqA+AmKwCSZ+1WIX9LOszaCPpR5B8zAqMKb6Pve4DVjbGX6ISIsYkRBPhXfyO92p7+tT4CD7MdfU7N1jZEcLFei0EM1nLybiPycrTa0lS12zkuOSWv5OUaQtsfKN9gygxXgH9FU0aeYIoH7lnGKeWpM4fYn+8jnfy1aCVIY8S9Vmv15OHKW3mYiMKEAoEL32YMlN23pH75iy/wsYGIB9NINDgFVxyc18eoYw5F0jd9tdsTqMNJuhcRZLJlMmzzXyVoG2IiXGgvE/9EaZjmvrK0rZl3mIR1tXsC18Pspdeajl0aG8IJuMZDS1zJikVeB59JV7nufBoJfNK1JijyCNF+ZjLJtz+aavPOJ0zGe9olimfg8ObFUGbUeJyxphfAB3+TJA6Y6H5BBx54Ndy5JHfWrIpS8bGik8RpSsXVjqhSkoAK5MEXVEAJsqsRWtsdXDo/l/I8RcftUyqTE4jAfcjodyEOz5jHyZPJlImgrodG3Ti/aBNtkWXvdNWJfW7Xj9tpdUfEIvf/fa38vjjj8vSZUvkv/7r6/KJT35C8vJ8WV+HA4KHVSKrLCY96iNBJ1aSwHW3NtrEm7V4rU2gpU//RY4+8nup0bob8447VV5A61RuhIfbRFv21F/kyEO/MRJCYrjojGw7PxzIFxORmCZ1KkhYiSE00PaAsJhYExTNZQel9Ml7LNtvdGauZMxf4TuvkyQkh1wxlK183YOSrEIxPr/EVtEeSG0/ffoMLaz/wDkAeVNIKd/Z0SsvPVguT/7+sGk2Vih56I88JQkXXpNveVMO7WiQnu5eyR0bb8ndyBi77q+l8tQfjlgOmGVX+toOzUZOUZyZbZ6/r1TWP3ncCEhGfqydHw7kQCl98l45rHV29OHfWop5hG9ksk/tT73TB8uf+asl0ata/4wlYsPPAudn/kZ1fuzJP+uY+Z0JGnOIDqIO26vLpFJJCVo8NF4kjyt/9q/SsHer/xfadiqk8WPiWQfv+Yns/8P3ldw/Ydo8NGcVLzxs4+3YY38wjSDaBEgBCFXhZ7l+lOgfffT3VvbY7CIT/gANZrKS0mPaJ0qfutf6ZfX6Z+0cQAAf1XeibjgHiWB+gIwBBHHGgpVy6K93+X73wC/lOAsPHW+YRqo3PCe121+RdiUXaHp4N8arlwuoTfsj8wSkyuvLHiBZGXr/xgM77d6H7vuZ+SyRJBGwMLLs0Cd69d3+YPfBP4R3CgYsUuq2vSqNB3ea03xoPwdVTKP0g/LnHpDSx/8kla89bWOc9iCXEtraSm0vFguQM96tbuurfeQdAkqeniP3/1KOPfEnI0CUfaTzoYPD+UTQZAN1OSuaYBKHDQQcOjFbkKaeQdS4b5v0tLXaCn44hOhqDvNB/a4N0nJsv13LQPY0E8GCsqPG7fuoAPcd77HJmNX6rM9922yl+37/XVNdDgfS2+/atVtefvkV+eY3viXf/e53pfL4cfmXf/1n+dSnPimpqb608oOBpGxogHxp67NswuRdIVhMIqx8IGKYrdA8IDiY2GMyfL8HEBLqpUFXRqQ1bzq4Q8IiomxSGw6YpFg59+oEiZYJooLKPCrt5LUQGTRMrBqbD++1SZpVtgdMabQJz8YRj1UWBMTTkoBnnnlWPvXJT8r2bdv9R84epJpH+B/Y3iDH9jZJxZFW2fpylZTMStEy+3+kyBkTJ5e9u1hqj7fLSw+XWzZagD9Ha1OXZa+tKW+3BHCksh87/WTCwLbWbjm6r9mSyx3d22gmlNj4cEtSNxzQvHXUVVrbkjEWtT82+MDdEazk6Xf4O7GyRSMQkZBiWi1IB6bKZm33FsaOX5sUDBBM7dUVlo0W4ccioVXHXf+VOW1Vt329OXo3H90rrUoCbJwryWnWPgX5ZoWOJoDVdeB47dZr6XNo/9CEQcyZJ4D5dCmRh3BgBuT9WisO2zmANpJ+g7YiWwUtJBvNpufrlTaL7Lev6DvrfFFZas8gQ/MJJQCUDx8GTE68GwSZd7OMyP7FAce5biDTh48Q+Uy9lAutR70uNswc6Qdkiz7NMxkX3e0tEq7jIhgwt0CI0ABT3oFAQr6mQzu1jMdMW4T2hmSOzEXMO75Ejy32N+/G/bhvOOR/7FQjXmQZpl/UbHnRP3+8OXytHBwGQtBkA5umb0vrmW2/wr5ruz78kwETRm9Plw2y4YCwYyB2+YU/A9Lsw0FOvB4YnIfu+7kc+NMP7VO75eW+yQifBFYQmADqdrxmE/VI0NPdI1VVVbrwOiELFiwwPw7K3dExdBl5F0w3rAohGGgXbAWl9Uz6+sj4ZBM6qJQXfvW3svA/fy9zPv99rjShZPfo6fEJEf/EZisglbZoZ4YDq1rswxGJKZK3+joTDvEF4y3LqSexMcn0OdnpM1jNBq4WqUNvpwNCCjV6uAqpkNCTW05bW1ultLRs2PoYCaLjwk27Q6ZY6h00VquQiwiV+ESfEyWmlPiUSNNSFIxPkPSck4I+MTVKxkxKkvf9+3T53I/m2+fSO4ptu6wHtBodbT6TCTwbcolZJxjtAnU5/RP/aWryzoY6I4T0WfqFh66mBm5qfxv51b/RXqBxY4XdrYTcE1j0fwTOuQS+CB21x/3fTgK/Aspe/I73mUYFgYvgI0utB7QILBiAlZ1q8fcZFha77/q6kZTF/32PLPra3ZaO34cQ09rM+PtvSKr+267Pb1GSy3zgaesg02g/vLo5l2DOsbLru3tAmJ8irHVMeb4rtsCiXQLa7WwBUaMvAdPGUHd+re5QYMyHRkQYwQLUO30IjTCLBAeHNyuCHj2sWgEOY0OCAWTzxamzcUdDjTkiekBbgTDr0RWDQQe0zTP+y8Kj4/Vv3xds66zAsIV6IIV6f/XkcEAos2JBOPKxQe4f8Ewkk9/7BSl7+i+SuWiNOW4Fi/DwcLnzve+R+x/4q/zXf39dnnn2Gbnh+hvlm9/4prS0DL/dsFXJBialJl1ZdvpJAw5xPqewJlsh7b7ra/LyP9zk+3zuRnn+o5fYysigxOTUuom0Sag3CMHOBIXdHVNM0ripRgpDVdjhMxOZ6FvhQ4Kob4O2CYKwGyHpB88LbAtWtD06UZsA8iNU67dkfIn/27kBJCAkVFfTESf7WmxChE3invYCc8neTXXy2//ZJTXH22ThJTnmUAqaGzpl35Z6+eE/bZavvf9V+3z53S/Lf33oNTvfhzOQd/ji4HPRfPSA7PzRl6Tsmft82jzI7alDY0D06u9O9HZb3XuwWCrnUOAZtK4G0lamTV9swnbXT78sRx/7g66kHzOHydPLPnDl0PZouV79wu3y0meulfLnH5Siq95tCxZzmp0wy7at7/rJl6X8uQel+dBuIzXeA9rrqszMdLYwgd6vzGgpWDTh/+IBs2Xg9lnfW51Bw58Crh/sHmd2784mJZw6H2LWMbCoiInV6fMkOXJweDMi6JnLFzvjJVvpMJEy8eG41F91hwbE1MA6ofA7bzVQv2uTEpVpPmc1vRYHLlbHqAhBJ6tlnVw4xr1TpszpuxYzAarOlClz7VxsbpEKwwk60IKYtYMAKwp8OZhs9v7uf2Xfb7+l3/8uKLUkDqI/+vEPZdbMWfLhD33ESMZ9f/mrdHZ2+ia6INBeccznF6F1jJCGWGECQf3cUkYMgVpbJWMzx66LMEfN7gFhj0c/qlQ0FZgwdEYacMUaCAgEzotocXZ8719k6//9k32OPna3kZ2+Z+h7mH+L1j3kJGniTGk84HNiBKxCE4rGW9vwHqyKaa/AWB13vvdO+frXvyaXXXaZ/8jZo7aiXeorO82BMy07WqJjw2Xa0nQ5sLWBIp+E/l1f2SEbnqyUlMxombMyy7QTR3Y1SVpOtGQVxtm1kdFhEqX/QljOGtY1Q4zEQc4QCKjpzS8pQomZXwMwGBC2EHScoRkzrMbZDUTbjwSYK0xFr8KU9hmJXT80LEJCtb+hIcPckTRumvW/YMBzeB6/Z2GBicbTEBh07CLsOU/dsCMLJ1mPTOGHkbXkEqsv6o+5hHfwNCcAbZrP7JTse7cAYgZs1a+EPTazwK63suj9MQdiZsTnhP4MAUqbtUzqdm30X3lu4NP2hfjaj7lQ+8LZAk0SZlLMcrwzcY1wgu2srdT3KvX/ysHhzYegd6MAbIOohAsuvlGyl15ik0GorhA8D3OAoEybtlDyL7pOci68Quq2vWYOmNimcdAsuOQmyZi7wrbDcT8c0mwCUuGYOnWhZC+7VD+X2YTAYMK0waTBYMK7PPeCKyRVBxeEpkUnsKYDO06q+AcBgxx7MLby2u2vGXkJRKqSGGJa7Pr5f6qwb7JnM8klq1DFkXUoQCgefPAh+zQ2nlSNjgQeQSh9+j6bHCFqyCpWfl3N9Sp4jluMk7yLrjXP8/yLb7DYCayWUZ+a13psouRovTEJQToq1j1sNv6hwCTPlteuxnqp2nDSeQ8hgMc7/gKsAPGsZ8cCbZ+z4mr7/cF7f2L1yNa7pPHTzRcBL3scCHFCrNrwnG8rox+Qr7z8PLn//gesnkaCMCUGmfmxEpcUIdteqtH+4KtjdqUQ1GvqwjTbVbJgTbaShxi553t7pbm+ywgFDp4hoSGyZ2OdNNR0Wr2OnZ4k9VUdUrof7csJWX5NvszR69mJsvTKXIlPipQ9r6uQio8wf4+yAy3m7xERFWY7WqrL2sy/Y6im9jlzhkrm/JXm3IwJwfpGT68RsfbKY9bmCMDq19fZNQhTTFrmqKtEEZMUuy5yll5mO5bMF0AJSM2mF/1agOFBW+GMmLfqGusbjAHrFyrsEdJosFhE9N8qDUnB1EGfok1p24oXHlLhnGxBqiJVSNvukN2b+0ysfG8p3W++Eozvie/5R+unzBXpM5eadqNeBTraRfoY4zlLxx33No2PzgHMJfi54CvBThHbCcXztf4StW4YE54mpqulyerL925rrUxo+zxTE5oYzBX5q3UuWnGVjRM0tLaLS8kQz2fc56261jSs+377v9anIS0pSn7qdm60stBGEBM0jP13tQwFtFMxSnQK1txoz+pq8PlfJOjCgM6DHxZzGySe5+GL5WknGJvE2sFc0nLsgB3z0KLvUHDJLfrOF/t2tOiiAKd7/LkcHN6sGHEEUVYGTIqxOlEyENrYbtVPDYuAwpEJj3Vs1X12Zr0WbQiTSFv5EeligguYsZmwEJQ+56hm0zgETqo4qLHix4fAU3maqj4IAe/z4g+xCbw/eA5CyNTEfrCCCgkPs9+fCYEYCahTe1e/WYf6Q0D2dmOG8D2bY5AQC/JTXWHb3Lx65d0oL4IgUkkBDri+VdVw5dbVpV57gv8C4gBQT5AY6hanRnbuvP7ljxixYIeMb3uhr81TlawgDMueu1+6lRh1tbb4BGXg/c4BIA6hWq7u7tNV/vhlZObHaDc8ITUV7dLdefI3EBUa14upobewe+EG4fl5hIX7yExCaqQc29ssbc2+Nvd+C6mxLqDfw5RAQFC8a4eE3oA+HZtVYKp7iwTLjfRD3XrtZu3u/z313kvdUUAFgg/NUXdLg3RiutIyDNSHh4LXv9Bk4ReBn4bvhL+dtR8N1MchBGzd5NqmwypkKXMo/VTHpF7LceuDXMt3fHRO9FjfwPcCIR2vZIbnNx3a4yM03nP0PFoFttCaQ6T2aX7HtTamfT/ya1XG+f1G9vueFwjeQRcTvJtnJu17hh+mQVGBDhDm3j0oX2zeGCMBXgwPH3waKfw2zF/G3k3nD3+7jQS0b1h0tM6FsUa+8ROBhOodT8439g4RRnT62oFj+ky+D/RM6p5dNYzf5tKDp9eLg8ObDCMmGw5/WyA8PWRj4398yFaJ/eGRjaOP/8F8EhwcHBwcHPpjaMOxw988MOuwa6e/6ckDqmW2Mw8XWM3BwcHB4W8XTrPhMDT8KuRB1bScDwn1qZv7qa8dHBwcHByA02w4DA1sxkPZgz2bsiMaDg4ODg6DwJENBwcHBwcHh1HFeSMb7JW3ffQODgEgC2tWYax92NrKLhyHNw/YIkqSM20Y/xEHBweHkSMon43kibNtP/reX3/zlG1Y7NPPmL/StnQdf+kx/9GBwT7y3FXXyPbvfsF/ZOTgeezJZwtoxbqHLF/CWwmUPW3GYjny8G+l6fDuPtMDmV5T/dkpAfkSKp5/0PbTA+IIkGY7EKTIP/Lgr/3fzg5s7xw3PUkWrs2RiEjfVtgtL1TL9peqLY7FaCFEecWE2SkyeUGa5TjZ+mK1bFlXNeJnkg123IxkK68XOfRcAX8VgtGRaZRYJIM5yr4loQQiLm+MRTplPA0Uu4MYKkVXvEu2f/9fLN+Ig4ODw5kgqOUK+98JJmUhxgNADIFEwlr7c3QMhfD4BIknsuVZgBgdkBuICyG230ogBgZp8YkCSQRO9vh7ILgTBOrYo7+X4y8+YgG0iq6+U8hRAmq3r9dzd9sqE4JCoLOa11+wc2cLEoqVqKC+6KYiOX6kVZ7581HZ9BwxB05YPpHRBFzr6N5meeGBUkv7npgWeUaaDTK6kgI+IvrM8vYMBeqcJGGEcscR9u0EYjTE54+T1CnzjVQNBNLRH77/F0pEzl1OGwcHh789BBVBlBVo7oVXSeVrT0l3y8lonQjFlMlzLOMjUe4gJWQQzZi73ILsWOIovyaEFVTK5HlS+eqTkqHEhTC7ROfzgkMNBwIgMekT96H58G6JiEuwCH96A3su0Qt7u7okvmiC3b+jplJ6OnwrMQQGKaQJ9UyQouSJs0wb0z9q4kCIjo62zK1duurr6QmurAMhsXiiRTsk4BVB0SxPhj8vTPqMJRawjHTbBMwi8FCKkhLKR90SIZVkVeRPof4rXnzY6q4/CJ1OKveeEQTUIhnZkstzhdTsT/z+sNSUt0lVaZtFyUTD4Pl9Ejlz3upsC4BVV+kLCkXCs8T0KEnPjZaCCQnaT0IkLTdGCicmSHN9p59ARElKVrT0dotF6CQUONE7vfvym7ambpk4J0XaWrrl6J4m6e46tZ55ZsnMFJk8L80CdhEdFGB2IUJoycxkySyIs1wnHCPwVqve0wO5UKYsSJPCCYn6rC5pbw2ifpRYEHY9qWSakUNShZPsDg0HgaO8UOyE3Q+LirXvuSuvVvI9WUjvbkkCtT4IVU2od4gmwe8IQe/1+eiMbIlITDVtSeaCVWZmJPomfdoDga/SZy2zTMThSlDJlNoXfErLmFQy1bKy0v8pX/8+HRoZbX0pc9Fqa5+OWvqNEkm9L++G1gay215Tbgn/2FXkRX4laibjhsBf7dXHTykXYFwRgZRIo6HhkfZ8b7xHpWYogU63eshcuMqIc2v5odMCADo4OPxtICiy0d3eKvmrr5eGXa/bhDfnn39oEx6R/yAbpEhmwhx7/Yfsd0S3I+R40viZUrdjg6lnIRuEFCaUeWRCkoVwji8ab0I3MIfGYCB0ORMuIYAJ84vghuAwwRGCmcBThAUmJDpp2cfe8CGLpEloYkjRmKveI4WX3WqEhck198KrLWohJouhkJSUJDfceIN88pOfkJycHDly9Ig0Nw9PUvojbdZS0wRRVyS5qt3xqpExOzdjsYUsN1OUTugQqeQJM41QNB7YYb8BhG2mnut2rD9N5U3ZSGm/YuUKOXTokNTXn5pKfDCkZkfL7AszZfsrNSboAREyibjpEYJbPzNZll+bJ811nbL08jyZvixDtjxfbUJ8+TvyZfFluZI79v+3dxYAdlXX+l8Zd3ePuyfECQGCu0MLpUqFevt/r/ak77WvRuW9UqOUulDBneISIe6ejLu75b9+694zuZlMZu4ASYHurx0yc++Rfc7ZZ69vr7X2+uJkxeW5kpYVbYY9RA1+5eE2mbE4VS55/3hZfEG2HWvRedlSMCVBdr9Wb5U5AWSWkuNDkY3YxAj5+B1zTf8E0rH0khyJT46QA9ubJFMJxsxlaTJ2WqIkpUdJrLaHz3q17RV6brw242YkyXv/fYaVMU/OiJTFF+ZIV3uvVB4ZPiRA9dgE7Uv0YzxykOPwhCSJzS6y0vumYKwovORW0+mZcNOntI+P9Rno1Exp2LHeSO2Ed33Kch7Q4shddYVEKzmh5DXluXP0b0JkvDP075wzL5HozFyp3/qqHRsyMOGmT5o+CiGMzKXnK5lotz6N0S685BYpuvx9JrhHddc87f8Ye8g4wIs25b3/KskzFlq/yTnzUt1Nvy/eq9dRIDlnX2EkBfG98Ng4ickZa++TER5FphKUjMWrJf/86600fmCfwxM39or32znDY+Lt3aa6LaFNCA/vN+X1Cy640caD7JWXStLEWTbZcHBw+OdDcNooanXS562wEtnMWJgNjdHZUWvpAZs1UdOfWTdlhQ/c+yMpe+ZvNqgUXHiTzdSRUGcgQjBo72++K8WP/c7ktslDONrbbb+PBLRQspdfLI1KeDpqymxGxSyxveKIzbDQ7WBGueeeb1r8OVQ/Ixei/PkHzZBjqDEQO3/y71L18hM2i4zNLTTp7OFi0R0dHbJxw0ZZu2atzJ49W26//WOyYsVyqayo9EvKjzxTIzkWqW1Kt1eteUpJ05nm1WBgxjhANsLjEuw7SryjI5E8faHUbnzRrs/DANlQwjKYbERFRcrUqVMlPCJCXnzxRWt3MCBXYvbyDNm1rs68GYMxeX6yLLssR378L1tl0/PVsll/yO1Qcyw1pR2SPzHODPumZ6slLilC1j1ZKXV6nJTMSCne0yJZRXEyf1WG/OzLW2Xt45VyUEkC5Kajtc/0RcBwZOOKD4+X7s5+uevftsn2V2u1jZ0yZUGyEp8eObK7WfZt1tm0cpbwyBB55J5Dsv7pKmsPgAxd+oHxdm1//b+9svXlGiMsRUpOCBlRlvyk0OdKf4c04LlA82ef9t3ajc8PEA2QNne59rMrZNPXPyzFj/5OKl582AgljcKLQFgMElm76UXLwcGD0XxguxVDQ1gwS430+i+9S2rWP2skAi9F466N5s2iX4RGxcrh+38h1do30BZp9/cZ0Hxgh5Q+/Rc7NoXXIKq8j5DxECVLhZfeaoR732+/K9VrnzbC0E7Jb702yv0bqenttb63666v2XvsEQ0A0WX/DG0T7/RAn9MHFlcwUbLPvEwO/PGHet2/1bYfsVArnhf6LESJPr/5Wx/Xe/CETToKLrhBz7nWFYBzcPgnRNBB6PaqEolMzbJBpuqlx3SGVigR8UnmdsVVin5Dlw6glLQmkXNMaLjppkRn5vusiaJPB6vGvZvtd5RMEXAKRlmV/ZlZxuisr638kA5WzTZgMstEb8VD096tPm0ERd22NRKZlqVtSbS/Gbzbyg6bNgGDdVvFYVO0xNswEiAUJSUlcsd37pAbrr9RHn30MfnUpz8pd975Q8nMzPRvdXKgYYBLHuPFjBaCkzB+hpEkg15f4uS5svSO+2TxN/9kM92K5x+Sus0+ga5gUFtbJ9/73vflq//5VamrOyaVPRKY/ZOK4HkZBiOrIFYqDrapYfaFLnqUCBze1SxZhX6tid6j0tPVbwShs73XJN17uvos0dTLv2hu6JaKQz4CAKGoUTKSnnNMkn44jJ+ZJHs31ktsfJjEJRIiUiPe3m/hn5GAimtmfoyRHla9xMZrn2xTQ62XyvHeLNTvWGfeDg8DoUHtm1HaBxEzm3jjJyRPZ/qx2YU20/fQfGiXeQ7pkxAQgEorwCizPWFBn/Kr9lX/uwTQ04B0I90+QY+fqhMCtFTCoqL1fcwzkt2wZ5N5IA1KgAL1f14vOK/pveg71VK81z5rLz+i7W2UqNR0awNoLd1vYmmg2x/+8d5HBweHfy4ETTbwUOAeRlipQWdOXQ1VkjhplvTqgIgwU2h0tCVvTr/96zL7s9/VnzskKkUNMXFeHR8xZXgxPNEpKxSlgzIhkJFAPBh5bmZ56fNWSvaKS0xuHal5RN08mHKkf6BHipkYtUcmBkSa/DiqxIdBE1I0EjhObGysZGVlycxZM83D0d3VLVu3bZPOzpFDQDHZBRbzx1tBOAfDgWQ8stMGNQKoXa791xtkzf+7VtZ95Radsf75mNEKEiZ+FTq6JElyJsjNOJmsemRsqF7rsdwNHiTkIko/9+CJRxF+4XHzFytcPLvYqQTDg4mYKUGJiD5mcNndO/wxU+qzq5CKs67Jlw/810z7ueyD4yyRdHBexwnQfSEYccnhctltEwb2P/OKXAmLCNFu4p3xjQNDOhgkk+Ltm/bh/zRPYNOBHVK/e6P0qIEOTDTt6xzkTeJm+G8cMuvFT/xBkqbNl1n6Pi34959bv/GSOcdf/zGZ+v4vmrBa7daXpeXwbt++9AOk6LX/HO15k1bPeA9TwfkRNuOd8kTdGAN4t/ECkeMB+uzdOHaf6SfvtCRbBweH4DAqsoFMO4ll7eWHdCZXIfFjp0tXY62gMIqnAlft1js+I6/9x/sGfnDzMigxVIWER0lEYqodD68Cxp7Z0EjAA5A4abYvVm1j3lE7H9LKVgPAD7wk3qwxOiPHvBiELkBIRIR5Ymyg1oGT64Cc9HcPH24ICwuTgoICufKqK+Rzn/+sXH31VbJp40b5zGc+Kz+680fS1DS8S5iwSAweGAXJnSS64uFgQE4YP21g8GVm60s87PYRsVEiMjJSpkyZbEQoWolfsCBZsrmuW7LHxh63+sQjC0213RKfFGHJoABvRUJKhDTWBr86gf0jo30GkuNAVFoajg8DQUBQaA20RdjdikOt8uIDpfL9T2wc+Pn5v2+THWuOhTLwyuChOY6p6L7N9d2W7PrAT/Yft/8f79ht8vLBwFQ3lUHxnEhEHgosFR4MJMLJH2o5vEf2/vZ7FlbsxPsBgTSPT2BjhwZks3bDC7LlO5+WDfouNR/cZXkUJBMDW47+ux9IyRN/lMZdm6SnpUmPyn0YY2ESiB25FYGelOOMvTbbCK1d29Ak1VMiDvV7KwD9k1CSvVN6fEDSMyusupsbzYPp4ODgEIihR88h0K5kwwbPgzstbNJRcVii0zItRsvfLToQYsyJSUMMSByldgThAwZWhmPIReaS82x2xqyP2VFL8X47/nBgQCMBjpj4gT/daT9HHvq19La3WcKdyccrSMhLnr7AEuOyll5o7m0vH4PVMaxUSZm1RFKmLZD4cVNNyr67ZXiyExMTI3PnaXuTU+SXv/yVfOmLX5bHHntcmpubzRCNhOjUbEv6q1Iitv8P/2tt3//7H1hcPVnvQWAY6GQg8TCFxFq9l5Epmbb0l3BWIFJSkuW666+Xa669JqjQjofm+i7Zub7OVnXMPStDJs5OlknzkiV/QpyFIYp3NUtUTJhMW5RqiZisGskqipUDW4JLQAV4Euafk2nLUyfOSZK4xAgp2Xu8gmxtBXkeUXr8FN0meYDcbHimSmYuTbd6HL799d+piea18NBY26kEJsxCLhNnJ0l6ro9sdXf2yd6NDTL/7AxhxQr7c5zc8fF2bcGAPAXCfdx7Vl3Qt8gfGgmQR8IjJJWS7Gt9fvpCCyPg0ToZcQlElBJpvGGJE2Zqf51mn3XW+1Zw4cXqUcJNojS1MFJnL7H+f1S5Bt5CJgMkivKepS9YaTkUHCs661hhvaP9vdKl1wZJSJ2z1N5ZvJeB6G6sMfl1W3I+3ZeXBQFpKz9i94bEUO4J30NkOnRCQF6Rg4ODQyCCSxBVsM6ewY/CRiS64Z5lkGrY8ZolwjGTwgORoAMfWfzkJMSpkWw5stcSOVl2yvfMshgUo5LTpXHnBp+iqD/hbWiMUWOdY6GUmrV/t3YAC93obItlopyf5YW9rc0So4NpwrjpukGflDz6W5vtEUphwA7RQTg6Ncvi3JAMZptdtZV2vJOhu7tb9u3dJ2vXrpXqqmqdmI4utEFtEO5Ty4Ed0lkXcC4lKqxAIOE1Qg1Sb1uT5ZwMBYwcq1mO4vXQ647OKjDPSOBKFZa7EtqprKyU7du3S29vcN4RvAJ4AGx56axkWylC3QqWjtaWdUiDf5kqqzry1EhnFcXIoe1N8pqSACbokWq0ycloqu3SY4RITVm7rWThh1wPiAkrRAjXFOmxWQa7d1OD7Fpbb8f1QKglJSNa8icl2D77tzTYMtfK4jZJz4mxpM78CfG2xDYyJtSW6HrLW/k3MTXSVsRkFui5eo5K5ZE2u7a6yk7Jn8h+CbYvv5P3QTJsd1cQz/Jov3nmWPLK8k2WupLwTH8HeOqY5bPCJBBH9f5jjMm5SFCiQD0L+mlnXZVuu99WGuENgAw37fM9d94P+iqJn+RD4PnKXLRaSf5k69N4KqixQm4HRJfjQ2Ri9diELPE+sryU2hg9SiK69FyEGSEacQUTbLJAGwaSQPUYEINw7aOQ15isQn0vGnweGD84B0vKE/V9TqC2TUjowISDUCREJ07bRz+v37bGSDT7kC/Cv1wL7zfkCs9j494tQXkzHRwc3lkYleor3gFcqEYOdGaFwWMgNsVPoJ/h4rU8CjXKzMIsT0IHNQYbc9Xqv8yeettabZndwL7DgP34gWAEwnMP066Zn/gfqXjhYWk6sE1Cw3VmV13qcwErSNJjmSBhGEI9hHOYrTFgnmrYDFbbbvcsgKjY/dD2MyDbdei9O9mMkO9PcHPrsfr73rwZJOGRKDXihEjwCDTX91iypwfCICwfbajplM5W7QP0GiUbFr5Q8Bi5VC5RL0WPBwE6KksuzLHVKz/83CZJy1XSpcSkvbnHt/8gELrhPNTJaGvRbfx5FbQtOjbUlreShNpU1+1rW8AxaAf74xGxJFUlKh4gUpa/kRRh9T+oMnqyhNiTgfuPZ04b5zO0/lCX1weHDH3xPkRFW74O+xBy5N74clvUAOux8FD0e8RQf+edsiRO/ztDsihEh74MeQjMO2J7vIkRSWn2ndXY4MZDkPx9jXaHKamJSkk3LyRJp4Nzgez9svwl7aeQiyH6oREhJcf0V8KmBj0/y17D4hItMdySQf3vsx1Tn8nAtSk4hv0dxDvv4ODwzsI7QmKeZLiZn/iGko2HbPne4MHSIxt4ZEqfvNf/qcPpADU4IBvf/+QG/ycODg4ODv9sCDqM8tbGUXNHs6TUXLSDp836N7Mx4sne8kKH0wO8DPWVnQO1LxwcHBwc/vnwjvBsANy2FpIZyj+vwCVtXzkX7mkFYQNzp48ybOHg4ODg8M7ByCnxbxNYTsRJiAawOLUjGqcdPBJHNBwcHBz+ufGOIRsODg4ODg4Ob004suHg4ODg4OBwSuHIRhBgyR/6JtRFcHjngaWxeZPiB5bxvhPB8llqzQzWIkLHJDoj1yrqvhXBMnnK+zs4OLy9MeoE0ZSZi2TqB78iFS89Igfv/bH/U5Hcc6+Woiveb2v1pf+o1dDY86tvSdOeLZZPgb7DjNu/bnUFyBokmbP5wE459Le7rEjQqQKD66T3fF6qX31KqtY86f/Uh7FXfdAKbpU89nurgXAyoAGDJD1FwOq2vOL/dPQYe9WHJOesy2TXXf9laqKD6x2cblBT45pPTLLKoAaeDfDnvvzl//aa0ioFut620EvKLoqVBedkyosPlEljzYm1VfImxMt7vjxN7vnqDik/GFwZ87cLqEEz4+Nfs6Jg1Nlg6TfKtB4oCDbumttMh4U6NacTFALLXH6hKcuicDwUprz/i1afY+dP3gGL5hwc/okx6qWv+RfcaJokkYlpUvXqE77ETEXShFlqpET2/urbcuTBe6wq5tirP2Ry211NddJVXyXlz94vrYf3SHzRJNn1k/+Usqf+bJ8Pl9gJICghtppk9EaP0s1ULO3v7pSm/dv8nyr0mFlLzrMiR1RwpDIp5ZZDIyN9xY0CiACzq/iiKVang+JJ9v0ok00hPciJRyamSHdzk7SW7LMCScBX8Ex/uE4dWM3oB5zfCiTxPz0v0vl2v05yL4zMBQmKd+1YUycvPVgmezY2GPnY9lKN/O7bu80wVx5uM6LhU4aFIIrpp1A4y5rnbwLfhetnVmKc8we0je/Yn48oW47+iVesywO78B3Htm0HfU+xrvBIvfYw34qioS4d74QpzerBPJE1jku7csbHy6xl6bL7tXrp6uiHfwwcg2O3t/TI+ierlIh0DnlsKxbmtS1gA47Pd3zCtYeGn9j2YMCzpxquFckLvLFAT0KfGBMW5mt04Pm1P3C9x/qN3n+v3/C5Ho8Ko8lT5suOn/ybFD/8G2lFpdV/DM7LkvC6TS9J65G9eu7jK/l6fRKE6HtkRc387fP1WQqdUZCObf2/27G94+sz47oG+qzXp319GYHCtDnLrAIrsvS6g37nvz6uSc9Xv/M1qdv88pAF72iD3ZsQvW+D3kcrhMe/to1f18UliDs4/MMwKrLByz/++tul9Ik/mCZDuxrfTn+5b8oZ46plxs5neDQQikLszEoWU2m0r0eNbrppRFSvfyYoogFS01Jl0qRJjD861vVLzyiULGlzXMEk82A07dlk1RZDdfBhMELPgdLRLUd2m14FirZoPVDWGTVLBmLaDdmg/DqfxeYU6e/TrRw1VROD9U4kTZxlg2tb2UGJSsu00uSUWgex+eOtJDUaMBkLzzZiQr0QhOQYsPGsRCanWblsyrKHhCNg1zxAVgCCcRkZGZKUlCgdHZ12n4IBZAIF1ejYMPNwNFZ3yoGtjfaZNzZnj42TtJxobcsYWXphjumLIBWPgBsEgTLhs5dnmH4KomtdSmJQkmX/dN2vcEqC7TtzaZqMn5VkVTy9UuMYaY49Q7+DEKBrQvn0rnaf4YuJC5PJ81Nk7soMK1mOQe9o7TXlWcD+lECfvEC3OTNDkjOirHQ6RCpa96VNlCjP1TbSZralx7U1+foQpdlpX864WGmo6jyu8ijkIj45QtucbO3j2JyXa4PQpOqxCiYn2HbTFqfauVobe6S1Ofj+yTtD38pcvNpKf1MF1KsVQzXeuNxxkj5/pWmrYKDpM17RupSp8807QJghY9G5EqX9hqq9EGcmBIkTptu7Fpc3zurQ8L29Py2NZoQRMTS9FP2XY0K8A8F7EJmcYe9GzqrLJXXWUuluqrE2UPKfH8gM7xR9O3nKPOntbDPZANpOv81cfJ7ptqDYTAl22sG7aPtOnmfjCO9imH7GBAUhN4gFhfrS566QWL1+wpiBJdQBbaKce8aCVTZ54T1F6NAjTGlzl1kbeF8zzjjHyqdDaoaqjurg4HDqMSqywaCYtewCC30wuKDjgBYCMLKhg1mjGnQGMwSnspZfbGJQzft32ODJLCkqPdvEoXCbotwaDDLS0+UjH/6wLFi4QBITE6VXBxak1Lu6ukY0qmNCQ0zzgbg0aqsT3/UpNdoTbOBhAG/S9qNXQYgja/mFpisRmZgqOWdfJT3NDUaoIBtI28cXTDQDjyhcpt6HtrJDfnnx4QkTA3vavDNt5le37VUdCFcoAdtubm2Qrecdd+WHJCojR3qUwKTNXW7Egm24b4WXvkfyzr1aB2A1lHrtuedcZR6bpr2+ew8QX/vYxz4qS5ctld179khT4/BqtINBKW/0T5rruuTI7uNF0hauzvKJtClRiEkIt+eYlB4p+7c0GjlYuDpbYuLDpKWhx4TWpixMkdK9rdKmRnf64jS58Oaxpo8CgUEMDfKwa129/Z03MU7Ou6nISErlkXbJLIgxYlJd2mFLZifNS5FFF2RLg5Ig7sX8VZkm2HZoR5MZ/ElzkuWCm4uMsKB3kjshTqJjQqVkb4sRqKkLU41gpGRFa3t6JTo61MqVN1b7NF/ylIhANlZdWyDbX607To0WosHns5alGTkpmBIvUxYk63k6pUnvE6J1q28qNMKBei4Cb1RL3fpizQAZGg7kAE398H+YkTYl4IhISVDji7orGjjo4RRedqsRZrweOauu0HsTZu8U/WDcdR+xfhWTmW/3BiKKYW7et80MN4acvg4ZgRhTOp13rquuUp+hko3MXEmbs9xIBEQA70YgCB1itFP1B+8AbUAIEO9Iwfk36Dvh69O5Z19px0akLUxJBYQakpC3+hojT3gDIdGQppqNL1hpdN4lCAfvpT5oPZs+DO1X6LtQ2p3rwOuRNm+FiS1SGdgD3oycsy7X419r7UZnKf+866Wj8ojdR+7F1A98WRImzrbqwWN0+0ydWDAxMBl+BweH045RkY388661gaDipUdNBZPwRN2mF3Xg6zWyweCB0iWzraylF5jRpoR4Jx4MxeslG8i4P/vsc1JRXiFz5syRhQsWSEFhvimydnZ2SlvbyatTjtH/4U2hfR1VxdrmuTZzZOCBRDTt3SKRei15asB3/fxrUrPhOQv9MLgymJKnwXZJU+dK7Ybn5fADv5CGHetMOXZMaLgJcI2kchkRn2yDbUdNmdRteNHUM2kXInV273R2yL3b8cMv232B/KDsCtlh8ESIjd8heTXrn5W+jnbJv/BGKXvmvgG3OWGm6Ogoqauvly2bt5iA3GgwHNmAIMxYkmY5HC8/XC4719XJwW1NZqzROdm/tdGMO2EIvArTzkizv+vVoPu8Hmnyi69ut5ANAmkcq/xQq+VPIPwGEdn4XLVsebFadqzVbQ636wzUR+AQXNv2co1VIa2v6jK9lYJJ8Xb8XjXoZ16ZZ2Jxj/36kOzZ0GDS82UHW82rgnfjwPYm+zerMFYeveegEYr6qmPhEiToCRfNPztTNr9Qc4xsjFECVxArC/TzZ+4tllceLZey/a0yQQkG3g8qoqbnxti13Pu/e2XrSzWyf3ODnHFetl1bXUWAhslJgFx8hhrBzd+8Xeq2vmqihngG0T9BcyRz2fn2jhy6/27rl4QKUE2uee15CwuisIzna8edX7JQYEhkpBn5hp3rbT8MK3pCMRl5cvj+X5jBhmgY9AZAdjuqSkxVGIG2wWTDlGpnLJZ9v7nD+hp5HRBc3o2EsVOltfSAfYb2Si3H1vcclds2/by9/JDJ4xMe6Wqsk7aS/ZK5/ALzclLJF6JuQnFKBgiTlD71Fzu/p1fE9TXs2mheF5JXA8lGTHaheXK4Z8WP/FpqN70ksTmFRtARd8R7kXPmpdKp79uee75hgoWMV3h26rat8R/FwcHhdCLo1SjMJlJmLlGDWW4ve78as8ikNBvcPOBOTVFDSngiPC5Bih/7nQ54e2xge6PAi7F161b53//9P7nvvvuksKBQbv/47TJ/wXwztCcDolbdDbW+rPusAlNeRbGTAZYwSV9nh8Tq7I8BCnVMBnMGMsIWkCaLNyuQ8zbVVr0W9uE+ROk2hDRGAl6gCN2WyRuzTIhD4uTZEhrhO7YN/I21flJ21NzZuKq5nx4YtJHUBxiR8LgkC7t4QPL+/vvvlz/8/g/S0tLi//TNA16D8kPHSJ2XF4GnY+rCFFlwbqbMXpFuxCQqNtQE1bzHggGHhACUXDH+fA/q9LiEN2YuSzOvwJwVGUp88J7Y1yb+tvDcLCMDhGEIe/BleGSIxKdEmEekVElAe5MvLENXezMSWn0hFJ7tUakua7fP8K5wLXh1vPbjvfGSTnv1vB2tPeZRCQaowfpUUD1y5xNo4yIwsDxj+hmeQtBWvN+E1/AiGHS71tL9RpxNIK2l2forff3NAl4UyK/dWAUeFfuXc6JCrH/3d3XY+4PImuVKKAGKSEq394gEUIh28swzbNuw6Bjb/40Ar6m2wMiNtYf7oPeGSQGhJgAxgwyZOq62DeFH7ovllTg4OJx2BE02IBW8zMSYmTVYDDksXBLUQHtoKzkgRx76pez99Xdkt84oTBQtIK/gjSA2LlaWLFkiV1xxuf1bUVmpxvUB2bNnz/ChFB1scOXiVYlJz5VWZns6SEIAIA3klPiS2yJseSsxXr7D41D1KqtXfFbPEgP9Ay6whDQsomcVTwbOq8eDmJHrgfsXWXLL0TAy4T9+YHKenceXhOfBlxviP7//98DvQbgaGrw9pwIkUXqn94BBLpycIGesztIB/ajs29xooRXyMbzEQoDkuwe7Mv2P9z0egpcfKpPqknYLhay4PNdCJSRkAv4mR6TiSJvsXFsnxXta9Lp9+3N+bh9JmYOaNjoMsTOt4xz22P3dy9d2XzjQuzpCQQNgWzbyvhwJ2u88430CuD8cxw7og68P6Md+g8p3RwPyl47dhWAbEICT7GJKst4NOAG+8wW+G96dMa/NGedIV1211G5+yVZx2X2zJNBRYKgbyr0BgffG3keOfWzbgbFnoH18N+hYDg4OpwVBv/m48pFor3ntWcvLaNj5ms16SCILiYiybXjhbYajL/lJB9HXgfT0dLnllptl1dmrlHTEyf4DB+SPf/ij/O63v5P9+3RmFzDoDAUS5ph1RSpZai09ZJ4Dk/1WQgHZwMXb39Mp5c8/KAf/8lP/z8+k7Nn7zJ0LmFFCtBjoTEY/JVM6G6pNkns4EJePUQLTXlVqISfuHUtwiaGTXEd+AuMfBIQfQDIbCXKBonHkiZBkB0goJQkvMAxFLstFF10oF198sd2vNxtD3WJWYiSmRUpHW59seLba8igIc5C0yXfBDOwcF8Lx/N9K5JF7DsrezQ1SNDXBEk/B2GkJtvx228u1Ul3abgSD77AreBlIyMwqirVEUg+seBmAngBCgH1itcpQwNNCfkhc4jEvFZ4bEllBWravfyemRkqsboOXhiTYN4qWQ7ssr+K4GhcYZCWR5t3SZ0weFDLzIDa3yLwgXmLxmwHeU/M4+PvWYPiIhP+PUYDrIrRTveYpu076go0Toceek8nyc706aTkZ8D7iJQ1ET4tPJp/30SNesTljzQMzpNS/g4PDPxxBkQ0GP+pr1G9dI9XrnrEfZv11m1+RqNQsiVFDOBLwGrCSJeesK2xGn3/BDZbgFUzBnj4dDEtLSuXRRx41kvHUk09JZWXl8B6NAPR1d1viJbavo7rUYsWQInIf8G4Q6mk5vFeKLn+v1QopuOhdMv66j0jWsov8R1DoLDRl1mIZq9+TTEq2P/FnVowMB66PjH7IWdWrT/nu39qnLbE2edpCOy4gCZBjkxCYe/ZVNqNsUTLngUQ/7lnR5e+z+1b56hNKhI7VjIiIiJDxEybItGlTLXn2dAADjcFPSA6XM6/IlXNvKJCZS9MlIjJEYhPCjjf6J0HhlHg5712FsvLqfDn72gIjGtS66PV7Q0oPtMrsMzPkLP3+3BsLzcvBSpWomDALv+xYWys5Y+PkwlvGWv7GBbcU2coRD9hKvDKQh7Ovy9ftimTi7CQfyfMD4nBoe5MsuzRXLn7fOFl6cY7tRy4IOSYrrsiT824qlNV6fpbflmmbCAe9UTDbJ6Q34Ybb7bkXXHyzPtvrjFxAKJr3b7dwX9EV75OxV35Ass+8TGqVsPZrn32zAKkhREei6fjrP2arYt6MAl9tSurxflqf1faT4MxKGUi7B8gyIaLMRefKuGs/YgmphI4CQZiJMWbCDR+39xLPI+FMcj5IbC267H1WJ4T8sXq9n30B74SDg8NbB0EliOL6ZMla/fa1NjgZjvabASfhjLgyOQcMWu2VJUOGTpi94BEg27xRDW9HdZnlKLBM1vMenAwkge7bt18qKiqkt3f0Mxdmbl0N1VY8rF0HKQZyEuOaD+7wLYfr6dK2H7ZBnByMsOh4S8xkJYrFhZWYtFeW2jYkx/XpbItBH7IxUpgIk8Z1th7a7SM8fnQ11ti1k0FvlR2T0ywJkCV97WUHLfGOe8UKALxKdp+rii0mTlJr9dq/2zPxwHLgsrIy2b17t/0bLBHzgEeC5FCMK96CQGDcq4r1+Vce/5zMkLf22PbhUaHS031UDu9ssoRRCAOeAZaJsi9hEgBBaarrlio9Dys4wsJ9+R0x5DnozSre3WyJpKwcYUZdW9ZhbYtUckFuxP4tDXJQiQEJmJ3+5beNtV3aL/olOi7cQjgVh9VQ1x97LqwMqdO2c8z21l5LNG31EkH9IFGUfAu8IFxPlbaXBFT26+nq0+cQYgmwJJiSAAoZIlG0przDrg0vPl4AVuRU6LWzPHck8PzaSg9Kn/Y/VhfhfWkrP2TPnT4HEemqr7E8g37tw3gK6BdeP+JfEpQ9DxheOvbl3fJm+PRP/m7XfgbBHgzLadJ3AKNP7gXJnD4y3q3ta9N34IgZ9+PDfP3mdWHlFu9VV0OtkXjayxJV9mcc4D2BuODFa8Abum2tJYd2NzfYYTgH52Y/tulq1nPrexfYTsYba4+2jZUnlsOiJIXz0mbqePTqe+tLsF0/MJZ0tzRYwqmNV/pcIO/WXv9qFQcHh9OLICuIjjF3pZe8NgBcoEpECJ/ob/b3cbkFgTD38OAZNwlxNkr7/z518OU30D69hoF263mxEn7QPsIXJJIxsBmRYBv/9vxLjQD2YWD3YujDYuBcg65TP6NNGIWCi26S5GkLZNv3/0VCo2Pt2N65MUITb/msGSVfETU9tw7iQxmONwR9fIQofLfk+OeBF0Avw4jCUKCgVmQ0hZWOGrnwHj/eBPZj/4F9vfOQZ6Ef8T1hFy/hEgJyXB6EIjwyxDwZHBvDP5BLwX8UdowI3zZ8bzU+/KfzwDaEdry2DHUtVrxL28JxB5au+tuHt6ZPCUa3Ht879gnXprAiX/5rCxZWZ0KfOwek3wWGIOkjoZExeuAx5oULDBP43if/O+T7wHdvAomB/m3972TvpR+83yGh4dpuXyiUC/C9M/rrEP3cvtPDkSfiex4c29dPfP3nqOVBhcXGmQeOVWpsB447nr993rkgPyfcPP0ewsV2tM27PtpM+Ie/8TAGXrdvvKKBvnP5jj/o3jg4OJw2jLpcucObD8hG0tQFsvWOz/g/OYZAslH+3P1mcBwcHBwcHN5OcGTjLYDw+CSdocWYi/gE6MyPRDg8HbiuzUPi4ODg4ODwNoIjGw4ODg4ODg6nFL5AqYODg4ODg4PDKYIjGw4ODg4ODg6nFKeNbFiVzvA3r4yyg4PD8bAVJVYgy7fqw8HBweGtgqByNkhgpJJh65F9+texzRnY+JzleKafMAyiM/JMe6Tylcf9n4wenA/hJvQfqFFBdcG3OjAA3KPIRApNseRS71VNha9Wgn+JH9VBEWsDLCVkxQl1PgLraLxRILSWnBFpy1R5hNSjoCLn6QJ6Il4Nizcb9AeSaBEWG6nuyTsVkHkq1VKvpXHXJqth4eDg4PBWQVBFvVKmL5RJt3xOKp5/UALXyCM3nX/BjaaZQsGh4ZA8bZ6MveJ9Uvb3v/o/GT2oJDj+uo9J+hnnmDGmkNBbHah35p9/o1VSpBokireUJfeVo/YVHBp/zW2Sf9FNRqQoYZ48ZY4ZD67xzTCeyRlRsvzSHJNKR8ukaGqiSbGjNXK6cOF7xkpEZOhxYm5vFrivVJekwFVv25svQvd2ADUt0ucuN8n4+h3r/mlJl4ODw1sTQYVROusrrRIgBacCQfU+lmwOVBUdM8a8ILF5422G5Ss6FIgxFkqhdDnEwSvkExT02JQ5R6KeaoJxBROsyI/3HedlwEVKmtLeVCv1QDvCYuK0/TEmiIYwGsW7ggGlv6Ojo2U4ZdlhoW2jCmjD7o2y/4//JyWP/cHk5AsufNfA/aSoE5VNd//8a7L319+2Es2UjY4rmGjfe6Ao0mjbQZGpRRdkS/7EeHn6j8Xy++/slj9+b7fsXn9MV4WiVTHxYVYYC2KSMzZWotEaCfDGUzALxVVUWE0ALQARUaEmt8450Erx6aL4gN4InxVOTTBdEX5H1dU8LH5QGCshJUKyi2LNA8PfwQBPF8q89AVfWfg083B45bbt+8QUu78eqFvC975ww8igwBvaHHhPojNytW+PO+E9QP+GZ0qf5nkPBn2NMtvWLwf3O+3D0Rk59qw9DRQPVrQqNt7fhkTbZvB7g14ObTIF4OBum4ODg8NpR1Cejf6eHslddaXUb3vVqhtmr7jYFwLQQS956jxp2rfNyg6nTFsg6QvPkvixUyVh3FSrikjtCKr2ISKVNneFVRNM1Nl74qRZOoCHS2dd9XFVEU8GjETyjAU2qGKMozPz/doklBiPkJyVl5mSKsqqaDLEFU6yMsqUQcYYpM9fKUna1oSx0yRx4mwb/CnzTMXG4RAfHy8LFy6UefPnSYySFeTbu7uDnzXS7qTJc/V29UnD9nXSVnbQ2kR7G3dtMH2INJ2RQpQIMXE9SIgnTpwlbaUHrMQygGSceeaZMl/bUVxcbOXJg0FSepSceUWebHyuWvZtbjBNDypheuXDQXpetMxanm6hjlnL02TinGQJCwsxSXW25+85Z2ZInpKNgskJFo6prdDvevqNJMxcli5TFqRI7rg4IxxRsWFWkpzvZyxJM72TcTOTzBZCahJSI63MOAJoMfHhum+yTF+cKnm6L/tDVigNPlJJEYhF8rT5+rz12Wj/IjwUpYQAUknpfAx7xsJV1mcQEcRwp85ZJlEpGRbKGqnfQWYhMukLztJzZZiKafLU+bYfJbT5F02RDP2e/pY4fpoRYsrc4wGE5EBCMpecb/2d94Jz805QVhtCnLvqCkmdtcTOE18wyfbj2IDQWuqc5UbOec/S5iy1/o2WDyG2mOxC3f9yOzahOMgMbaZ0t/NsODg4vJUQ1DQZg4wOAbOq+KIp5rJOP+NsCVUjj5FE2wAjzqDK9KppzxbTWMg95xobKH2zPZ/qI8qrqEAyGLI9g2wwwIDEF05RgrFLWksOmBHHQwEY1Bmw0xeslO7memncvUnJznQ9/1X2PcY7deZi24a4Pmq1DNBp85afMEsdDIx6e3u7JCclyapVZ8nNt9wsl156iWRnZ79ub0drCUq1/UZ48FbwP4wFQlyFl75HidFZZhwRswrEihXL5fIrLh+VjDyy7ZQCrzzcdkIZcA+omZ5xXpaRgprSDjm4rUnaWnqMHLD/qmvz4ZWyb0ujVJW0yYzFaTJ1oc6kFXghKBFeur9F9mysNx2VRednS2qWz7OEbklteaf0KWlpbeqx3xuru6wtdIvxMxNl9ooMJR79JobG54i6QWJGAqJbiHuhy9Pf1enTmqkqMeILILbkv2Qtu1CN9Awjfamzl9jn6OGMCG1gdHqOkutLrJ+2KvkjXNjb3mbfxSmRyD//Bm1HpxFJSESWEYvZtru3Lx6R5oM7TfGX9nhluxESo48iKta4e7OExSWZyN6A+m9MrPbbRUZ2KAfesGujaY4Y0Vfkrb7GSE7TXm1TW4v1IQcHB4e3IoK2lkikk5sB2UCx1OcSjjWXLgMdMy6EmypeeFjqNr8s5c89YElqDIY+g4qHpFvKn71fajY8b9LT/I1EfTDwpNpbDu+SLjUwR/t6bGYXCDwe1ev+LjXrn5WK5x+y+LUXTiExkxlh5cuPmWItA3RMdpG54YdDR0eHrF+/Xv70p3vl6af/LiUlJZKTmyPvevdNctO7bpKEhOPlr4OBp6sSFo+7X+8M/8flr39jMJgBY1DQQPGAsNpDDz0sd931c2lpOSboNhIiY0LNUBnR8NmoIdHXe1SO7GqWVx8tl7VPVMiudXXS3tYrE2b7VDhffrhc9m5skE3PVcuhnU0yZYHPICLehjgZMvGEY9AOSUqLlIRkJaJKRBBNQyIeATTUUvkdoTaEyvCAFE5JMA/K2scrZOe6enn5oXKJTQi3sIzfJp8UEGCIZfOB7dLT3CANO9dL7UYE8nba9+ho1G59xZ77uKs/aF4OvGGNezfb/Q8WRibU0NOn+WnY9Zp5FuhfEO2yZ+4zEbDKlx83ITXycgBEOzIlXT9/1ITz6Jd4r7q13SBd2wMxL3/+QRP2q3rlMVNFJSzigX4B8ax48WHru6VP3WveMMJAaXPPtM+sz+sPKrH2oo1w3xwcHBxON4ImGyRjRqbg2ZisZOIl/eSoDYoIIEEayJXA9Y80+9QPfUWmvPdfLb8CVzdWAzvX38Pss8KO16vEhFneYEnpoYDnAtISmZhi3pUENcZhsYmWGOjF50Enapd+Vdh2HfQJ45DLAZjNMuPF9Y1XASMBEcFDMhIw1oRPNm/eLBte2yDhOtAvXrxYpk+fJuHhwcX+A0HeCgSsjxmy3hmOT9tLnviTHHnoV1L65L0mYZ88fYFvBz+2bNkiL734knR2Bi+jbYqleq7APIqhgEJrbbmSID8hsX/1B6OflBopl39ovNz42cly3ScnW8gkLtGXB0EOB9Lyyy7JtW3DI0PN2IVFIq5lm5wUvpBKhEyckySX36bH/8xkueLD4y1vA2/LiGwjCKDwS8Ik/QzPWt3mV6zfjQZ4yywZ+bibo+3PLlACXCiT3vM56/OTb/0XI93hSmDps/yLeiuqqXYz+S9CYP79IZatZQd9f+sPbe3taJdIfZc8sD1KqT2tfoJp+x71lbiPidXvSuxj3kMUih0cHBzeigiebFSVSLSSB1z/TTo7JK6cMGGGzbI8ldKW4n1S8cIjUvbs/faz++7/MS+Cxa/1GGNCwuzHgCXSDxmMRwI5GcTKGWSTp8zTmeNCnxcgI9cIjQdmgZ6BYh+WkUIyfB+o8QtIFCRpk/yTYGa4ERERsvCMhfL5//d5+dSnP2Uy9z/4/g/kZz+7S5qa/Mmxo0BMVr4l/WHAfGqZELFuC/EgEc5MHa8QnpxAxMXFWQ7JaMI3TbXd2t6jkqakIDApczCwgWw3GORVILO+7qlKefWxCnnlkXJ59JeH5JF7DhmByZ8Ub6GWzc9Xy8Znq2TvpgbzWvh8WcOD3BFyQop3t8gaPTbHf/XRCvndt3ZZSGaw+uzrAWSSEB+AZCaM8/0+GtBPyFsaDEhLW/EB86KVPfuAlD3zN0sCLn70d9avbPmp9nPUVIcCBCE0PIDsat8lKfS4c9lxUEI9vp/6CJOSyDB/uMn2HT3xdXBwcDgdCNpqEUZJmDBLOnX2xJJNjGJ8wUTpaqw2l3KHzswBHoOmvVt8P/u2WjzdNxuDAETqMabb74QvmG36Zn3DA+IQP3aKlDz5Zznwl5/IgT//RIof+70Zo+j0XP9WYuQn1F84LHn6QvOieCtlWDXjrUJhQI9Wg9/boTPJERJEk5KS5Lrrr5Xrr79eDh48KHf//G65994/y6uvrpFDBw8Z8RgNSFLMWXm5rT5przgWfw8Eqx9INMT74yEsLExu+/Bt8q1vf1PS0qjZERzwVpTua5HZK9IlOvYY2WJFyAkYwrYf2d1siaM1ZR1yaEeT/Rze2SRVJe1GNjgmIZrK4jbLz0jJjLQwSFi4Gr8Az0Rne6/E6OeBaGnqltqKDiNBTbqvd/xiPSf5HcGir7NTQiKjjxFZPwjxkVeRccbZcuj+u6V+21pJm3+m5fOMHifeHEghCamtxXsD+vw26azRd0HJQVd9jRFcvHIeCH9494XcpZSZi+x365NKnMOi4+xdOx4nnpu+QRJs4mRffghhxsGrlxwcHBzeKghqNQogR6LwwndZfLhh52vmkmYVRd3GlyzhEVczLmTqbqTMXCy5Z10uBRe9W2d++4yg4G5Onb1M4vLGS+aicyVryXnSVVdhMXBmeCeFDszJU0jsWyaHH7hHB/JyczdDcBKVuOChYIUHq03wdLA6IFOPzaqYg/feKW3lh23ZK8mBhIAyFqySrKUXmoem8qVHpeXIXr24IaysH5CJ4uISeeWVl2Xbtu1SU1NjeRzkUAQDbzVK5uLz9OdcyT37Klu6e/Bvd9mKCAxJurY5ZeYSbfdqyTvnatuWRMCyp/86QIbwgMyaNdOW4T7//PPSqQY2GPQrIaO2xczlabL8sjyZtSxdll2WK+OmJ8mWF2tsG0Ih5E7s39IoLY3Hr2KAQKRmR8l57yqSaWekytyVGbLi8jwjDge2NtqSWBI8py9Okzn6XVZhrJGNqtJ2KT+oz8nvLeGzVdfky+zl6bYMloJiFPhqa+611S6smJk0L1mWXpKr2xXI7tfqrfBYMKBAWrqSiBztcxl672Iy86yP4v2iPgyrM6peftzIZ2zOWO2n06zPBubEDAVWdnhLVuu2vHLC9oQwktTYF15yi5LbMyTnzEsk5+yrzRvRcmSPEV3CfAX6TqTNW2HPP33hOdJyeLd9B1kouOgm669pc5YpKTpXCdEae8cgK+yLR8+XLHzAf9Zj4BjjrvmwJT+TRAqZJlToVqM4ODi81TAK1dcxEpWeJT0tzWro22yGFh6fbMs4SaADEBDqWGDUGSwx5BAN8ijIjwjT2ReTNFzZXQ3VlkwXTPyc3AuSUbsa1Th6xEBJCF4C3PW4rGfc/jVLvuuqq7R8B5JYCfHgOqdYVuEl75FOJTckFDILbClWgkQOB/GDUwhm16FKdrgG2knYiMqnZgz810L8nRUzNoHVz/jOtsENH0CE8G4wKw522WsgqIURnxIh42YkSmtDt3ksPGMeHhlipKGjRds2RCgFzwM1MgomJRhpwPsACSHEQhJoYmqE5E6Il57ufksC5Tr6+vqls61Pm+87Hl4Qam5EajuIjpBYyvZM8snzSE6PtGPgAalQcoSnA6IULLh/YdHx5rnq6+6wMB9ELyxO29XcaMmivu1i7HO8WsEY5NDIaDt2T0vTkH1ljNV2SZGkCTMsjEHisa2O8a928SX+JpnXgbo09k7UVg4cCyJMojLvFgmeLMf22mp5H9rHIeOEKgeDvsWSXMgQIbnu5gb9cIx5Hr377uDg4PBWwDtCYh4DMvMT35CKFx6SmteeGxisPfjIxi3m5SD50sHBwcHBweH0IfhMw7cydBaHS5m6CySFDgYeBWayQ80OHRwcHBwcHE4t3hGeDVzHuLvxaAy1uoXYe0hEhJEOF8t2cHBwcHA4vXjHeDZIGD3ZMlryNrx6IA4ODg4ODg6nF+8MsuHg4ODg4ODwlsVpIxvUyvCqeTq8c0CJcmptDFcw7HTAVGu1LYFgpQvqtRFRjlO/XcFKIBLA30qgIB8KvSeqWjs4OJwMQdXZQIMkdfZSq2dByMIDg0DSxFlWXhm9kuEQlz/eBLEad2/0fzJ6cD7qDlDgi/oThE7eTkCgi3oKaHqwtNUDarQo4lKnhGXByKWjN+NdH8qmaXP83/t/wuMTrarrmwFKg89cmiYTZidbDQxqZVAFtKNt5DoXKMZOmp+s2/fZPv8IRESGyuILc6ymR0tD90AXjYgMkTlnptuy3/qq4OqSvB7wzCDSLLV+s0GfR0GZKqZvt/4+Elgq71sSHGVL6IdCxsKzJS5vnLQW7/N/8o8H6tK8kyxhRr3XwcFhZAQ15YtW41d02Xtt3X8gqB+QroNBwoSZ/k9OjqiMHKvk+EYAqck77zrJW32dGdy3EzAaFG8quvRWI0xUU/UA0cg+81IJjYy0mg0Zi86RnLOvsiW7gFoN1CnJXLzaijdRYXSgTPUbBLUvFq7OkikLUyQ8IkTCw0MkZ1ycycAHA0TXJipJiR+qIunpwhgxotPXe3yhtVC9FgqGZSt5OpXIXnmZJPmVXt9sQDxRR0ZB9p0G3mfE8YarfGrKvW+xVWTRmflKNhZa7RwHB4fgEJRnIyQsTHJWXS5Vrzx+3OwqMjnNGD5S6K0l+2zVB1ol8ToTo+gXlT7lqM8AxOYWqZFdYMeIZyYYmyAmLuX/fiRY6en8iZI+b4XNKJA2p4CSTWPtvFk2+2NQRjWVpbBeQigkifLouD+jUjNMc8RkxoOYlSC0hiZJH/oY/cG1dSjE5Y4zksF5cb+2HNo5MIimzV6m5CNc9v3+B/r5br2PYyRl1hJTMkV+nJLuSJQnTZol3Q21Vqq9DZn6Qe1BMyUUbY1RtDMtN0aWXJQjG56pkvV/rzLl1+qSdiuq1dPVbwQkOT3KpOPtVqthxxMSGjrGinKhuQI5YR8KfiGiRmGu/r7jFznlT4iXoumJtg1VQ73Koh6QlMerkpoVbaXKve85X0pmlPTryWPjI2T8zCQrAtbe0mNdhzAJ+yKJ31ijbe48VniLtlP1FG9Hmx4ze2ystRk5+0AQghmrbaPomXlGgrx9kSkZEpWSbuXne9qbrVQ//dqWYPf5vDy8B3gGzaDqNVgRO8/1MgwIO6IYm6ikmgq03U0UoOs1L4C9g/6HgZjbUe3nCB7iOQsJCZNeE207aseIzR8niRNmWf+nyq9XTIw+GJWSadtRGj+uYJK1ebD3hLYnTZmjE45c6Wmp13fqWBI2BckQRWSmzzvWp+/74D7J/UiaPMcqt1J0jHcS8uwV/0uawjvRYUvTbUUZ906P4d03yrJT+RVP32DgTcKrxLEYawITxKOMnB3VNiboxGSa3S8bj0YB7jWq1FZuvp/9fW2giBrVWikQSNVi1H3Ns+s9V30uVH9NnDDDtgVcn/c9RQfx6hB4TJoyV/9OMl2kQIQqkUFhm+fKKruw6Bh7Pt795fnh4Y3Lm2DPbDAho28mTpxpFXApukjV4mD6nYPDqUJQZIOVHHk6027YsU7fI50tvvtT2nH7bWBAGA3JbgaDrBUXS/byiyUmPVdSZy8xjwjuT14SyAZekKjkDB0Ax9v3zGzQCBlchGsoMBClqgFmAG3as9kUZ5EO5yWGRBRd/l5JnbtMB5/pOjhMNC8Apc15iRloKWXNZwzeDD4p0xbYAEHFxuGAhPy5q8+Vyy7T2WtiotTU1AZdKjwQaGBEJKaaXgykoWHXBiNEgOti4K586TEfGVHCgIIubvkWJRnKHoxIUYqdwbp++1p7JoFISUmRq6+5WubOnSuVFZXS2hrcwIruyaxlabL7tQapKW3XUx21yqIQDZCZHyPnvbtI9myol96eo1Zt9Mwr8y00UVXcbmRj2iKdoep2GfmxMnlesmTkxRj5oMIoZAHFWLbB+BdMTpD0nBiTqQccb95ZmbL88lz9PFrylJTk6zboo3C+0LAQufCWIiUCkbL04mwlJImSVRBrpc6pYpo7Ps5Kpc8/O8uUaxGN88gC55u1PN22hxCxLZ6ODr2+BiUmAM2YlXo9qVlRSjiSZKbei2IlXF0dI1eWtTLz08/wafKo8UCVGM0ddIIwTBhB63eLzjVjSyjSBPi0X44kQBihx6JfJM84Q2LV6OIZQweIqrkQUPoD7wLl2Hk38s69xvo+In9UT7V39pyrJeOMcyRcj5VMqG7OMtNuwTAxKy+64v0Sz7ug15A0cbZ5C9FzgTTx4HJ1/2x9p+mbsXn6zur+SPiDqNRMq8qLsYxU0pKq/RtPHO+cR1iyz7xECi56l3lnbLIxfYHJ/zN5QYaf64tVEh6ux49S48h7ii4MkwBUnbmmlFmLjRQNDr9yPRwbEodXCYkEpBHMqCvGX/dRI0Gpc5bY5CNl+kILXwajxcTkJTZvrIy79iNK4GbpOJZjhpvKyUx0IBDxRZP0uNOM7PF84womWKl5EJ2RJ+Ou/pCOQ5Nt8pM6a6mRLuQJeL+zlp5v15628CzbFo8n/QetHNtfj5l/3g02ZnAu5BqYqDDBoF9BcCa++zM2lnHPkY2ARFLWnufGvcg//3o7d5T2Gf5uObDjBCLp4HA6ERTZgCwwaKHlgMHMXnmpMez2imIjG7WbXrQZAC8QL1zNhudNFhsdkNbS/Wbw43SwTZuz3HQfavTHiMrUBdLd0jAg4jYcInSmkLnsAmk9vNsqgcL6TSVV92XQzTv3WhvIy5+9Txp3vGYztSRtW836Zyy/IWv5hTY7KH3qz+YRwUBExCdLW+lBa8vJgEejuVlnrV1dMmvWLLnggvNl8uTJUldXZ4qvwZSFpl3cv76Odql57VnTycAgoH+CZTSyoUYEhVxmdEmT5tjgwgBL+zyg/4KRgqgMXsaLGuzKlSslMzNT1q9bHzTZIGwCAZixNE3y1BjjkWiu7x7wTKDouuziHFn3ZKV5BUjCXHR+toUtivc0G9mYsjBVSva02DbNdd1mwDH65Enw/ZUfnSgP/HS/7NvSKGX7W03UzRNaGz8zUclGhom7bXquRg6roed7iASkgcTT1TcWSnJGlLxwf5mSojop2dsijdW+cun81Ou50GVBdI5S516Zc8UkpdwAADCbSURBVMjGHG1LmP77zJ+KpVj3yyqKNWKBbkuK/osOy75NDaYTwzWMm5lkn+/f2mjHGA5ostAXIa7NSiLR2sEgdCmBZfDHEBP2wkDXbHhODUqkGWwIZI/2++HAOwfZhIhj2Gs2Pm/y+O16Pptha7+jr0y44eNqG0OsXyM0h+4KUgB4V/A0tBzcJY17Ntm/tIVt8ZJBXgrOv0H7U7eU/f1vRoAQSaR/cQxm1IWX3iK1+i5TlZc28/57Mvb0ezwlyAIgQIfHBoOOMYdwMB6Mu+Y2qXjpEanV/Zv3b5M23b+btvV0mdcO48cMnPeRcaGtTK+NUuvM3vX+4dFg5o6HhzZ4oG05Z11h723F8w9Ikx47dc5Sfb/jzGBDxAhXhkZFScnjfzRyxgQHb0PjrpFzxhgnIFLoLpU++Se7RrRpjMRpmyEATJaq1/9d6nTsa68qlrGXv0//fsb3bLTtjE28p0wukFTA69RZrZMfneDwHCB+pdo2NHwgN+giVa95yp4Pns4EJTeVLz6iE7z1Rprw4NRtedXu28SbdLKnKHn8DyYGiJeDsYFJX4hOVLKXX6TjQ5fpTlECn1y7Tm07fcrB4R+FoNP0UXmN1EGPQYTBkxeOlxtfIMmOzDCYEdVvX2dEgwEIIsGMCG8IwED6BpVDNsPixcTNNzLGGGHArdp8yDeY9vf1mLhbIJp2b1Yyssderuo1T+hsZIa20RdXZaaHl6V5/w7TpyBcwSA20goZdEhKSkrk+edfkHvu+aX8/O67pbauVj52+0flS1/6oqSmpvi3PDmYGTE7Y9bWUVNm1584YaaREIPORpiVzvvyT2Tel34iBZfcbAYC4xEsID8///nP5c4f3mliccECo/7IPQdlvRKFzMJYuepjk+Td/zJNCibF+7cYGZCTQ0oSMPS71tdLW3OPGXWMPYqweC8Kp6DJ0iOVR9pMIdYD2/V095nwGt9VHG5TMtF8XJgF4oNy7YFtPrKC/gqKsQDSAzmBdAwFCBIkokT35xj8EOohZJI/McE8GAjK1ZQqUdHz715fZ96PYIDhwPjjpsbwQjwgkMzMmaniXsfjBwGHNNZueslyb5iNjrSSgXfFDLfOpHvVwPEvxzej4XelA8gIBq1R3zfE3+jjPa0tZlha9T2A9EBcmd2ysoP30QNGn/eJ/VoO77L3NzwhydrG/oRGIPX9+u5ANDDqHjC69GPeL2bgJLFyvWi5gMTJc4x01W562drNTzOzayXtaCX5Jgo+UUV+t2tTcuF5OfmXz3paTyR9EBTIOV4S711u3LVJEsZOUQLmy2XiHuH5hDihyotoHuGLwXlnQyEkIto8GoxVHJtnzLFMwdoPiGCzjmHcA0iAhIYoKfTlWDEe8jlhZiYSeD3wYOAh8kA/aVIiwH1t0DETIsSPTyun0AhbvRING7OUUHgJtHh/kpXcMqmC2DLhg8hBPPFk+PrGGHsWoeFRNhmDXLpEVod/NIInG9Wl9jLFj52sL8d6HSTaLGbIi4UiLEY7c+n5Mu+LP5Izvv57Wfjfv/F5DxLVGCshwXQwE/FCBxZH1AGFJWQjAbcr8vYkRhIHxUOCixqiEpGU6t/KJ2/vsffO2irzeITrywkYvMkRocAXs0KMAHHTwETNk8Fmcd3dZsTb29olLy9PioqK1JiGc6gREZ2db3Fx7hczMgTpyHXx5PA5SHv5Idlzz7dk513/Jdu+/3k5/OAvbeYcLPDA1NbUSmVlpf0eLDDqyLzjlfjVf++Q335DByY17ng6SB4NBl0dx1auQC7alQCQm4FXorG2W3799R2ycHWm/L+fLpTbvzNX5q0kV8AXQmE7W8nSdqzNg++p18ajgcJsQdx30KfX0tLYY8fkp7O9Tw3OGImMDpWEtAjz6rz/P2bI53+ywH7Of3eR5YG8UVjfU+OBUe5htqvAcJLzgMEgVPZmAMONIT3+ph21PsYMGHc7noCetiYz7BglD3gAPCPG7xaaUaLB7Lq7pUkO3vsjC8vM/8pdsugbf5DCi2+2bQGfT//of5nmEMc0L4xe25gxvusihNrdWGP5JAOwNgb54IZBWFSMEfTAPAgjSvF6X7XtPhw1L4D9pgaY+8Q9P/b9yTBGx6xkuyaEGwfgdSA/uJceMWLMOdrnyzMBTMRmffrbkrPqSt1Fx46WRtsm8Nz0BRuLFCbap9eDkB/jUWh0jB3fC7UxbnmeTEJWVEOe+qGv2Dh7xtd/J9Nv/5qOcyk2+YOYlj//gBG46R/9qiz6nz9oP/ik9UUHh38kgicbVSWW/BmTVaSzoZ1qzMvN8JPz0NvRbi9H+QsPy2v/9UFZ9+V3288rn75cjqjRZBAjGYokSAZhgIuSFywY1Vf2SZ42z45DshnuaYhHVFqOsXkPvKQ6WtrvzHx40T1yg3uRWaUHvAq8wBClkRAVFSWrV58rP/nJj+U7d3xbGhsa5OO3f0L+66v/LfX1wy93ZJYYm1VoXpTY7AKd6Sy2tuMlwrXLPQDE0fHIMItiFvt64qskshJGGTV0DIUk4JEwD8CBFomJDzeDbOGUENroayfNjYo53lASWsGL4YH9uvxJohCEXevq5Y7bX5P//ewmy/1YclG2hUXwOpB4Gq6kI3D/oeCFdU6Kk3yNKm2UtscDYaOjeixyUtqbe+XAtgb52Ve2yXc++pp85yOvyf98YJ3c8bHX/Fu/fvSrcYGI03c9UkluxRglzj1KdAO9E28MR+1cg0FeEO/AgT//SA7f/wupeO5By1nwP8ZjCDCgBu97NYRNB3bIljs+K+u+crMe4x4pvPQ9Eps71q4J8g92/OgrUvLEH03W3rwQ1lXGWDKoqTz7+/frhRnkQccgRET7vLEEkFDZg4EOuJ7A34OH9g3ukyI8ZhgDfcKx9W9tpy3Pn3GGdNRUyM4f/5uUPf1nadjxmo8YHYch2qaXyZjEpIzjeGBcI6kWWD6NvlNbv/u5gXF27RdulI3/fZvUkTOi7WqvKJG9v/qOPrdbZO9vv2ueEHLA3iyC6+DwehA02SAEQFZ8S/Fe80q0V5VZchcM2lyqFYfN88GqCwzsmJAwY/pIcHuAteNyxdCTNIZbsz2IWhF4IIjdHvzLj2Xr9z5vP3t/811tR4clS3lInjLfGDzHJ4aJ69rLYg9V1h+rx8ATEhYTa4ae72xFzDBISU2R977vvXLFlVfIvffeK7e+571y992/kLKysqCk3iEVrH6peP4hG7hp+5Zvf9rCSCTmebOd4QZG7iNEye6rkjRc9IEDLcjNzZV/+/evyP/7l8/LxEknX0o4GFGxYZaUScInRj8+OUJSM6PNU9HV2We5FRAGam/wfWJapIU+AsFqkRzCJvp9zrg4SUqNlPKDbdKtBh3vBqtHMPqdeswje5rNdpj90EuuKmm3kAbJm0Y69AeiM1ob1VzfZe3geqiv4YHrYpULn+OpySyMsdUyTXVdlvvB6pfU7CgjTMjgk5BKe0cDZvWRqdn2jOh7hA15Jwg9kuMUVzTZ+jADPiA84nngRkIfhEWfPx7AoZ77SUFf0X/G6CsOwWF1BgmgoVHBLdfEMEGS+JcZfMPuDb6HRn/VfwcMl/6NIWRVSoyS6jHaPq6/YfdGneFPlPiCiXZP+IFsBbafcYRjkQw6cG2DHjwJqzH6jhMCsnur18WY09/bq+/zOCNUHJdQEUR9pMTbYEC7CF9kLD7H1y49L+Ei/h0JrCSzUA3Xwe86/uHRjM3ViUUQIRwIW2vJfpuYEJqCdBByNQ+xglBO8+HdlnjMyiPuBxM37h3/Mp7g+aDPEEIjjATpHdmj4+BwahFUgiiAcVsS09qnLdZI52XwqtvyisUdSfziBclbfa3O3pdKzpmXSv7q6yweTFIZ5IIkJzLrs5acb7UlWo/slYqXHh1+gNAXlkzwhKIplqzlzfjxcjDL0g3MjQy5gGiwYiNryXk685op+37/PUvqIg5KghZhF7Yj+5uE0/LnHzwuAXModHV1ydYtW+XRRx+TAweUvOggNxqQV0KeS9P+rbbyxgOudAahmvXP2n3E60Ni7VAgWW3CDZ+Q6PRs+8lYdK79S36MBwY5PBvt7R3y6iuvWtgnGKTnRssNn5lsSZ/zVmXKwnOzzMuw5vEKW20CQcgZGytLL8mRKfNSZMaSNMt7qKvotNyJpLQoIx+QEVaEzFqRbkSDhEv2LZqSKO/58jSZtjDNEkdnLEm1vI6da30eIcIsCUpwll2aI9MXp9rKlCkLUmTvhgbzfEBSpi5MkVI9F+05GfBULNC2E66ZuzLDwkIQiKJpiRIVHSaLL8iWmcvSJT4pQl77e5W1kWWuEIyVV+bJLP2O9q24PFfJUpTs3TR8Amcg6Iv0e+rIQCAt14CwQpeS4aw8C51lnLHKiDZJhY07T0zwPRlYUgsxZnltxuJzLZ5P7gTvDAafZENWJ9HPA8F7ghcwc+kFlnCYs/ISW6pJuLPq1SeUSERYMTmMKu8vEwHyrtiv+eAOIw4T3/1pq//Cqhvq2zTt3iLlz95vRIkfe5cWr5YMbQNJrFwTBKut/JDlHGDwCi97r6TNX2HvO21p3Mks35ezw+oO9ss561K9ttUWfsDQQrA8dNVW2n45Z11mhILQDNvoAGTvMStBsldcamTg0H0/9838FazQaCvdb9tihGP1PYQMNui995b/ngwWmtL289xISudYGQtJ8G6zexWTmWehKRJHPY9F1vKLLCeHyRP3JmfFJfZsMhedY4nohEpoCzkWCWMn2z4kq9IWxidW5zAWENbCS8wEJf+86y3ZE+AJq9/mSxDl+RRdcote//mSOnOxPpvrrbgiuTuQk8KL3y2Fl95q7c5ddYX0tDSZZ8uSVx0c/kEYleor7JpcDV4cBjpihAxOXuySz3ixmHHwcpAkRZKo6O8wb2YgzGZJmGJQaK8uC2om4psRRfrctAPQGZHOdmympZhx+9el4sVHlHgcMfdt88FdAy8XCXmF+nKSLFW/dY293HhifHU+gr781wWbceiMiCQ77z4BLzbb09zoc5PqDOVkVRR9s6pjISDAM2BQeqOgXklMXJik5kSbIW6s6ZTa8k7p7lSD4r81oeFjJHccYSmRqiOtZqCJApCUiUFntUdY2BglLjGWv0HCJkQBQBZiE8Mlb0KcEaKKQ63SVNet+x+772wTkxCuhCXGzlF5WAd16miwiU4QY+LCLYnUW457MhDeIfkTbwrEhMllZIzOJvU4iWkREpcYYUmoA8dWsE2UbpNZECvxyeFGoPCSsOx2NMBbFhrpC+NhEDwygcHFqwC5xKPBrBxyMhqYN0v7OrkKzOg5vhdeCI9LMoM31HvEe8O7iAGyZZNqLC3cQC4D+8bEW5Iobnu8EZzDRAsJbep18D0JpSR98i7z/gwYavbX98zedb0eVmtwT8fozSYZe6B9HEPJEscmodPCmt7NV9Dv+Y42MmYQwhjs9aHvU4siJDRcunTcsAmH/9gxOuHg3SKnjHwF79iEKvuVcHveEzwUjE9BvzP+faIzcy0/rKOqTDpqK6xt9k7rD+3wwmF4acnNMRKo95JcMSZDbMO9Y3LGtrTHxkE9vl2Htpd7wD32hdd895fj896zDytfkqcvlMMP/NLC2d735MVASkgaZtmrPTftz/ST6KwCS1Dtqqv2fTeoDoeDw+nGO0JinoFq5ie+IRUvPGRL5AKNOvDIBjPO0ifv9X/q4ODg8NYDkyGqlEIoAN4jJmdlz9w3kE/i4PB2wzsikMfMqunAdp011vpmVIPAzA0XJq5dBwcHh7cy8A5ThyNn5WX6Q02jPptEecnuDg5vR7wjPBsA1yQejcEuWMOYMTZLwCUZTNjGwcHB4R8GxqswQjW+FShMlgZ7ax0c3m54x5ANBwcHBwcHh7cm3HooBwcHBwcHh1MKRzYcHBwcHBwcTikc2XAwsIQ1PslXNdTBwcHBweHNxKhzNhBmKrzkZqtXUf7CQ/5PxZRMKWzDmnHWjpM5XfLEn0zzg8RMClsVXfkB/9Y+UCCn4oWH7d/TgdjsIsk+6zIrsV75yuMDBYCoJVBw4U1WjRBQI6Fuy8tS+fLjdi2IGrEf/wbi0F9/Jq2lBwbW9r9eUOuCwlUUngoJGyMVB9vklUfKpaH69IknUbhr/jmZcnB7k+xYM7zs/jsNlN1HGr5qzdMugdjBwcHhFCDoCqIekI1HyRBhseo1Tw4Y2pQZi62IDTLJyCZTLZRlW1QtNCGh3m5TdTza3aXbLjKSQQXMzvqq0zbAU4mUSogUvUGHxJPLhoTk6+fFj/1B6nestfbkX3CjoKeCUiUKsyjN8jnXReXAKr1O1G2DrQQ5HHLHxclVH5koW1+qkb0bG6RwSoKV/S7e3WyaJacDFOFCqt1X0Gt0Rafe7qDaLcq89NuRqks6ODg4OIweoyYbE67/mBEKSu4i1OR5B5gdUgrZJ8u8S5r2bpXsFRdbxT7q87N8i+qJIVE+HYPy5x6Q1pJ9x6tCngTxCfGSmJAg7e0nL1c9EiiUkzp7mRENKpFSdZFSzQCBOUouFz/yG6uESPEvqqVSehoPCJUIEZZi+WzCWCUbapQatq+1axoMRNtGW9J81bX5EhkdJg/edUBqyn3qpng66tT411d3SnpetISF+TRDKKlNxc2W+uPvG9U/Zy5LM30QxM1QLkXx1BMwS8mKkrlnZUhiaqSRCq+CJ16VhORIk5cPDR0jna0+TRQPVNfMyFdy1twj42YkytQFqVJf1SU9Xce2IQRTMDVBJs1LMcl2Kn6yfC9YokSFzEQlcamzlw54xfQmWAXHhAnTfRUzvcqKEZESnZ6r/0ZIX4evP6AbwrOFCKJT4lVLpGIk6qRod1Be2o6v7WIbQKlsKmCmzF5iFSepdot8+dGenuOOEZc33hSN0fqgKu2bUbnVwcHB4Z8JoyIbhBEKLn63HPzTj8yLMUb/13xwp32XOH6GDdR4MjDMlNPOXnGJlWhu2rfFjIeO81bN03QANr4wQFRGwtixY+VHP/6RLF26VJqbW6SkZGTxtsFAJC5l5mJp0fZiuCATaLNAGNBtQeeh8sWHrWQw4PoI/aAjgVYCiErJlKTJs20/ShAPxnnnnydf/5+vqSHvl507ffclGJx3Y6Ec2d0sezZQhlrPExsm+ZMSpK2xRyqPtMuFt4yVZRfnGgFBh2TVNfmmKVJxuM3uKSGQ274+2/RJsgpiZeXV+ZKWGyM1Je3Sqsc4S/++6qMTrYz3rGUZcs4N+bL15VrTLkF4DE/KOdcVmO5Je0uvlB86ZkwpM37dpybLzKVpkj02XqaekSoLzsnU/Wuku7PfJOLP1n3Pvb7ARNymL0qVc64vVELSKdWlHceVJR8KhC9Mg0P7SlhMjOk8RCsJQKiO0s5zPvc9Ixuehg1kr/Cid5neQzuaOEoSp37gSxKTXWAeqrFXf9A0aNDooJz+hBs/blo8GYvOUbKgpEF/71FSgWgXJaDR5EDwCsE0+mZC0VTpqq+2AnCUi8aTN14JNl4tdG4SJ8yyY1vJbwcHBweHoDCqBNG0+WdKa/F+6agtt1yFxEmzdOp37BCmcxCps3AdpLOWX2yzRYTYmKm/Eezds1duuvEmeeCBB+SW99wsd//ibrn1vbdKVnaWzvhHVlIEqL1G6g9eFrQCqNIXqeQhEGhb0PbI5AybyZJLEowEvofKikrzvlRXV/s/CQ7oeaCy6qGv13e/IqL916aEoqWpW/7yw33y0y9ulbWPV5oXA6BqunB1lpGVOz+3SX7/nd2y/dVa0zuBiaBXAol45J6D8vtv75bvf3KDVBxqV4KQb/v39fSb7PuDP9svZQdbjbwcB/0bL8naxyvk11/fIXd+fpOFXCbOSbavs8fGGcl5+BcH5ef/tk2e/WupCZyx30jAa5A+b6X2j36TKt9x51dk63c/axLd0Rk5SlBFatY/p0TwLLsWdEbQfEA9s0UJHyQRMS5Cctv/74uy9Xufk0N/vUvGXvVB/xl8nhA8ERu/9hE9x79Jk6mRTjAvFVUZd//8a1K78SVp2LZOdv74P7QNX5aGHettX4T9ED4re+Zvsvvur8uOH35Jdv/i65aH5ODg4OAQPIImG4gLpc9dYTNOBn1mhgz2Mdk+owUgH1M++GWZ+6Uf2+wThcjGXRvMq/FGgPw6Ho2nnnpabv/Yx+W7d3xXxhYVyZ13/lAuvPCCEQkHao/miQkJka7GOnOjh8XF20w20LpO++hXZe4XfiSzPvMdy+c4cO+P/d8Eh61bt8p7b32fvPD8C/5PgkNI+JiBcAfAu8Ff5Np6QMCso8WX21JX2WErRwChj9TsaCMbhE0QGasp7bBwBkjLiTIRMzwkkBjOs2t9neRP8CXDBgPu/4GtvlLJHKOxtss8GgDZdoAXBdDOViVGwQDxqujMPFMMxtsUnZ5jFWDxaJhcuT6b6vXPSnzRZIlKybDt4wsnWqiLkBwhEsguYnYInbE/6qcxAboSiHS1Qnj1uJAOQiWE0gjRjAREyginEPZLnrbAvGMmouXg4ODgMCoETTai0jIlVmeEkSlpknf+dZI8fYHFzRPHzfBvISY9v+eeb8rmb3xc1v/7e+XIo781Bcg3A+Hh4ZKdnSUTJkyQqdOmSmRUpOzevVuqqqosbDEcUIElns9MNWvZBZI6a5EpJiI7jeHxsOtnX5Ut3/mkbPzqB2T7/37RkkJHi1CdrY8WhDqi431GGxDuCFEO5BEG0NOtRMF/mXA38jYMapDxbngqqwDSMeAd0e/4PdC71NXea6GaYNGv+/f1+Y5vREh/hQig/hoegQLsUen1n488jUDiNBxM+VaJIKGQKe/7V5ny/i/qv1+Q/s4OJQc9RrjaKw6bJyp1znKJSE63UB2EF2D4ycXIV2Jr++oPYT68aR4pMBVTJQ0+6H3gAiCYASTzZICUlj71ZwuZFV35fpn5qW9J4WXvseRoBwcHB4fgETTZSJm1RGeFjTbjx0PAKgwG4/ixUyzBDxDXRiadBD9LsGNgfxMQGxsrK1askFtvfa+8++Z3SUZGhvzql7+S//yPr8q6detHIBtqjOOTLN+EWDsJkbStk5lxzljL3fBA27t1lowU9+tZlZCZmSmrzl4lOTk5/k+CA3LoWfkxZrxpH16D8IiQE5JAhwKGHU8DiaEQAJI18TZAMgAhDY4FufDsa1pOjOVUBMLLrYDoBAvO3dbSa8eN83taElIiLdk1GJBsSR+qeuVJ2fq9z8umb9zu+/nmx6Vm44vGahDZq93yinnV8HDwN2QC4KVCWvzQ334mm7/1iYH9+X00olU86zF4xwZfuvZfcjcO/uUnslnbdOSR31gIJjZ3nH8DBwcHB4dgEBTZwIix3LV+66s68P5s4Kd6zdMmhUxW/0gIT0iWNDUYiRNmSmh0rCRPmSdJk+eY12EkJCcnyRlnLJSdu3bKd759h/z4Rz+WXbt2S3f3yMY4RI0IiX0IGR26/+6Btpc/c5+RkIikdLu+4UD9DdqaOGm2uevjx061uiKsvgnEtGlT5QPvf78sXLjA/0lw2PRslYVC5pyZbgmW5EM01XVZDsVIwJNwYItvueysZWkya3ma5E2M9xOLo5akieeEvA1Wi0w7I1WmLEyR7a/U2v4eSAwlTJM/Kd7akDs+TsIjR+4edeW+489apm1fnCrTFqUMEI+R0KPkjqXFUZl5krX0AgtXkMSbsfBsS+4E5HM07txg4ZbU2UssIbnXn8SLx4NkThI96VvsjwckddZS+z5YQEKjM3JttQrnx3sCQqNi9JjzLKE5QfttZFKaJaZ6K1UcHBwcHIJDUKtRQkLDJK5oitRseMFqZQBmg9TOIAzRUVWis9we6ddBmOWkfZ0nLlFlJUfmonPMiBBvJxGTuDrHY4Y7HNra2mXdunWyY8cO6ejo8LnCgwTLHjEkrHyhrofnbbG2axuolUEsH3d+/Y7XpL/7xLAPKxUwaCQtMmPmfhCGIUkWb4iHjo526dOZ95o1a6WpKfiZdVNtlxr2UMlXkpBZECvdHX22WqTySJvNtuMSIvw1MDrMm8ByVEIlB7Y1mUeiua5bouPDLFGT7yKjQq1WxuGdzdJQ1WnJpxl5MfY9y1g5zssPl0tvQOiFpay9PUeN9GTmx8JTbOmt6CZ4SfZtbrRwDMQsNjFcaso6pK6iQzrbe21VCsdNyYr2/Z4XLfu3Nkp1STvOiWGBZ4N+EFcw0fJq4vLGWS5Q076tA0YdL1pIRJT1k9qNL0p3s2/pKiueenT/qPQcW2nCDx4s8jGohYIHjtBZu/ZPCAUMjCXQvfoMqbPirTLqaWsywhyVlmPhQvonP+EsqZ21WBLGz7AlspGJKXZc2jZUP3FwcHBwGBpBVRBl0A6NirXBP1DCndUnZPvjNcAI8TcGgNnoYBBqCcyPABAWcjpeT8giaGi7vGTAwBkp7Q2JjLbrob2QjV7qNgxhHX2rbKLs30D0KqkaUtL+dYDwBUY8OjZMyUe3dHVou/xPBmNPzkUPdSv0M0IloeFjrJ6GQQkJn4XrDxVIz1idZfU0nvlzsTT7QzGQkOSMSCUHffpZ10BORyBYWBShpIcwSF9v/8AKGc5Pnoe1R8/FNpanAVnRv8kfsTaFjrFwzsXvGydP33tEDikZCoYXsiqFWhnkX/jCc3UWyhrY2f8M6YfWBwf1L3I/8DiFJyTZklTf0mtWxPj2M2Lsr+dCf2XJtuVxBDQOwgOhwRPGua2Giu4fpn2ElUx4OTh2l/6criJ0Dg4ODu8UOIn5dwAo6LXiyjzp6eyz0EdSeqTV7Nj8QvWQpOLNBFoq42clmVcGb0tadrR5O577a4k01pxY9MzBwcHB4Z8Pjmy8A4A3ZNZyck98k3W8GcV7m6Wt6dTPwEk+zRkXJ9lFsfY3YZ7ifS1SU+pbauvg4ODg4ODIxjsBSjJCQ0OsLgdkg6Wq3uqS0wHCKLaKRf8P2eAnmPCJg4ODg8M/BxzZcHBwcHBwcDilCLrOhoODg4ODg4PD64EjG0GAlQgsn2XFhMPowAobL5/DwcHBweGfE6MOoyRPmy+Tb/1Xk14/fP/d/k9Fcs66XAouucVqUFAiuruxTvb94QfScmCHLVVMmjJXpt12fEkPRNEOP3CP/XuqwHLKCTd9UmrWPSPV65/xf+oDpafDImOk5Ml7bbnlyYDmS87Ky6Raj1G35RX/p6NH0aW3StaKi2XPL78pjbs3nrCE8x+BzIIYuf7TUyQxLdISPiiRvuaxCln/VOVx4nCvFwvPzZIzr8yVOz62wf/J2wss2abWBrU/yp97YGAJrYODg4ND8Bi1ZyNt7ko1Sv1WVRFBNg/UM2grOSC77vov2fzNT0jLkd0y8+Nft/LOLJNoPrBTNn39I3LgT3daEa0993xD9v7yW1ZcaSRYDY8AddnRAIOOzkbkCVVOx0hUarb0U2dDv/d9NMZXb4HrYmnHceBvbYcan6G/Hx6QHrRlQsLDfVVUo47N9rk2akhQ6CIkLMLqTgTC952vjgnts7/fJFAiHaG2Z+4tljs/v1mev69UzjgvS5ZcnDNQ4pxtAkFC6ODL9+mkhFi9jeO+43f/BySR8r19NkrYfbdrD7g3dk989yYQdv8CP9PfeWb8HNePbH/ftuzD8QfvR20YK1GeU2RE+oRjK6xtEZEn7u/g4ODgYAiqgqgHBtUJ139USp/+iyQUTZZWJQqobILE8TOs+BEzf6TZG3dvkoxF51oRJkpSY9D7Otus8FLKtAVS+coTpmsRTEGvlJQUGT9+nE68WWXRL73+yo/BAOMeXzDZinI17dks4fHJPsMQFiYZC1cZQWo57BPuogJlxqJzzLjQbiqh0j6qSyaMn25/U6EyftxUneH2+CqfBumdSJw4U+LUYLWVHVbig5jYFiNdIDa3yIhIhN6btPkrTQqfSqX9XV1mDKlgieIpVSzT5i43o0flUoqpeUAALi0tTRITE6RL9xtJnM5DfHKETJqbLId3NcuhHU1SfrBVklIjrSJoyV4qu46RibOSpKGaYx41UkFpdCqetjX3GPGI8x9j1op0yR0bJ12dfdLR4isCRtnzwqkJsndjg5UzHzs9UVobu6WjNbhnCJmITs+VlJmLlOAuUlIbaeXKKR4XmZwhcQUTrACXJ/gHochYsNIqi6Iey7OGKKTqfUuYgGjgUentaLXqoeEI9OlnY0LC7PlmLj7XjkVVUwgu3gw8eYnjZ5r4Wl9PpynL0g+8Krl8nj5vuZVYp99wbIp/OTg4ODgcw6imyAhhhcUlSsP2ddJaetD0Qk4GBnnwZiyBjE+Il9tu+5B88lOflIsuusiUXzGswSis9qtRIaRDhUnKYU95/xek6Ir3S0x2oc1EuxprbTZaeOktMvHdnzbdFgTaJr/vC5IyfaH/KGK6GFlLzzf12OQp82XyLZ+T+MLJuuvIt5BtYvPGS4+SC8gYUuWUQPdmwWhyoHZKmIXz5J5ztRRd/j4Jj0sw45m98lKZ+oEvSeaS1eYhmfjuz0j2WZfZvh4yMtLl9o9/TO/Rp0YtBBcIPA8QCp4bjy49L1ou+9B4iYjyXSffr7giTybP9wnYxadEyKqr82XpRWqEe/olMT3S9Fdi/BL0gMJfF9061gjMtEWpcvltE4JWneW+zfjYfxvJorx8wUU3ScElN+vvMVZ6PG/1tZKo/dDzeKBfM/7GT/iq2uq9Q8ANNVgEAyEK4665TUnFeXZfI/U5cJ8n3Hi7JE2ZZzo/sz797QHpetPBKZoikSnp9nvC2Kmmi+Pp+UBgp932b5JxxjnS2VBrpdHzzr3WvnNwcHBwOIZRkY30eWdKy6HdOrBWmwYKg69HKgCDrRnjaQsk//zrbcBvPrBdDdcby00oPlIsX/jCF+XBBx6QiZMmyM233CxXXXWlLFmyxBRgmYWeDJSW7mqssbYhUU6yZ0ioGn8lHsTf8U4wOyYuv/fXd8ihv90l+3//A6l97TnLr/AIAah57XnZ97vvW84FCriQrRA1OCMhLD5RYtSQIVnfuG+L9Oi+hFLM7Q44h1r3fb/9vhy490dy5MFfKalIMw+KB2TOD913t52/5PE/SO6qK3xKpX60t3fItm3bTT+msanR/2lwIPyBJsuE2Ukyb1WmJXRWHG6V9uaRi4KhMItK7fY1dRaCeeCn++W5v5SY98JDbHy4PHLPQXnkF76f6LgwyxUJBgUX3ywth3fJzp/+hxz668/kyEPcm3Qz+gixddZWSnzBRCNmIG3+WVK/dY2VHIeQQMoqX37MQnb7//B/Ur32GSMQeC0AhKF2wwt67J/Krp/+p3TV10iS9l/K0OORO3zfz6V+21r7HQE/2tBWesD2jUxKN69LyRN/lPJn/mbPbt9vv2vfOTg4ODgcQ9Bkg5lgyuwlFiJhhshgbnkIarQ9oJaZqjPJrGUX2uy99Ik/KTnZ9YbdG4RPWltbTU7++9/7gTz04IMybvw4+cQnPy4LFsyXkGFyGMjJQFQLUsSMFZXQ7sZ6bfc4uwbCJXEFkywsghscsbj0hass3IIx8QgB4l8dteUWVsFVjvR4ZErmMcIwDDgv5AHyhUcDT0vipDkSGu4nanp9XU110qHH5Hfc8IRYCBN4gGx4aqcYvoiEVJtte0D47a9/+av87re/k6bG4EXgQER0qIydniALzsmU8TMS5dDOJtn8Qo0pwY4EqpTWV3fK2GkJsuj8bFOeTUbuPuQYSWtR4oGQHN0AgTjCLFF6zmCQNGmW3TdCXoS44sdOs2dJWMkjBBj8iMQUI5RJU+ZI1bq/276sHorJLpKwqFjzPmSccbapx0I4UfIF5PRAHiCe/A6R9ojLSOhuaTBhttyzr5as5RdK+vyVJgrn4ODg4HA8giYbMTlFNpBCMHJWXi7JU+bKGDW0xLo9YBBLHv2tzr6/J7vv+YZUrX3KBvE3AzExMTJ//ny54MILZN78eVJZWSWPP/a4HDhwcPj8BLVwkApCGRglVr4gwkXuhS/23mH5G5AGyEZcwWT7F1StfXrAs2ErRwLO09/X5zOow3hVDPp9TFahSdmT15J71hWW24Jbn391A9vsqB5P/+v7HausP4GJoL7cFv/3+vtR/d+Y0OOl3MP0OqKiRva0DEZ7c69sfKZaHvjZAfnrnfvkmT+XGDkANCUwoZPLtWqhfiCFv/7JSjm4o0nScqJl8YU5svTiHIlLOkbCegLUZe0K9D+BZOSk0JPxXCIsN0Ofi5JCCAXeNVNxVSA5HxIRJdH6PMnr6NNnDQEB5LZAkqMyc21ffrig5v3bB/IquJc8ywH0H3/fhwOE8NB9d0mz9ilCjJDswotvtvCOg4ODg8MxBE02UmctsQG+dvPL0nxol8lstxXvt7yFgfwMnWli2BmETTXTLNUbB/kZN73rJll93mrJSE+XstJym8X/+te/kT179viM8zCgLbQtKi1LZ7EHLbmSODyf4dloLT1k/5b+/a9y4N47/T8/krKn/yL9/sRDC8MkpZkBZOUN+3c11MrREcgUs2sSFPGE1O9YZ/eu5rXnlOS0WSjFR1jEZuqepwJjxeybREUPeJP4DMTmjLV7HPh9QkKCnH/++XKhkrHUVEhM8OD+dXf1WdImS18pN+4BuXsjTHE+YoPQG+qxHrj1eDZeeaRcHr77oGx6rlqyx8ZJXEDOxusGxODALvM8HHsud0rxw7+RliN72EK66qukrfyQhfQyl5xv+UTW9xQk2bZXFFsYJHD/smf+auGXYGBkhPwPP3E5DnpfOE7xw7+2EE3Z3/9mS7x5lg4ODg4OxxDUahRmemOv+pA07t5goREG/7ayA3whydMX6uzS58omjNK4Z5PlJAxGdEae5J13nSXikfRHsh+u756WJpuNDge8GpmZGbJp4yZ5/vnnZOdOJTtNTUGvuCCvImniHJslV736pDY71DwzbSUHbVVId1OtkqZJkjx5rhXvIgcAcgU5ITeF1Sgp08+w64vSHxJHIRDVa/4uHdUlw5Kq2JxCSwBt3LVBKl54WFpL9tsP94BQTs3GF5V0TLfVKhFKaEhc5dzkmlSvfVoNZ6ftH5c/0VZPWKhnyXnSsHO91G991X8WH9mAjOUX5MumTZst7BQMWI1CsmfZgVapPHzic+jrOSrTF6VKel6MpGRGyqQ5KZKUEWXbFu9pNkn5easypGhqguSOj5ei6YkmR79nU4ORF281yqtKRgBFvjhf8Z4WqS0/Jvl/MhCyylp+kYWUYvPG+u59wQQjEpBGwHLU9PlnSZw+tyMP/8oICIBEsRopY+E59tz4ntwcjkViMH2Qe1u35dWBOiuZi1dLd3OdPq+N9jfPFmKZMm2h9o0cu/+cl/PzN54qvBo8z8SJs+x8lS89OkB4HBwcHByCJBshapwhHHVb1wS4n/vNi8Gg21ldZgSDnANyOoYaaMMio21JJ96AFiUnXY11Oqg3SFddpXkVhkNnZ6fs27dPSktLpbu724zIqKBt7WltNOLAD+0mERCSRA4H3ov2yiO64VEfCdKZKSSovapEZ64Vtn+nbod3Aq8DIQ9WlTTv2zaiUSFEwz1qObjrOBJGgmmvft6mxAMPB+EpZuCcu7O2XGqVhHAvMaQYRMs1aajW9sXZrL7qlSfMEHtgOXBFebns3rVHysrKpC8wNDAMuJXkZpQfarOlrIPR29MvjbVdtroECfmasg45sLVRKo60SUt9t4RFhFjIJEFJC4mfDdWdsv3VOiMSnigbn5Uf9BEZO19rj5GVYIqGQRy4VyHh5Gkk84isv3VU6TX6+00Py4CVlBEeadj5mhE1YDkY+sz6ujuMcIbHJdnz6iCxtK5KjvZ02XNuK9mnx/J5sAj78Uy43wZtcE97i+Vn4OFgyS3nJ7EYTwc5OKwgwvPVrQSmas2Tlrjq4ODg4HAMwVUQJXSgg31/ry+JzoMVo1JjavkGug2EhAHZLMog4E0YnEzJsTAMb3S1yojQthG/B9Y+/lZDYbkPAUaZzyATGDaMCQaIbbgur/iTFePS67NaDX0jG0v2gzCw7XH3Tj8LCVUDrkaS5ZzJOnPe9r9fkHA9f68aUXJJdAcL2Uy85bOWD1O95ik9tZ7bwlQ+4/hGoZdky1khEoHhk0BQSyMmXp+z/t7Z2qvXxNLYoyYhb/sr4YiKCZPQ0DHS2dFnoZijftVZltGS49HT5bt2tg/V841GmZb7HxoZI6HRMdZfetvbtK3H9zNf3xpjfTTwc0AIhJUp5HZALHupn6LPw9d/tR8E9EE7jv7OkulADIRR9AIsmZRnr7+zfXhMvH1Pn+HYg8/v4ODg8M8Op/r6FgBkI2nqAtl6x2f8nxzDANkoPSjlz93vIyEODg4ODg5vIziy8RZAVEqmhMXGSWuJr35DIJjVU2yKkAFu+kDviIODg4ODw9sBjmy8FUBsAZzM/T7S9w4ODg4ODm9hBL301eEUAhIxHJEY6XsHBwcHB4e3MBzZcHBwcHBwcDilcGTDwcHBwcHB4ZTCkQ0HBwcHBweHUwpHNhwcHBwcHBxOKRzZcHBwcHBwcDilcGTDwcHBwcHB4ZTCkQ0HBwcHBweHUwpHNhwcHBwcHBxOKRzZcHBwcHBwcDilcGTDwcHBwcHB4ZTCkQ0HBwcHBweHUwpHNhwcHBwcHBxOKRzZcHBwcHBwcDilcGTDwcHBwcHB4ZTCkQ0HBwcHBweHUwiR/w/5IPufLBV7PAAAAABJRU5ErkJggg==;" vertex="1" parent="1">
          <mxGeometry x="140" y="680" width="520" height="291" as="geometry" />
        </mxCell>
        <mxCell id="Qs5NNN89bRjwcq2clkfe-18" value="" style="endArrow=classic;html=1;rounded=0;" edge="1" parent="1" source="Qs5NNN89bRjwcq2clkfe-3">
          <mxGeometry width="50" height="50" relative="1" as="geometry">
            <mxPoint x="600" y="300" as="sourcePoint" />
            <mxPoint x="725" y="300" as="targetPoint" />
          </mxGeometry>
        </mxCell>
        <mxCell id="Qs5NNN89bRjwcq2clkfe-19" value="" style="endArrow=classic;html=1;rounded=0;" edge="1" parent="1" source="Qs5NNN89bRjwcq2clkfe-6">
          <mxGeometry width="50" height="50" relative="1" as="geometry">
            <mxPoint x="730.5" y="329.5" as="sourcePoint" />
            <mxPoint x="600" y="329.5" as="targetPoint" />
          </mxGeometry>
        </mxCell>
        <mxCell id="Qs5NNN89bRjwcq2clkfe-20" value="" style="endArrow=classic;html=1;rounded=0;" edge="1" parent="1">
          <mxGeometry width="50" height="50" relative="1" as="geometry">
            <mxPoint x="590.5" y="360" as="sourcePoint" />
            <mxPoint x="280" y="360" as="targetPoint" />
          </mxGeometry>
        </mxCell>
        <mxCell id="Qs5NNN89bRjwcq2clkfe-21" value="" style="endArrow=classic;html=1;rounded=0;" edge="1" parent="1" source="aM9ryv3xv72pqoxQDRHE-5">
          <mxGeometry width="50" height="50" relative="1" as="geometry">
            <mxPoint x="249.5" y="460" as="sourcePoint" />
            <mxPoint x="90" y="460" as="targetPoint" />
          </mxGeometry>
        </mxCell>
        <mxCell id="Qs5NNN89bRjwcq2clkfe-22" value="" style="endArrow=classic;html=1;rounded=0;" edge="1" parent="1">
          <mxGeometry width="50" height="50" relative="1" as="geometry">
            <mxPoint x="273" y="400" as="sourcePoint" />
            <mxPoint x="737" y="400" as="targetPoint" />
          </mxGeometry>
        </mxCell>
        <mxCell id="Qs5NNN89bRjwcq2clkfe-23" value="" style="endArrow=classic;html=1;rounded=0;" edge="1" parent="1">
          <mxGeometry width="50" height="50" relative="1" as="geometry">
            <mxPoint x="732.75" y="440" as="sourcePoint" />
            <mxPoint x="277.25" y="440" as="targetPoint" />
          </mxGeometry>
        </mxCell>
        <mxCell id="Qs5NNN89bRjwcq2clkfe-24" value="" style="endArrow=classic;html=1;rounded=0;" edge="1" parent="1" source="aM9ryv3xv72pqoxQDRHE-5">
          <mxGeometry width="50" height="50" relative="1" as="geometry">
            <mxPoint x="280" y="520" as="sourcePoint" />
            <mxPoint x="420" y="520" as="targetPoint" />
          </mxGeometry>
        </mxCell>
        <mxCell id="Qs5NNN89bRjwcq2clkfe-25" value="Create tx record" style="text;html=1;strokeColor=none;fillColor=none;align=center;verticalAlign=middle;whiteSpace=wrap;rounded=0;" vertex="1" parent="1">
          <mxGeometry x="290" y="490" width="110" height="30" as="geometry" />
        </mxCell>
        <mxCell id="Qs5NNN89bRjwcq2clkfe-26" value="" style="endArrow=classic;html=1;rounded=0;" edge="1" parent="1">
          <mxGeometry width="50" height="50" relative="1" as="geometry">
            <mxPoint x="272.75" y="549" as="sourcePoint" />
            <mxPoint x="737.25" y="549" as="targetPoint" />
          </mxGeometry>
        </mxCell>
        <mxCell id="Qs5NNN89bRjwcq2clkfe-27" value="" style="endArrow=classic;html=1;rounded=0;" edge="1" parent="1">
          <mxGeometry width="50" height="50" relative="1" as="geometry">
            <mxPoint x="732.75" y="590" as="sourcePoint" />
            <mxPoint x="277.25" y="590" as="targetPoint" />
          </mxGeometry>
        </mxCell>
        <mxCell id="Qs5NNN89bRjwcq2clkfe-28" value="" style="strokeWidth=2;html=1;shape=mxgraph.flowchart.annotation_1;align=left;pointerEvents=1;direction=west;" vertex="1" parent="1">
          <mxGeometry x="750" y="560" width="20" height="30" as="geometry" />
        </mxCell>
        <mxCell id="Qs5NNN89bRjwcq2clkfe-29" value="" style="endArrow=classic;html=1;rounded=0;" edge="1" parent="1">
          <mxGeometry relative="1" as="geometry">
            <mxPoint x="89.5" y="120" as="sourcePoint" />
            <mxPoint x="269.5" y="120" as="targetPoint" />
            <Array as="points">
              <mxPoint x="230" y="120" />
            </Array>
          </mxGeometry>
        </mxCell>
        <mxCell id="Qs5NNN89bRjwcq2clkfe-30" value="Search station" style="edgeLabel;resizable=0;html=1;align=center;verticalAlign=middle;" connectable="0" vertex="1" parent="Qs5NNN89bRjwcq2clkfe-29">
          <mxGeometry relative="1" as="geometry">
            <mxPoint x="-5" y="1" as="offset" />
          </mxGeometry>
        </mxCell>
        <mxCell id="Qs5NNN89bRjwcq2clkfe-35" value="Cell Fuction" style="text;html=1;strokeColor=none;fillColor=none;align=center;verticalAlign=middle;whiteSpace=wrap;rounded=0;" vertex="1" parent="1">
          <mxGeometry x="360" y="160" width="130" height="30" as="geometry" />
        </mxCell>
        <mxCell id="Qs5NNN89bRjwcq2clkfe-37" value="Request access token" style="text;html=1;strokeColor=none;fillColor=none;align=center;verticalAlign=middle;whiteSpace=wrap;rounded=0;" vertex="1" parent="1">
          <mxGeometry x="590" y="270" width="140" height="30" as="geometry" />
        </mxCell>
        <mxCell id="Qs5NNN89bRjwcq2clkfe-38" value="Access token" style="text;html=1;strokeColor=none;fillColor=none;align=center;verticalAlign=middle;whiteSpace=wrap;rounded=0;" vertex="1" parent="1">
          <mxGeometry x="620" y="300" width="100" height="30" as="geometry" />
        </mxCell>
        <mxCell id="Qs5NNN89bRjwcq2clkfe-39" value="Token and Transaction info" style="text;html=1;strokeColor=none;fillColor=none;align=center;verticalAlign=middle;whiteSpace=wrap;rounded=0;" vertex="1" parent="1">
          <mxGeometry x="350" y="330" width="150" height="30" as="geometry" />
        </mxCell>
        <mxCell id="Qs5NNN89bRjwcq2clkfe-40" value="Complete Transaction" style="text;html=1;strokeColor=none;fillColor=none;align=center;verticalAlign=middle;whiteSpace=wrap;rounded=0;" vertex="1" parent="1">
          <mxGeometry x="430" y="370" width="150" height="30" as="geometry" />
        </mxCell>
        <mxCell id="Qs5NNN89bRjwcq2clkfe-42" value="Transaction Confirmation" style="text;html=1;strokeColor=none;fillColor=none;align=center;verticalAlign=middle;whiteSpace=wrap;rounded=0;" vertex="1" parent="1">
          <mxGeometry x="430" y="410" width="150" height="30" as="geometry" />
        </mxCell>
        <mxCell id="Qs5NNN89bRjwcq2clkfe-43" value="Received" style="text;html=1;strokeColor=none;fillColor=none;align=center;verticalAlign=middle;whiteSpace=wrap;rounded=0;" vertex="1" parent="1">
          <mxGeometry x="150" y="430" width="60" height="30" as="geometry" />
        </mxCell>
        <mxCell id="Qs5NNN89bRjwcq2clkfe-45" value="Ongoing Event" style="text;html=1;strokeColor=none;fillColor=none;align=center;verticalAlign=middle;whiteSpace=wrap;rounded=0;" vertex="1" parent="1">
          <mxGeometry x="770" y="560" width="60" height="30" as="geometry" />
        </mxCell>
        <mxCell id="Qs5NNN89bRjwcq2clkfe-46" value="Subscribe to transaction changes" style="text;html=1;strokeColor=none;fillColor=none;align=center;verticalAlign=middle;whiteSpace=wrap;rounded=0;" vertex="1" parent="1">
          <mxGeometry x="402.5" y="520" width="205" height="30" as="geometry" />
        </mxCell>
        <mxCell id="Qs5NNN89bRjwcq2clkfe-47" value="Push Events" style="text;html=1;strokeColor=none;fillColor=none;align=center;verticalAlign=middle;whiteSpace=wrap;rounded=0;" vertex="1" parent="1">
          <mxGeometry x="440" y="560" width="120" height="30" as="geometry" />
        </mxCell>
      </root>
    </mxGraphModel>
  </diagram>
</mxfile>
